<?xml version="1.0" encoding="UTF-8"?>
<svg id="Layer_1" data-name="Layer 1" xmlns="http://www.w3.org/2000/svg" viewBox="0 0 839.94 463.43">
  <g>
    <rect class="cls-1" x="318.66" y="208.69" width="580.09" height="46.98" rx="1.08" ry="1.08" transform="translate(14.11 498.42) rotate(-45)"/>
    <path class="cls-1" d="M420.22,463.43c-2.83,0-5.67-1.08-7.83-3.23l-31.7-31.7c-2.09-2.08-3.24-4.87-3.25-7.83,0-2.96,1.15-5.75,3.25-7.84L789.34,4.18c2.09-2.09,4.88-3.25,7.84-3.25h0c2.96,0,5.75,1.16,7.84,3.25l31.68,31.68c4.32,4.33,4.32,11.35,0,15.67l-408.66,408.66c-2.16,2.16-5,3.24-7.84,3.24ZM401.14,420.67l19.08,19.08L816.26,43.7l-19.08-19.08-396.04,396.04ZM394.83,414.35h.01s0,0-.01,0ZM790.87,18.32s0,0,.01.01h-.01Z"/>
  </g>
  <g>
    <rect class="cls-1" x="-58.79" y="207.76" width="580.09" height="46.98" rx="1.08" ry="1.08" transform="translate(231.26 558.28) rotate(-135)"/>
    <path class="cls-1" d="M419.73,462.5c-2.96,0-5.75-1.15-7.84-3.25L3.25,50.6c-2.09-2.09-3.25-4.88-3.25-7.84s1.15-5.75,3.25-7.84L34.93,3.24c4.32-4.32,11.35-4.32,15.67,0l408.65,408.65c2.09,2.08,3.24,4.87,3.25,7.83,0,2.96-1.15,5.75-3.25,7.84l-31.69,31.69c-2.09,2.09-4.88,3.25-7.84,3.25ZM23.69,42.77l396.04,396.04,19.08-19.08L42.77,23.69l-19.08,19.08ZM445.11,426.03s0,0,.01.01h-.01Z"/>
  </g>
</svg>