<?xml version="1.0" encoding="UTF-8"?>
<svg id="Layer_1" data-name="Layer 1" xmlns="http://www.w3.org/2000/svg" viewBox="0 0 732.17 923.55">
  <g>
    <path class="cls-1" d="M606.52,906l-528.07.03c-44.01,0-60.61-10.33-60.93-56.08l-.02-763.78c.01-58.48,9.47-68.78,68.38-68.67l37.69.03h393.83c1.82,0,3.59.62,5,1.77,6.47,5.27,12.34,11.79,18.25,17.58l169.05,167.53c.92.92,3.67,3.28,4.15,4.45,1.46,3.5.47,125.45.47,140.81l.23,508.51c.31,41.96-38.4,47.91-71.06,47.88l-36.98-.05ZM62.9,40.18c-.17,0-.34.01-.5.03-15.43,1.46-21.83,8.8-22.29,24.09-.6,20.12-.1,40.39-.1,60.52v710.66c0,18.62-5.56,45.95,20.88,47.71,17.77,1.19,36.19.24,54.02.24h504.18c15.93,0,32.07-.53,47.99-.03.51.02,1.03-.02,1.53-.14,34.33-7.84,22.65-68.94,22.65-97.59V230.05c0-3.43-2.77-6.21-6.2-6.21l-90.06.03c-36.77,0-80.79,6.38-90.99-41-3.4-15.81-1.74-37.35-1.74-53.75l.03-82.72c0-3.43-2.78-6.21-6.21-6.21H111.46c-16.15,0-32.42-.46-48.56,0ZM535.33,63.98c-3.91-3.9-10.58-1.12-10.58,4.4l-.02,64.52c.02,79.05,8.94,68.46,77.52,68.49l47.03.08c3.05.01,6.1.14,9.17.25,5.59.19,8.53-6.56,4.62-10.56-17.44-17.83-35.66-34.79-53.35-52.41l-61.11-61.11c-2.53-2.51-8.03-8.44-13.28-13.67Z"/>
    <path class="cls-1" d="M643.75,923.55h-.27l-36.96-.05-528.07.03c-21.1,0-42.75-1.83-58.23-15.09C2.57,893.32.16,869.3.02,850.07v-.12s-.02-763.78-.02-763.78C0,53.55,2.86,31.83,17.41,17.31,32,2.75,53.57-.05,85.91,0l37.67.03h393.79c5.87,0,11.56,2.02,16.11,5.73,5.28,4.3,9.91,9.02,14.41,13.6,1.73,1.77,3.37,3.43,5,5.02l.08.08,169.05,167.53c.12.12.29.27.47.44,3.11,2.91,5.82,5.65,7.51,9.7,2.01,4.83,2.55,6.13,1.9,128.97-.05,8.98-.08,15.68-.08,18.58l.23,508.45c.12,17.96-5.4,32.68-16.4,43.75-19.27,19.4-50.2,21.68-71.91,21.68ZM58.68,865.06s.91.5,3.38.67c11.65.78,24.11.58,36.17.38,5.46-.09,11.12-.18,16.68-.18h504.18c5.28,0,10.73-.07,15.99-.12,9.55-.1,19.39-.21,29.21.01,1.64.04,3.23-.55,4.41-1.69,2.02-1.97,4.15-5.87,5.58-13.87,2.33-13.11,1.28-29.98.36-44.86-.44-7.14-.86-13.89-.86-19.72V247.56c0-3.43-2.77-6.21-6.2-6.21l-72.55.03c-3.71,0-7.48.07-11.47.14-18.49.33-37.6.68-54.99-5.42-22.24-7.8-36.25-24.47-41.64-49.53-3.02-14.05-2.65-30.68-2.32-45.35.1-4.3.19-8.37.19-12.09l.02-65.22c0-3.43-2.78-6.21-6.21-6.21H111.46c-5.46,0-10.98-.06-16.32-.11-10.27-.09-20.87-.19-31.12.08-.19,0-.39.02-.58.04-.1.01-.19.02-.29.03-2.98.36-5.28,2.77-5.48,5.76-.03.41-.05.85-.06,1.33-.4,13.49-.29,27.44-.19,40.93.05,6.25.1,12.7.1,19.07v710.66c0,3.03-.12,6.14-.25,9.15-.22,5.36-.73,17.9,1.41,20.43,0,0,0,0,0,0ZM552.83,106.62c-3.91-3.91-10.59-1.14-10.6,4.39v21.9c0,10.92,0,44.2,5.07,49.16,2.73,2.68,19.51,2.35,32.99,2.09,6.47-.13,13.83-.28,21.96-.27l13.39.02c5.58,0,8.34-6.78,4.33-10.67-.04-.04-.07-.07-.11-.11-7.39-7.15-15.03-14.55-22.5-21.99l-44.54-44.54Z"/>
  </g>
  <g>
    <path class="cls-1" d="M462.34,501.57h-206.2c-10.29,0-18.66-8.37-18.66-18.66v-206.2c0-10.29,8.37-18.66,18.66-18.66h206.2c10.29,0,18.66,8.37,18.66,18.66v206.2c0,10.29-8.37,18.66-18.66,18.66h0ZM264.54,474.51h189.41v-189.41h-189.41v189.41Z"/>
    <path class="cls-1" d="M462.34,506.57h-206.2c-13.05,0-23.67-10.62-23.67-23.67v-206.2c0-13.05,10.62-23.67,23.67-23.67h206.2c13.05,0,23.67,10.62,23.67,23.67v206.2c0,13.05-10.61,23.66-23.66,23.67h0ZM256.14,263.04c-7.53,0-13.67,6.13-13.67,13.67v206.2c0,7.54,6.13,13.67,13.67,13.67h206.2c7.54,0,13.67-6.13,13.67-13.67v-206.2c0-7.54-6.13-13.67-13.67-13.67h-206.2ZM458.95,479.51h-199.41v-199.41h199.41v199.41ZM269.54,469.51h179.41v-179.41h-179.41v179.41Z"/>
  </g>
  <g>
    <path class="cls-1" d="M576.65,733.8h-16.24c-2.99,0-5.41-2.42-5.41-5.41v-108.84c0-41.51-33.65-75.16-75.16-75.16h-228.5c-41.51,0-75.16,33.65-75.16,75.16v108.84c0,2.99-2.42,5.41-5.41,5.41h-16.24c-2.99,0-5.41-2.42-5.41-5.41v-108.84c0-56.45,45.77-102.22,102.22-102.22h228.5c56.45,0,102.22,45.77,102.22,102.22v108.84c0,2.99-2.42,5.41-5.41,5.41h0Z"/>
    <path class="cls-1" d="M576.65,738.8h-16.24c-5.74,0-10.41-4.67-10.41-10.41v-108.84c0-38.69-31.47-70.16-70.16-70.16h-228.5c-38.69,0-70.16,31.47-70.16,70.16v108.84c0,5.74-4.67,10.41-10.41,10.41h-16.24c-5.74,0-10.41-4.67-10.41-10.41v-108.84c0-59.12,48.1-107.22,107.22-107.22h228.5c59.12,0,107.22,48.1,107.22,107.22v108.84c0,5.74-4.67,10.41-10.41,10.41h0ZM251.34,539.39h228.5c44.2,0,80.16,35.96,80.16,80.16v108.84c0,.23.18.41.41.41h16.23c.23,0,.41-.18.41-.41v-108.84c0-53.61-43.61-97.22-97.22-97.22h-228.5c-53.61,0-97.22,43.61-97.22,97.22v108.84c0,.23.18.41.41.41h16.24c.23,0,.41-.18.41-.41v-108.84c0-44.2,35.96-80.16,80.16-80.16Z"/>
  </g>
</svg>