<?xml version="1.0" encoding="UTF-8"?>
<svg id="Layer_1" data-name="Layer 1" xmlns="http://www.w3.org/2000/svg" viewBox="0 0 127.52 128.39">
  <path class="cls-1" d="M63.76,125.89c-8.27,0-16.3-1.63-23.86-4.85-7.3-3.11-13.85-7.56-19.47-13.23-5.62-5.66-10.04-12.26-13.12-19.61-3.19-7.61-4.81-15.68-4.81-24.01s1.62-16.4,4.81-24.01c3.08-7.35,7.5-13.94,13.12-19.61,5.62-5.67,12.18-10.12,19.47-13.23,7.56-3.22,15.58-4.85,23.86-4.85s16.3,1.63,23.86,4.85c7.3,3.11,13.85,7.56,19.47,13.23,5.62,5.66,10.04,12.26,13.12,19.61,3.19,7.61,4.81,15.68,4.81,24.01,0,7.37-1.28,14.57-3.8,21.42-2.13,5.79-5.1,11.2-8.84,16.1-.04.05-.04.11-.01.16l9.94,17.37c.51.89.72,1.95.43,2.93-.53,1.81-2.25,2.85-3.99,2.6l-30.01-4.22s-.05,0-.08.01c-7.85,3.53-16.22,5.31-24.89,5.31ZM63.76,9.74c-29.79,0-54.02,24.43-54.02,54.45s24.23,54.45,54.02,54.45c7.95,0,15.61-1.7,22.77-5.06.68-.32,1.43-.44,2.16-.34l23.44,3.3c.12.02.21-.11.15-.22l-7.42-12.97c-.78-1.37-.63-3.07.38-4.29,8.08-9.76,12.53-22.14,12.53-34.87,0-30.02-24.23-54.45-54.02-54.45Z"/>
  <path class="cls-1" d="M63.76,128.39c-8.61,0-16.97-1.7-24.84-5.05-7.59-3.24-14.41-7.87-20.27-13.76-5.85-5.89-10.44-12.76-13.65-20.4-3.32-7.91-5.01-16.31-5.01-24.97s1.68-17.06,5.01-24.97c3.21-7.64,7.8-14.51,13.65-20.4,5.85-5.9,12.67-10.53,20.27-13.76C46.79,1.7,55.15,0,63.76,0s16.97,1.7,24.84,5.05c7.59,3.24,14.41,7.87,20.27,13.76,5.85,5.89,10.44,12.76,13.65,20.4,3.32,7.91,5.01,16.32,5.01,24.97,0,7.66-1.33,15.16-3.95,22.29-2.02,5.5-4.78,10.68-8.21,15.42-.03.05-.04.11,0,.16l9.03,15.78c.94,1.65,1.26,3.64.62,5.43-.99,2.77-3.81,4.38-6.61,3.99l-29.31-4.12s-.05,0-.08.01c-7.98,3.48-16.48,5.24-25.25,5.24ZM63.76,5c-7.93,0-15.63,1.57-22.88,4.65-7,2.98-13.28,7.25-18.68,12.69-5.4,5.44-9.63,11.77-12.59,18.81-3.06,7.3-4.62,15.05-4.62,23.04s1.55,15.74,4.62,23.04c2.96,7.05,7.2,13.38,12.59,18.82,5.4,5.44,11.68,9.71,18.68,12.69,7.25,3.09,14.94,4.65,22.88,4.65,8.32,0,16.37-1.72,23.91-5.11l.66-.3,30.77,4.33c.42.06.85-.13,1.09-.48.24-.36.26-.81.04-1.19l-10.84-18.95c-.03-.05-.03-.12.01-.16l.95-1.24c3.61-4.72,6.49-9.95,8.54-15.53,2.42-6.57,3.64-13.49,3.64-20.56,0-7.99-1.55-15.74-4.62-23.04-2.96-7.05-7.2-13.38-12.59-18.81-5.4-5.44-11.68-9.7-18.68-12.69-7.25-3.09-14.94-4.65-22.88-4.65ZM63.76,121.14c-31.16,0-56.52-25.55-56.52-56.95S32.6,7.24,63.76,7.24s56.52,25.55,56.52,56.95c0,13.31-4.65,26.26-13.11,36.47-.34.41-.4.99-.13,1.45l9.95,17.39c.06.11-.03.24-.15.22l-28.54-4.01c-.22-.03-.44,0-.64.1-7.51,3.54-15.55,5.33-23.9,5.33ZM63.76,12.24c-28.41,0-51.52,23.3-51.52,51.95s23.11,51.95,51.52,51.95c7.61,0,14.93-1.63,21.77-4.86,1.08-.51,2.28-.69,3.46-.52l18.44,2.59c.12.02.21-.11.15-.22l-4.94-8.63c-1.26-2.21-1.02-5,.61-6.95,7.75-9.32,12.02-21.17,12.02-33.35,0-28.64-23.11-51.95-51.52-51.95Z"/>
</svg>