<?xml version="1.0" encoding="UTF-8"?>
<svg id="Layer_1" data-name="Layer 1" xmlns="http://www.w3.org/2000/svg" viewBox="0 0 538.6 600.16">
  <path class="cls-1" d="M443.28,73.98c-2.07,0-5.15-1.02-7.19-2.07-56.52-28.78-106.87-41.1-166.48-41.1s-116.13,14.38-166.48,42.14c-7.19,4.1-16.44,1.02-20.55-6.17-4.1-7.19-1.02-16.44,6.17-20.55C144.2,16.44,205.87,0,269.58,0s119.21,14.38,180.88,45.23c7.19,4.1,10.27,13.36,6.17,20.55-2.07,5.12-7.22,8.21-13.36,8.21h0ZM14.71,232.25c-3.08,0-6.17-1.02-8.21-3.09-7.19-5.15-8.21-14.38-4.1-20.55,29.78-42.14,67.81-75.03,112-97.62,94.56-48.31,214.79-49.33,309.32,0,45.23,22.61,82.22,55.5,112.02,97.64,5.15,6.17,3.08,16.44-4.1,20.55-7.19,5.15-16.44,3.08-20.55-4.1-26.72-38.01-60.63-67.81-101.75-88.39-86.32-44.18-196.28-44.18-281.59,0-41.1,20.55-75,51.37-101.75,88.36-2.04,4.1-6.14,7.19-11.29,7.19h0ZM201.77,594.02c-4.1,0-8.21-1.02-10.27-4.1-25.7-25.7-40.08-43.16-60.63-79.14-20.55-36.99-31.87-82.22-31.87-130.51,1.02-89.44,77.07-162.4,170.58-162.4s169.56,72.97,169.56,161.35c0,8.21-6.17,15.42-15.42,15.42-8.21,0-15.42-6.17-15.42-15.42,1.02-71.95-61.67-130.51-138.74-130.51s-139.76,58.59-139.76,131.55c0,43.16,9.25,83.24,27.74,115.11,19.53,34.95,31.87,49.33,55.5,72.97,6.17,6.17,6.17,15.42,0,21.59-3.06,2.01-7.16,4.08-11.27,4.08h0ZM417.58,538.52c-35.97,0-66.8-9.25-92.49-26.72-44.18-29.8-70.9-79.13-70.9-131.55,0-8.21,6.17-15.42,15.42-15.42s15.42,6.17,15.42,15.42c0,42.14,21.59,82.22,58.59,106.87,21.59,14.38,46.25,21.59,76.05,21.59,7.19,0,19.53-1.02,30.82-3.08,8.21-1.02,15.42,4.1,17.46,12.34,1.02,8.21-4.1,15.42-12.34,17.46-19.56,2.04-33.93,3.08-38.04,3.08h0ZM356.93,600.16c-1.02,0-3.08,0-4.1-1.02-47.27-13.36-79.13-30.82-112.02-62.69-42.14-42.14-64.76-97.64-64.76-156.2,0-48.31,41.1-88.39,92.49-88.39s92.49,39.06,92.49,88.39c0,31.87,27.74,58.59,62.69,58.59s62.69-25.7,62.69-58.59c0-113.04-97.64-204.52-216.86-204.52-85.3,0-163.39,47.27-198.35,121.28-11.29,24.65-17.46,52.42-17.46,84.26,0,23.63,2.07,60.63,20.55,107.92,3.09,8.21-1.02,16.44-8.21,19.53-8.21,3.08-16.44-1.02-19.53-8.21-14.38-39.06-21.59-78.12-21.59-118.19,0-35.97,7.19-68.86,20.55-96.6,40.08-83.24,128.47-137.72,225.06-137.72,136.68,0,247.68,104.83,247.68,234.32,0,48.31-41.1,88.39-92.49,88.39s-92.49-40.08-92.49-88.39c0-31.87-27.74-58.59-62.69-58.59s-62.69,25.7-62.69,58.59c0,51.4,19.53,99.68,56.52,135.66,28.78,27.74,55.5,44.18,97.64,55.5,8.21,2.07,12.34,10.27,10.27,18.51-3.06,3.06-9.23,8.18-15.4,8.18Z"/>
</svg>