<?xml version="1.0" encoding="UTF-8"?>
<svg id="Layer_1" data-name="Layer 1" xmlns="http://www.w3.org/2000/svg" viewBox="0 0 930.12 472.9">
  <rect class="cls-1" x="314.33" y="129.62" width="300" height="300" rx="112.81" ry="112.81"/>
  <path class="cls-1" d="M925.05,288.18c-1.89-2.94-47.21-72.8-125.63-143.25C693.85,50.12,578.23,0,465.06,0S236.27,50.12,130.71,144.93C52.28,215.38,6.96,285.24,5.07,288.18c-9.53,14.81-5.24,34.54,9.56,44.08,14.8,9.54,34.55,5.27,44.11-9.53,1.67-2.59,169.93-258.9,406.31-258.9s404.64,256.31,406.31,258.9c6.1,9.47,16.37,14.63,26.86,14.63,5.91,0,11.89-1.64,17.24-5.08,14.83-9.53,19.11-29.28,9.58-44.11Z"/>
  <path class="cls-1" d="M894.69,94.16c-6.85-16.54-25.83-24.4-42.36-17.55L46.23,410.51c-16.54,6.86-24.4,25.82-17.55,42.37,5.17,12.49,17.24,20.02,29.97,20.02,4.13,0,8.34-.8,12.39-2.48L877.14,136.53c16.54-6.86,24.4-25.82,17.55-42.37Z"/>
</svg>