<?xml version="1.0" encoding="UTF-8"?>
<svg id="Layer_1" data-name="Layer 1" xmlns="http://www.w3.org/2000/svg" viewBox="0 0 1736.38 1277.76">
  <path class="cls-1" d="M1698.88,1277.76H37.5c-20.71,0-37.5-16.79-37.5-37.5V37.5C0,16.79,16.79,0,37.5,0h1661.38c20.71,0,37.5,16.79,37.5,37.5v1202.76c0,20.71-16.79,37.5-37.5,37.5ZM75,1202.76h1586.38V75H75v1127.76Z"/>
  <path class="cls-1" d="M1678.57,1258.15c-9.68,0-19.36-3.73-26.7-11.16l-463.16-469.43-151.83,153.88c-7.05,7.14-16.66,11.16-26.69,11.16s-19.65-4.02-26.69-11.16l-289.43-293.34c-2.93-2.97-6.22-3.6-8.46-3.6s-5.53.62-8.46,3.6L80.6,1242.72c-14.55,14.74-38.29,14.9-53.03.36s-14.9-38.29-.36-53.03l596.55-604.62c16.49-16.72,38.46-25.92,61.85-25.92,23.39,0,45.36,9.21,61.85,25.92l262.74,266.29,131.83-133.62c12.42-12.59,29-19.52,46.69-19.52s34.27,6.93,46.69,19.52l469.86,476.21c14.55,14.74,14.39,38.49-.36,53.03-7.31,7.21-16.83,10.81-26.34,10.81Z"/>
  <path class="cls-1" d="M1276.5,580.39c-87.34,0-158.4-71.79-158.4-160.04s71.06-160.04,158.4-160.04,158.4,71.79,158.4,160.04-71.06,160.04-158.4,160.04ZM1276.5,335.31c-45.99,0-83.4,38.15-83.4,85.04s37.41,85.04,83.4,85.04,83.4-38.15,83.4-85.04-37.41-85.04-83.4-85.04Z"/>
</svg>