<?xml version="1.0" encoding="UTF-8"?>
<svg id="Layer_1" data-name="Layer 1" xmlns="http://www.w3.org/2000/svg" viewBox="0 0 696.51 621.23">
  <g>
    <path class="cls-1" d="M310.62,613.73c-80.97,0-157.09-31.53-214.33-88.78C39.03,467.7,7.5,391.58,7.5,310.62s31.53-157.08,88.78-214.33C153.53,39.03,229.65,7.5,310.62,7.5s157.08,31.53,214.34,88.78c57.25,57.25,88.78,133.37,88.78,214.33,0,7.77-6.3,14.08-14.08,14.08s-14.08-6.3-14.08-14.08c0-151.62-123.35-274.96-274.96-274.96S35.65,159,35.65,310.62s123.35,274.96,274.97,274.96c7.77,0,14.08,6.3,14.08,14.08s-6.3,14.08-14.08,14.08Z"/>
    <path class="cls-1" d="M310.62,621.23c-82.97,0-160.97-32.31-219.64-90.98C32.31,471.59,0,393.58,0,310.62S32.31,149.64,90.98,90.98C149.64,32.31,227.65,0,310.62,0s160.97,32.31,219.64,90.98c58.67,58.67,90.98,136.67,90.98,219.64,0,11.9-9.68,21.58-21.58,21.58s-21.58-9.68-21.58-21.58c0-147.48-119.98-267.46-267.46-267.46S43.15,163.13,43.15,310.62s119.98,267.46,267.46,267.46c11.9,0,21.58,9.68,21.58,21.58s-9.68,21.58-21.58,21.58ZM310.62,15c-78.96,0-153.2,30.75-209.03,86.58S15,231.65,15,310.62s30.75,153.2,86.58,209.03c55.83,55.83,130.07,86.58,209.03,86.58,3.63,0,6.58-2.95,6.58-6.58s-2.95-6.58-6.58-6.58c-155.75,0-282.46-126.71-282.46-282.46S154.86,28.15,310.62,28.15s282.46,126.71,282.46,282.46c0,3.63,2.95,6.58,6.58,6.58s6.58-2.95,6.58-6.58c0-78.96-30.75-153.2-86.58-209.03C463.81,45.75,389.58,15,310.62,15Z"/>
  </g>
  <g>
    <path class="cls-1" d="M604.51,358.29c-3.72.34-7.42-.81-10.29-3.21l-86.03-71.7c-5.97-4.98-6.78-13.85-1.8-19.82,4.98-5.97,13.85-6.78,19.82-1.8l75.22,62.69,62.68-75.23c4.98-5.97,13.85-6.78,19.82-1.8,5.97,4.98,6.78,13.85,1.8,19.82l-71.69,86.04c-2.39,2.87-5.82,4.67-9.54,5.01Z"/>
    <path class="cls-1" d="M603.2,365.85c-5.03,0-9.86-1.74-13.78-5l-86.03-71.7c-4.43-3.69-7.15-8.88-7.67-14.62-.52-5.74,1.22-11.34,4.92-15.77,3.69-4.43,8.88-7.15,14.62-7.67,5.74-.52,11.34,1.23,15.76,4.91l69.45,57.89,57.88-69.46c3.69-4.43,8.88-7.15,14.62-7.68,5.74-.52,11.34,1.22,15.77,4.91,4.43,3.69,7.15,8.88,7.67,14.62.52,5.74-1.22,11.34-4.91,15.77l-71.69,86.04c-3.69,4.43-8.88,7.15-14.62,7.68h0c-.67.06-1.33.09-1.99.09ZM517.22,265.99c-.2,0-.4,0-.61.03-1.75.16-3.33.99-4.46,2.34-1.12,1.35-1.66,3.06-1.5,4.81.16,1.75.99,3.33,2.34,4.46l86.03,71.71c1.35,1.12,3.06,1.65,4.81,1.5h0c1.75-.16,3.33-.99,4.46-2.34l71.69-86.04c1.12-1.35,1.66-3.06,1.5-4.81s-.99-3.33-2.34-4.46c-1.35-1.12-3.05-1.66-4.8-1.5-1.75.16-3.33.99-4.46,2.34l-67.48,80.99-80.98-67.49c-1.19-.99-2.66-1.52-4.2-1.52Z"/>
  </g>
</svg>