<?xml version="1.0" encoding="UTF-8"?>
<svg id="Layer_1" data-name="Layer 1" xmlns="http://www.w3.org/2000/svg" viewBox="0 0 209.57 207.82">
  <path class="cls-1" d="M209.41,7.39c.02-.1.04-.2.06-.31.01-.07.03-.15.04-.22.02-.14.03-.29.04-.43,0-.04,0-.07,0-.11,0-.19.01-.37,0-.56,0-.02,0-.04,0-.06,0-.16-.02-.32-.04-.47,0-.06-.02-.12-.03-.18-.02-.12-.04-.23-.06-.34-.02-.08-.04-.15-.06-.23-.03-.1-.05-.19-.08-.29-.03-.08-.05-.16-.08-.25-.03-.09-.07-.17-.1-.26-.03-.08-.07-.17-.11-.25-.04-.09-.09-.17-.13-.26-.04-.08-.08-.15-.12-.22-.09-.15-.18-.3-.29-.44-.03-.04-.06-.08-.09-.12-.08-.11-.17-.22-.26-.33-.04-.04-.08-.09-.12-.13-.09-.1-.18-.19-.28-.29-.02-.02-.04-.04-.06-.06-.03-.02-.05-.04-.08-.07-.09-.08-.19-.16-.29-.24-.06-.04-.11-.09-.17-.13-.09-.06-.18-.13-.28-.19-.07-.05-.14-.09-.21-.13-.01,0-.02-.01-.03-.02-.08-.04-.15-.08-.23-.12-.11-.06-.23-.12-.34-.17-.13-.06-.25-.11-.38-.16-.07-.03-.15-.05-.22-.07-.1-.03-.2-.07-.31-.09-.07-.02-.15-.03-.22-.05-.11-.02-.21-.05-.32-.06-.07-.01-.15-.02-.22-.03-.11-.01-.22-.03-.33-.03-.07,0-.14,0-.22-.01-.11,0-.22,0-.34,0-.05,0-.11,0-.16,0-.68-.03-1.37.06-2.05.27L4.2,62.58C1.78,63.34.11,65.54,0,68.07c-.1,2.53,1.39,4.85,3.74,5.81l100.46,40.88,31.83,89.08c.05.15.11.3.18.44.05.12.11.24.17.35.01.02.02.05.03.07.3.54.67,1.03,1.1,1.44,0,0,0,0,.01.01.1.09.2.18.3.27.02.01.03.03.05.04.09.07.18.14.28.21.03.02.06.05.09.07.08.06.17.11.25.16.04.03.09.06.13.08.07.04.15.08.23.12.06.03.12.06.17.09.07.04.14.07.22.1.07.03.13.06.2.09.08.03.16.06.23.09.06.02.13.05.19.07.1.03.21.06.31.09.04.01.08.02.12.03.45.11.91.16,1.38.16.02,0,.03,0,.05,0,.02,0,.04,0,.06,0,.04,0,.09,0,.13,0,.11,0,.21,0,.32-.02.07,0,.14-.02.21-.03.09-.01.18-.02.27-.04.33-.06.65-.14.96-.25,0,0,.01,0,.02,0,.02,0,.04-.02.07-.03.14-.05.29-.11.43-.18.06-.03.11-.05.17-.08.11-.05.22-.11.32-.17.06-.03.12-.07.17-.1.13-.08.25-.16.37-.25.07-.05.13-.1.19-.15.09-.07.18-.14.27-.22.06-.05.11-.1.17-.16.07-.07.15-.15.22-.22.05-.05.1-.11.15-.16.08-.09.16-.19.23-.28.03-.04.07-.08.1-.13.1-.14.2-.29.29-.44.01-.02.02-.04.03-.06.08-.13.15-.27.22-.41.02-.05.05-.1.07-.15.05-.11.1-.22.14-.34.02-.06.05-.13.07-.19.02-.04.03-.09.05-.13L209.29,7.82c.02-.05.03-.11.04-.16.03-.09.05-.18.07-.27Z"/>
</svg>