<?xml version="1.0" encoding="UTF-8"?>
<svg id="Layer_1" data-name="Layer 1" xmlns="http://www.w3.org/2000/svg" viewBox="0 0 854.53 983.49">
  <path class="cls-1" d="M427.26,980.99c-1.54,0-3.1-.13-4.63-.39-4.84-.84-119.92-21.87-229-135.5C14.54,658.52-7.47,369.31,5.6,159.55c.89-14.31,12.75-25.53,27.01-25.53.36,0,.72,0,1.08.02.65.01,2.6.05,5.82.05,17.96,0,82.28-1.29,155.76-17.84,91.44-20.59,163.02-56.25,212.76-105.99,4.94-4.94,11.95-7.77,19.24-7.77s14.3,2.83,19.24,7.77c49.74,49.74,121.43,85.41,213.09,106.02,73.44,16.52,137.31,17.8,155.14,17.8,3.49,0,5.58-.05,6.08-.06.47-.02.86-.03,1.24-.03,14.19,0,26,11.22,26.89,25.53,13.07,209.77-8.94,498.98-188.04,685.54-109.07,113.62-224.15,134.66-228.99,135.5-1.53.26-3.09.4-4.64.4ZM425.03,68.48c-75.68,63.94-173.58,92.98-242.38,106.07-50.09,9.54-93.41,12.67-120.93,13.61l-3.19.11-.14,3.19c-8.37,189.34,15.11,449.9,174.5,615.93,83.21,86.68,169.16,112.51,193.52,118.36l.81.2.81-.2c24.72-6.01,111.84-32.41,195.11-119.94,125.25-131.65,185.07-344.09,173-614.35l-.14-3.19-3.19-.11c-27.52-.95-70.84-4.07-120.93-13.61-68.8-13.1-166.69-42.13-242.38-106.07l-2.23-1.88-2.23,1.88Z"/>
  <path class="cls-1" d="M427.26,983.49c-1.69,0-3.39-.14-5.05-.43-4.88-.84-120.7-21.98-230.38-136.24C12.11,659.6-10,369.66,3.11,159.39c.99-16.02,14.6-28.52,30.68-27.85.59.01,2.53.05,5.72.05,17.9,0,81.98-1.28,155.21-17.78,90.97-20.49,162.15-55.92,211.54-105.32,5.4-5.41,13.06-8.51,21.01-8.51s15.6,3.1,21.01,8.51c49.4,49.4,120.68,84.84,211.87,105.35,73.19,16.46,136.83,17.74,154.59,17.74,3.39,0,5.46-.04,6.02-.06.47-.02.88-.03,1.3-.03,15.51,0,28.42,12.25,29.39,27.88,13.1,210.26-9,500.21-188.73,687.43-109.64,114.21-225.49,135.39-230.37,136.23-1.67.29-3.37.43-5.06.43ZM32.61,136.52c-12.94,0-23.71,10.18-24.51,23.18-13.04,209.27,8.88,497.75,187.34,683.66,108.56,113.09,222.81,133.94,227.62,134.77,2.76.47,5.64.47,8.42,0,4.81-.83,119.09-21.72,227.61-134.77,178.47-185.91,200.38-474.39,187.34-683.66-.81-13-11.52-23.19-24.4-23.19-.35,0-.7,0-1.13.03-.61.02-2.74.06-6.18.06-17.89,0-81.99-1.29-155.68-17.87-92.12-20.72-164.23-56.62-214.3-106.69-4.47-4.48-10.84-7.04-17.47-7.04s-13,2.57-17.47,7.04c-50.07,50.07-122.06,85.96-213.98,106.66-73.74,16.61-138.28,17.9-156.31,17.9-3.25,0-5.22-.04-5.87-.06-.37-.01-.7-.02-1.02-.02ZM427.23,928.53l-1.4-.34c-24.53-5.89-111.06-31.89-194.74-119.06C71.08,642.46,47.5,381.19,55.9,191.36l.24-5.5,5.5-.19c27.43-.94,70.61-4.06,120.54-13.57,68.5-13.04,165.96-41.94,241.23-105.53h0s3.84-3.25,3.84-3.25l3.84,3.25c75.27,63.59,172.73,92.49,241.23,105.53,49.93,9.51,93.12,12.63,120.55,13.57l5.5.19.25,5.5c12.11,270.96-47.95,484.04-173.68,616.19-83.74,88.03-171.45,114.6-196.33,120.65l-1.4.34ZM60.93,190.69l-.04.88c-8.35,188.85,15.03,448.69,173.81,614.09,82.74,86.19,168.11,111.85,192.3,117.66l.23.05.22-.05c24.55-5.97,111.08-32.2,193.89-119.23,124.77-131.14,184.35-342.95,172.31-612.52l-.04-.88-.88-.03c-27.61-.95-71.06-4.09-121.31-13.66-69.09-13.15-167.42-42.33-243.53-106.62l-.62-.52-.62.52c-76.1,64.29-174.43,93.47-243.52,106.62-50.25,9.57-93.7,12.71-121.31,13.66l-.88.03Z"/>
</svg>