<?xml version="1.0" encoding="UTF-8"?>
<svg id="Layer_1" data-name="Layer 1" xmlns="http://www.w3.org/2000/svg" viewBox="0 0 648.43 625.1">
  <g>
    <path class="cls-1" d="M596.82,615.1H23.03c-7.2,0-13.03-5.83-13.03-13.03V23.02c0-6.95,5.44-12.92,12.38-13.01s12.75,5.56,12.75,12.57v554.37c0,7.2,5.83,13.03,13.03,13.03h548.2c6.95,0,12.92,5.44,13.01,12.38.1,7.03-5.56,12.75-12.56,12.75Z"/>
    <path class="cls-1" d="M596.82,625.1H23.03c-12.7,0-23.03-10.33-23.03-23.03V23.02C0,10.5,9.98.18,22.24,0c6.1-.08,11.84,2.22,16.17,6.49,4.33,4.27,6.72,9.98,6.72,16.07v554.37c0,1.67,1.36,3.03,3.03,3.03h548.2c12.52,0,22.84,9.98,23.01,22.24.09,6.09-2.22,11.84-6.49,16.17-4.27,4.33-9.98,6.72-16.07,6.72ZM22.57,20s-.03,0-.04,0c-1.35.02-2.53,1.43-2.53,3.02v579.06c0,1.67,1.36,3.03,3.03,3.03h573.79c.89,0,1.49-.41,1.83-.76s.75-.95.74-1.85c-.02-1.35-1.43-2.53-3.02-2.53H48.17c-12.7,0-23.03-10.33-23.03-23.03V22.57c0-.89-.42-1.49-.76-1.83-.34-.34-.93-.74-1.81-.74Z"/>
  </g>
  <g>
    <path class="cls-1" d="M108.26,463.67c-3.17,0-6.36-1.2-8.79-3.59-4.96-4.86-5.06-12.81-.2-17.77l201.42-205.69c2.58-2.65,6.14-4.22,9.87-3.76,3.68.27,7.07,2.13,9.26,5.11l79.72,108.63c4.92,6.71,14.78,7.15,20.28.91l190.42-216.1c4.57-5.2,12.52-5.75,17.72-1.13,5.23,4.59,5.72,12.52,1.13,17.72l-211.43,239.98c-2.53,2.87-6.04,4.96-9.99,4.24-3.81-.14-7.32-2.04-9.57-5.11l-80.72-109.98c-4.76-6.48-14.19-7.15-19.82-1.41l-180.32,184.14c-2.45,2.53-5.72,3.78-8.99,3.78Z"/>
    <path class="cls-1" d="M108.26,473.67c-5.94,0-11.55-2.29-15.79-6.45-4.3-4.21-6.71-9.85-6.78-15.87-.07-6.03,2.22-11.73,6.44-16.04l201.41-205.68c4.87-5.01,11.43-7.45,18-6.71,6.52.55,12.46,3.87,16.33,9.14l79.73,108.64c.75,1.02,1.77,1.21,2.31,1.24.53.02,1.57-.08,2.41-1.02l190.42-216.1c3.98-4.53,9.5-7.24,15.53-7.62,6.02-.38,11.82,1.62,16.33,5.62,4.5,3.95,7.21,9.46,7.59,15.48.38,6.02-1.61,11.82-5.6,16.35l-211.43,239.98c-5.11,5.8-11.82,8.54-18.54,7.59-6.6-.45-12.62-3.75-16.58-9.14l-80.72-109.98c-.72-.98-1.71-1.19-2.23-1.23-.53-.04-1.53.03-2.38.9l-180.32,184.14c-4.24,4.36-9.98,6.78-16.13,6.78ZM309.26,242.79c-.31,0-.87.27-1.4.81l-201.44,205.71c-.61.63-.73,1.33-.73,1.81,0,.49.15,1.2.78,1.82.65.63,1.4.73,1.79.73.5,0,1.21-.13,1.81-.75l180.35-184.17c4.74-4.84,11.33-7.34,18.09-6.86,6.76.48,12.93,3.89,16.94,9.35l80.72,109.97c.46.62,1.15,1,1.89,1.03l1.03.09c.22-.13.61-.42,1.07-.95l211.43-239.98c.59-.66.67-1.37.64-1.85-.03-.48-.21-1.17-.87-1.75-.67-.6-1.37-.68-1.84-.65-.4.02-1.15.17-1.76.86l-190.43,216.12c-4.63,5.26-11.3,8.09-18.31,7.78-7-.31-13.39-3.73-17.54-9.38l-79.72-108.63c-.45-.61-1.15-.99-1.92-1.05l-.52-.05s-.04,0-.06,0Z"/>
  </g>
  <g>
    <path class="cls-1" d="M625.83,250.05c-6.58,0-12.1-5.11-12.52-11.78l-4.58-72.22c-.46-7.18-6.65-12.64-13.83-12.18l-72.25,4.57c-7.17.49-12.89-4.83-13.33-11.76-.44-6.92,4.81-12.89,11.76-13.33l97.8-6.19c7.54-.44,12.91,4.84,13.33,11.76l6.19,97.77c.44,6.92-4.81,12.89-11.76,13.33-.27.03-.54.03-.81.03Z"/>
    <path class="cls-1" d="M625.83,260.05c-11.87,0-21.76-9.29-22.5-21.16l-4.58-72.22c-.11-1.67-1.55-2.94-3.22-2.83l-72.25,4.57c-6,.41-11.81-1.52-16.3-5.46-4.54-3.98-7.25-9.53-7.64-15.65-.38-6.01,1.6-11.82,5.59-16.34,3.98-4.52,9.49-7.22,15.51-7.6l97.8-6.19c12.9-.76,23.17,8.33,23.94,21.14l6.19,97.74c.38,6.01-1.6,11.82-5.59,16.34-3.95,4.48-9.41,7.18-15.38,7.59-.67.06-1.21.06-1.58.06ZM595.75,143.84c12.04,0,22.2,9.39,22.97,21.58l4.58,72.22c.08,1.36,1.2,2.42,2.54,2.42h.18c.89-.06,1.46-.51,1.78-.87.32-.36.69-.97.63-1.84l-6.19-97.78c-.15-2.56-2.12-2.45-2.76-2.41l-97.75,6.18c-.89.06-1.46.5-1.78.87-.32.36-.69.97-.63,1.84.05.77.35,1.43.86,1.87.47.41,1.08.59,1.8.55l72.31-4.58c.49-.03.98-.05,1.47-.05Z"/>
  </g>
</svg>