<?xml version="1.0" encoding="UTF-8"?>
<svg id="Layer_1" data-name="Layer 1" xmlns="http://www.w3.org/2000/svg" viewBox="0 0 1085.66 1250.95">
  <path class="cls-1" d="M839.22,1250.95H246.44c-29.79,0-58.31-11.08-80.29-31.18-21.96-20.09-35.52-47.47-38.19-77.11L52.55,342.45c-1.68-17.87,11.44-33.72,29.31-35.41,17.87-1.69,33.72,11.44,35.41,29.31l75.41,800.27c0,.05.01.11.02.16,2.5,28.03,25.61,49.17,53.75,49.17h592.77c28.14,0,51.25-21.14,53.75-49.17v-.16s75.43-800.27,75.43-800.27c1.68-17.87,17.54-30.99,35.41-29.31,17.87,1.68,30.99,17.54,29.31,35.41l-75.4,800.19c-2.67,29.65-16.23,57.03-38.19,77.12-21.98,20.11-50.5,31.18-80.29,31.18Z"/>
  <path class="cls-1" d="M1053.16,371.9H32.5c-17.95,0-32.5-14.55-32.5-32.5v-62.29c0-71.32,58.03-129.35,129.35-129.35h826.96c71.32,0,129.35,58.03,129.35,129.35v62.29c0,17.95-14.55,32.5-32.5,32.5ZM65,306.9h955.66v-29.79c0-35.48-28.87-64.35-64.35-64.35H129.35c-35.48,0-64.35,28.87-64.35,64.35v29.79Z"/>
  <path class="cls-1" d="M733.11,212.76c-17.95,0-32.5-14.55-32.5-32.5v-71.24c0-24.27-19.75-44.02-44.02-44.02h-227.54c-24.27,0-44.02,19.75-44.02,44.02v71.24c0,17.95-14.55,32.5-32.5,32.5s-32.5-14.55-32.5-32.5v-71.24c0-60.11,48.91-109.02,109.02-109.02h227.54c60.11,0,109.02,48.91,109.02,109.02v71.24c0,17.95-14.55,32.5-32.5,32.5Z"/>
  <path class="cls-1" d="M338.1,1096.49c-17.28,0-31.66-13.61-32.44-31.04l-25.66-570.13c-.81-17.93,13.08-33.12,31.01-33.93,17.94-.8,33.12,13.08,33.93,31.01l25.66,570.13c.81,17.93-13.08,33.12-31.01,33.93-.5.02-.99.03-1.49.03Z"/>
  <path class="cls-1" d="M747.55,1096.49c-.49,0-.99-.01-1.49-.03-17.93-.81-31.81-16-31.01-33.93l25.66-570.13c.81-17.93,16.01-31.8,33.93-31.01,17.93.81,31.81,16,31.01,33.93l-25.66,570.13c-.78,17.43-15.17,31.04-32.44,31.04Z"/>
  <path class="cls-1" d="M542.83,1096.49c-17.95,0-32.5-14.55-32.5-32.5V493.86c0-17.95,14.55-32.5,32.5-32.5s32.5,14.55,32.5,32.5v570.13c0,17.95-14.55,32.5-32.5,32.5Z"/>
</svg>