<?xml version="1.0" encoding="UTF-8"?>
<svg id="Layer_1" xmlns="http://www.w3.org/2000/svg" version="1.1" viewBox="0 0 959.5 959.5">
  <polygon class="st0" points="959.5 479.7 901.9 510 954.7 548 893.4 569.8 940.2 614.9 876.4 627.7 916.2 679.1 851.3 682.6 883.4 739.2 818.6 733.4 842.3 793.9 779 779 793.9 842.3 733.3 818.6 739.2 883.4 682.6 851.3 679.1 916.2 627.7 876.4 614.9 940.2 569.8 893.4 548 954.7 510 901.9 479.7 959.5 449.5 901.9 411.5 954.7 389.7 893.4 344.6 940.2 331.8 876.4 280.4 916.2 276.9 851.3 220.3 883.4 226.1 818.6 165.6 842.3 180.5 779 117.2 793.9 140.9 733.3 76.1 739.2 108.2 682.6 43.3 679.1 83.1 627.7 19.3 614.9 66.1 569.8 4.8 548 57.6 510 0 479.7 57.6 449.5 4.8 411.5 66.1 389.7 19.3 344.6 83.1 331.8 43.3 280.4 108.2 276.9 76.1 220.3 140.9 226.1 117.2 165.6 180.5 180.5 165.6 117.2 226.1 140.9 220.3 76.1 276.9 108.2 280.4 43.3 331.8 83.1 344.6 19.3 389.7 66.1 411.5 4.8 449.5 57.6 479.7 0 510 57.6 548 4.8 569.8 66.1 614.9 19.3 627.7 83.1 679.1 43.3 682.6 108.2 739.2 76.1 733.4 140.9 793.9 117.2 779 180.5 842.3 165.6 818.6 226.1 883.4 220.3 851.3 276.9 916.2 280.4 876.4 331.8 940.2 344.6 893.4 389.7 954.7 411.5 901.9 449.5 959.5 479.7"/>
</svg>