<?xml version="1.0" encoding="UTF-8"?>
<svg id="Layer_1" xmlns="http://www.w3.org/2000/svg" version="1.1" viewBox="0 0 737.75 651.58">
  <g>
    <path class="st0" d="M370.97,163.69c-5.22,0-9.45-4.23-9.45-9.45v-61.7c0-5.22,4.23-9.45,9.45-9.45s9.45,4.23,9.45,9.45v61.7c0,5.22-4.23,9.45-9.45,9.45Z"/>
    <path class="st0" d="M370.97,164.1c-5.43,0-9.86-4.42-9.86-9.86v-61.7c0-5.43,4.42-9.86,9.86-9.86s9.86,4.42,9.86,9.86v61.7c0,5.43-4.42,9.86-9.86,9.86ZM370.97,83.52c-4.98,0-9.04,4.05-9.04,9.04v61.7c0,4.98,4.05,9.04,9.04,9.04s9.04-4.05,9.04-9.04v-61.7c0-4.98-4.05-9.04-9.04-9.04Z"/>
  </g>
  <path class="st0" d="M401.57,132.84h-61.2c-5.22,0-9.45-4.23-9.45-9.45s4.23-9.45,9.45-9.45h61.2c5.22,0,9.45,4.23,9.45,9.45s-4.23,9.45-9.45,9.45Z"/>
  <g>
    <path class="st0" d="M444.41,570.66h-74.16c-5.22,0-9.45-4.23-9.45-9.45v-117.35c0-5.22,4.23-9.45,9.45-9.45h74.16c5.22,0,9.45,4.23,9.45,9.45v117.35c0,5.22-4.23,9.45-9.45,9.45ZM379.69,551.78h55.28v-98.47h-55.28v98.47Z"/>
    <path class="st0" d="M444.41,571.07h-74.16c-5.43,0-9.86-4.42-9.86-9.86v-117.35c0-5.43,4.42-9.86,9.86-9.86h74.16c5.43,0,9.86,4.42,9.86,9.86v117.35c0,5.43-4.42,9.86-9.86,9.86ZM370.25,434.83c-4.98,0-9.04,4.05-9.04,9.04v117.35c0,4.98,4.05,9.04,9.04,9.04h74.16c4.98,0,9.04-4.05,9.04-9.04v-117.35c0-4.98-4.05-9.04-9.04-9.04h-74.16ZM435.38,552.19h-56.1v-99.29h56.1v99.29ZM380.1,551.37h54.45v-97.65h-54.45v97.65Z"/>
  </g>
  <g>
    <path class="st0" d="M370.25,570.66h-74.16c-5.22,0-9.45-4.23-9.45-9.45v-117.35c0-5.22,4.23-9.45,9.45-9.45h74.16c5.22,0,9.45,4.23,9.45,9.45v117.35c0,5.22-4.23,9.45-9.45,9.45ZM305.53,551.78h55.28v-98.47h-55.28v98.47Z"/>
    <path class="st0" d="M370.25,571.07h-74.16c-5.43,0-9.86-4.42-9.86-9.86v-117.35c0-5.43,4.42-9.86,9.86-9.86h74.16c5.43,0,9.86,4.42,9.86,9.86v117.35c0,5.43-4.42,9.86-9.86,9.86ZM296.09,434.83c-4.98,0-9.04,4.05-9.04,9.04v117.35c0,4.98,4.05,9.04,9.04,9.04h74.16c4.98,0,9.04-4.05,9.04-9.04v-117.35c0-4.98-4.05-9.04-9.04-9.04h-74.16ZM361.22,552.19h-56.1v-99.29h56.1v99.29ZM305.94,551.37h54.45v-97.65h-54.45v97.65Z"/>
  </g>
  <path class="st0" d="M508.49,573.72h-64.08c-6.9,0-12.5-5.6-12.5-12.5v-104.86h-123.32v104.86c0,6.9-5.6,12.5-12.5,12.5h-64.08c-6.9,0-12.5-5.6-12.5-12.5V143.13c0-6.9,5.6-12.5,12.5-12.5h54.42c-.45-3.57-.67-7.18-.67-10.81,0-4.62.38-9.33,1.14-14.01,3.24-19.85,13.4-38.01,28.62-51.16,15.42-13.31,35.11-20.64,55.45-20.64s40.04,7.33,55.45,20.64c15.22,13.14,25.39,31.3,28.62,51.14.76,4.69,1.14,9.41,1.14,14.03,0,3.63-.22,7.24-.67,10.81h52.98c6.9,0,12.5,5.6,12.5,12.5v418.09c0,6.9-5.6,12.5-12.5,12.5ZM456.91,548.72h39.08V155.63h-56.07c-4.02,0-7.8-1.93-10.15-5.2-2.35-3.26-2.99-7.46-1.71-11.27,2.07-6.2,3.12-12.71,3.12-19.35,0-3.29-.28-6.67-.82-10.02-4.8-29.42-29.78-50.78-59.4-50.78s-54.6,21.36-59.4,50.8c-.54,3.34-.81,6.72-.81,10.01,0,6.64,1.05,13.15,3.12,19.35,1.28,3.81.64,8.01-1.71,11.27-2.35,3.26-6.12,5.2-10.14,5.2h-57.51v393.09h39.08v-104.86c0-6.9,5.6-12.5,12.5-12.5h148.32c6.9,0,12.5,5.6,12.5,12.5v104.86ZM463.85,405.55h-69.84c-6.9,0-12.5-5.6-12.5-12.5v-70.41c0-6.9,5.6-12.5,12.5-12.5h69.84c6.9,0,12.5,5.6,12.5,12.5v70.41c0,6.9-5.6,12.5-12.5,12.5ZM406.51,380.55h44.84v-45.41h-44.84v45.41ZM347.93,405.55h-69.84c-6.9,0-12.5-5.6-12.5-12.5v-70.41c0-6.9,5.6-12.5,12.5-12.5h69.84c6.9,0,12.5,5.6,12.5,12.5v70.41c0,6.9-5.6,12.5-12.5,12.5ZM290.59,380.55h44.84v-45.41h-44.84v45.41ZM463.85,287.96h-69.84c-6.9,0-12.5-5.6-12.5-12.5v-70.41c0-6.9,5.6-12.5,12.5-12.5h69.84c6.9,0,12.5,5.6,12.5,12.5v70.41c0,6.9-5.6,12.5-12.5,12.5ZM406.51,262.96h44.84v-45.41h-44.84v45.41ZM347.93,287.96h-69.84c-6.9,0-12.5-5.6-12.5-12.5v-70.41c0-6.9,5.6-12.5,12.5-12.5h69.84c6.9,0,12.5,5.6,12.5,12.5v70.41c0,6.9-5.6,12.5-12.5,12.5ZM290.59,262.96h44.84v-45.41h-44.84v45.41Z"/>
  <path class="st0" d="M347.93,284.91h-69.84c-5.22,0-9.45-4.23-9.45-9.45v-70.41c0-5.22,4.23-9.45,9.45-9.45h69.84c5.22,0,9.45,4.23,9.45,9.45v70.41c0,5.22-4.23,9.45-9.45,9.45ZM287.53,266.02h50.96v-51.52h-50.96v51.52Z"/>
  <path class="st0" d="M463.85,284.91h-69.84c-5.22,0-9.45-4.23-9.45-9.45v-70.41c0-5.22,4.23-9.45,9.45-9.45h69.84c5.22,0,9.45,4.23,9.45,9.45v70.41c0,5.22-4.23,9.45-9.45,9.45ZM403.45,266.02h50.96v-51.52h-50.96v51.52Z"/>
  <path class="st0" d="M347.93,402.49h-69.84c-5.22,0-9.45-4.23-9.45-9.45v-70.41c0-5.22,4.23-9.45,9.45-9.45h69.84c5.22,0,9.45,4.23,9.45,9.45v70.41c0,5.22-4.23,9.45-9.45,9.45ZM287.53,383.61h50.96v-51.52h-50.96v51.52Z"/>
  <g>
    <path class="st0" d="M463.85,402.49h-69.84c-5.22,0-9.45-4.23-9.45-9.45v-70.41c0-5.22,4.23-9.45,9.45-9.45h69.84c5.22,0,9.45,4.23,9.45,9.45v70.41c0,5.22-4.23,9.45-9.45,9.45ZM403.45,383.61h50.96v-51.52h-50.96v51.52Z"/>
    <path class="st0" d="M463.85,402.9h-69.84c-5.43,0-9.86-4.42-9.86-9.86v-70.41c0-5.43,4.42-9.86,9.86-9.86h69.84c5.43,0,9.86,4.42,9.86,9.86v70.41c0,5.43-4.42,9.86-9.86,9.86ZM394.01,313.61c-4.98,0-9.04,4.05-9.04,9.04v70.41c0,4.98,4.05,9.04,9.04,9.04h69.84c4.98,0,9.04-4.05,9.04-9.04v-70.41c0-4.98-4.05-9.04-9.04-9.04h-69.84ZM454.82,384.02h-51.78v-52.34h51.78v52.34ZM403.86,383.2h50.13v-50.7h-50.13v50.7Z"/>
  </g>
  <path class="st0" d="M232.01,558.71H77.5c-6.9,0-12.5-5.6-12.5-12.5V240.62c0-6.9,5.6-12.5,12.5-12.5h154.51c6.9,0,12.5,5.6,12.5,12.5v305.59c0,6.9-5.6,12.5-12.5,12.5ZM90,533.71h129.51V253.12H90v280.59ZM190.25,509.23h-69.84c-6.9,0-12.5-5.6-12.5-12.5v-70.41c0-6.9,5.6-12.5,12.5-12.5h69.84c6.9,0,12.5,5.6,12.5,12.5v70.41c0,6.9-5.6,12.5-12.5,12.5ZM132.91,484.23h44.84v-45.41h-44.84v45.41ZM190.25,377.25h-69.84c-6.9,0-12.5-5.6-12.5-12.5v-70.41c0-6.9,5.6-12.5,12.5-12.5h69.84c6.9,0,12.5,5.6,12.5,12.5v70.41c0,6.9-5.6,12.5-12.5,12.5ZM132.91,352.25h44.84v-45.41h-44.84v45.41Z"/>
  <g>
    <path class="st0" d="M190.25,374.18h-69.84c-5.22,0-9.45-4.23-9.45-9.45v-70.41c0-5.22,4.23-9.45,9.45-9.45h69.84c5.22,0,9.45,4.23,9.45,9.45v70.41c0,5.22-4.23,9.45-9.45,9.45ZM129.85,355.3h50.96v-51.52h-50.96s0,51.52,0,51.52Z"/>
    <path class="st0" d="M190.25,374.6h-69.84c-5.43,0-9.86-4.42-9.86-9.86v-70.41c0-5.43,4.42-9.86,9.86-9.86h69.84c5.43,0,9.86,4.42,9.86,9.86v70.41c0,5.43-4.42,9.86-9.86,9.86ZM120.41,285.3c-4.98,0-9.04,4.05-9.04,9.04v70.41c0,4.98,4.05,9.04,9.04,9.04h69.84c4.98,0,9.04-4.05,9.04-9.04v-70.41c0-4.98-4.05-9.04-9.04-9.04h-69.84ZM181.22,355.71h-51.78v-52.34h51.78v52.34ZM130.26,354.89h50.13v-50.7h-50.13s0,50.7,0,50.7Z"/>
  </g>
  <g>
    <path class="st0" d="M190.25,506.18h-69.84c-5.22,0-9.45-4.23-9.45-9.45v-70.41c0-5.22,4.23-9.45,9.45-9.45h69.84c5.22,0,9.45,4.23,9.45,9.45v70.41c0,5.22-4.23,9.45-9.45,9.45ZM129.85,487.29h50.96v-51.52h-50.96s0,51.52,0,51.52Z"/>
    <path class="st0" d="M190.25,506.59h-69.84c-5.43,0-9.86-4.42-9.86-9.86v-70.41c0-5.43,4.42-9.86,9.86-9.86h69.84c5.43,0,9.86,4.42,9.86,9.86v70.41c0,5.43-4.42,9.86-9.86,9.86ZM120.41,417.3c-4.98,0-9.04,4.05-9.04,9.04v70.41c0,4.98,4.05,9.04,9.04,9.04h69.84c4.98,0,9.04-4.05,9.04-9.04v-70.41c0-4.98-4.05-9.04-9.04-9.04h-69.84ZM181.22,487.7h-51.78v-52.34h51.78v52.34ZM130.26,486.88h50.13v-50.7h-50.13s0,50.7,0,50.7Z"/>
  </g>
  <path class="st0" d="M663,558.71h-154.51c-6.9,0-12.5-5.6-12.5-12.5V240.62c0-6.9,5.6-12.5,12.5-12.5h154.51c6.9,0,12.5,5.6,12.5,12.5v305.59c0,6.9-5.6,12.5-12.5,12.5ZM520.99,533.71h129.51V253.12h-129.51v280.59ZM621.24,509.23h-69.84c-6.9,0-12.5-5.6-12.5-12.5v-70.41c0-6.9,5.6-12.5,12.5-12.5h69.84c6.9,0,12.5,5.6,12.5,12.5v70.41c0,6.9-5.6,12.5-12.5,12.5ZM563.9,484.23h44.84v-45.41h-44.84v45.41ZM621.24,377.25h-69.84c-6.9,0-12.5-5.6-12.5-12.5v-70.41c0-6.9,5.6-12.5,12.5-12.5h69.84c6.9,0,12.5,5.6,12.5,12.5v70.41c0,6.9-5.6,12.5-12.5,12.5ZM563.9,352.25h44.84v-45.41h-44.84v45.41Z"/>
  <g>
    <path class="st0" d="M621.24,374.18h-69.84c-5.22,0-9.45-4.23-9.45-9.45v-70.41c0-5.22,4.23-9.45,9.45-9.45h69.84c5.22,0,9.45,4.23,9.45,9.45v70.41c0,5.22-4.23,9.45-9.45,9.45ZM560.84,355.3h50.96v-51.52h-50.96v51.52Z"/>
    <path class="st0" d="M621.24,374.6h-69.84c-5.43,0-9.86-4.42-9.86-9.86v-70.41c0-5.43,4.42-9.86,9.86-9.86h69.84c5.43,0,9.86,4.42,9.86,9.86v70.41c0,5.43-4.42,9.86-9.86,9.86ZM551.4,285.3c-4.98,0-9.04,4.05-9.04,9.04v70.41c0,4.98,4.05,9.04,9.04,9.04h69.84c4.98,0,9.04-4.05,9.04-9.04v-70.41c0-4.98-4.05-9.04-9.04-9.04h-69.84ZM612.21,355.71h-51.78v-52.34h51.78v52.34h0ZM561.25,354.89h50.13v-50.7h-50.13v50.7Z"/>
  </g>
  <g>
    <path class="st0" d="M621.24,506.18h-69.84c-5.22,0-9.45-4.23-9.45-9.45v-70.41c0-5.22,4.23-9.45,9.45-9.45h69.84c5.22,0,9.45,4.23,9.45,9.45v70.41c0,5.22-4.23,9.45-9.45,9.45ZM560.84,487.29h50.96v-51.52h-50.96v51.52Z"/>
    <path class="st0" d="M621.24,506.59h-69.84c-5.43,0-9.86-4.42-9.86-9.86v-70.41c0-5.43,4.42-9.86,9.86-9.86h69.84c5.43,0,9.86,4.42,9.86,9.86v70.41c0,5.43-4.42,9.86-9.86,9.86ZM551.4,417.3c-4.98,0-9.04,4.05-9.04,9.04v70.41c0,4.98,4.05,9.04,9.04,9.04h69.84c4.98,0,9.04-4.05,9.04-9.04v-70.41c0-4.98-4.05-9.04-9.04-9.04h-69.84ZM612.21,487.7h-51.78v-52.34h51.78v52.34h0ZM561.25,486.88h50.13v-50.7h-50.13v50.7Z"/>
  </g>
</svg>