<?xml version="1.0" encoding="UTF-8"?>
<svg id="Layer_1" data-name="Layer 1" xmlns="http://www.w3.org/2000/svg" viewBox="0 0 206.23 206.21">
  <path class="cls-1" d="M105.19,206.21C47.19,206.21,0,159.03,0,101.04c0-23.02,7.3-44.88,21.12-63.22C34.48,20.09,53.48,6.79,74.62.38c3.09-.94,6.44-.1,8.72,2.18,2.28,2.28,3.12,5.63,2.19,8.72-2.49,8.25-3.76,16.82-3.76,25.48,0,48.34,39.33,87.67,87.67,87.67,8.73,0,17.3-1.26,25.48-3.75,3.09-.94,6.45-.1,8.73,2.18,2.29,2.28,3.13,5.64,2.19,8.73-6.41,21.14-19.71,40.14-37.44,53.5-18.34,13.82-40.2,21.12-63.22,21.12ZM65.18,22.96c-29.04,14.76-47.68,44.49-47.68,78.08,0,48.34,39.34,87.67,87.69,87.67,33.59,0,63.32-18.63,78.08-47.67-4.56.6-9.17.9-13.83.9-57.99,0-105.17-47.18-105.17-105.17,0-4.63.3-9.24.9-13.81Z"/>
</svg>