<?xml version="1.0" encoding="UTF-8"?>
<svg id="Layer_1" xmlns="http://www.w3.org/2000/svg" version="1.1" viewBox="0 0 538 464.62">
  <g>
    <path class="st0" d="M100.79,295.89c2.45.07,5.12.04,7.52.52,14.16,2.8,18.3,28.78,23.37,40.44,3.36,7.73,7.88,15.12,12.65,22.05,1.42,2.07,2.89,4.1,4.41,6.1s3.09,3.95,4.71,5.87c1.62,1.92,3.28,3.8,4.99,5.63,1.71,1.84,3.46,3.63,5.26,5.38,1.8,1.75,3.64,3.46,5.52,5.12s3.8,3.27,5.76,4.84c1.96,1.57,3.96,3.08,5.99,4.55s4.1,2.88,6.21,4.25c2.11,1.36,4.24,2.68,6.41,3.94s4.37,2.47,6.6,3.62c2.23,1.15,4.49,2.25,6.77,3.29s4.59,2.02,6.92,2.95c2.33.93,4.68,1.8,7.06,2.61,2.37.81,4.77,1.56,7.18,2.26,2.41.69,4.84,1.33,7.28,1.9s4.9,1.09,7.36,1.54c65.82,11.75,131.05-22.69,162.04-81.06,6.14-11.55,9.67-36.49,20.8-43.42,3.85-2.4,8.77-2.91,13.09-1.56,4.57,1.42,8.67,4.71,10.66,9.12,4.36,9.66-2.17,23.44-5.47,32.74-15.06,37.74-40.34,69.1-74.57,91.11-1.28.84-2.57,1.66-3.87,2.46s-2.61,1.59-3.93,2.36-2.65,1.53-3.99,2.27-2.69,1.46-4.05,2.17c-1.36.7-2.72,1.39-4.1,2.06-1.37.67-2.76,1.32-4.15,1.96-1.39.64-2.79,1.26-4.19,1.86-1.41.6-2.82,1.19-4.24,1.75-1.42.57-2.85,1.11-4.28,1.65-1.43.53-2.87,1.04-4.32,1.54-1.45.49-2.9.97-4.36,1.43s-2.92.9-4.39,1.32-2.94.82-4.42,1.21c-1.48.39-2.96.75-4.45,1.1-1.49.35-2.98.68-4.48.99s-3,.6-4.5.87c-1.51.27-3.01.53-4.52.76-1.51.24-3.03.45-4.54.65-1.52.2-3.03.38-4.56.53-1.52.16-3.04.3-4.57.42-1.52.12-3.05.22-4.58.31-1.53.08-3.06.15-4.58.19-1.53.04-3.06.07-4.59.08-1.53,0-3.06,0-4.59-.03s-3.06-.08-4.58-.15c-1.53-.07-3.05-.16-4.58-.26-1.52-.11-3.05-.23-4.57-.38s-3.04-.31-4.56-.49-3.03-.39-4.55-.61c-1.51-.22-3.02-.46-4.53-.72s-3.01-.54-4.51-.83c-1.5-.3-3-.61-4.49-.94-48.75-10.62-90.18-41.17-117-82.93-9.22-14.36-27.18-46.51-22.76-63.45,1.75-6.69,6.4-9.5,11.86-12.93h0Z"/>
    <path class="st0" d="M269.45,464.62c-1.51,0-3,0-4.49-.03-1.57-.03-3.15-.08-4.71-.15-1.56-.07-3.11-.16-4.68-.27-1.6-.11-3.17-.24-4.73-.39-1.55-.15-3.1-.32-4.66-.5-1.56-.18-3.11-.4-4.67-.63-1.56-.23-3.11-.47-4.67-.74-1.54-.26-3.07-.55-4.61-.85-1.57-.31-3.1-.63-4.62-.97-49.08-10.69-91.74-40.92-120.13-85.11-6.84-10.65-28.72-46.97-23.39-67.42,1.95-7.47,6.72-11.21,11.7-14.42v-2.39l6.37.17c2.21.05,4.71.1,7.13.59,13.63,2.7,19.11,19.74,23.5,33.44,1.21,3.77,2.35,7.33,3.47,9.91,2.82,6.5,6.69,13.23,12.18,21.21,1.35,1.97,2.79,3.95,4.27,5.91,1.43,1.88,2.92,3.74,4.55,5.67,1.62,1.91,3.24,3.75,4.82,5.44,1.65,1.78,3.36,3.53,5.09,5.21,1.77,1.72,3.57,3.39,5.34,4.96,1.76,1.56,3.64,3.13,5.58,4.69,1.79,1.44,3.69,2.88,5.8,4.4,1.88,1.36,3.84,2.71,6,4.11,2.22,1.43,4.25,2.68,6.2,3.81,2.14,1.24,4.28,2.42,6.38,3.5,2.19,1.13,4.39,2.2,6.55,3.18,2.11.96,4.36,1.92,6.7,2.86,2.26.9,4.56,1.75,6.82,2.52,2.19.75,4.53,1.49,6.96,2.19,2.4.69,4.77,1.31,7.02,1.83,2.45.57,4.84,1.07,7.12,1.49,61.87,11.04,126.32-21.23,156.72-78.49,1.89-3.56,3.62-8.85,5.44-14.45,3.87-11.88,8.25-25.34,17.13-30.87,5-3.12,11.44-3.9,17.22-2.09,6.1,1.9,11.24,6.32,13.73,11.84,4.6,10.18-.06,22.49-3.8,32.38-.54,1.44-1.06,2.81-1.52,4.09l-.07.18c-15.54,38.95-42,71.27-76.51,93.46-1.28.84-2.62,1.69-3.95,2.51-1.33.82-2.68,1.63-4.03,2.42-1.35.79-2.72,1.57-4.09,2.33-1.37.76-2.75,1.49-4.15,2.22-1.42.73-2.82,1.44-4.23,2.13-1.39.68-2.82,1.35-4.24,2-1.43.66-2.87,1.29-4.31,1.91-1.47.62-2.92,1.23-4.38,1.81-1.43.57-2.89,1.12-4.35,1.68-1.49.55-2.97,1.08-4.45,1.59-1.51.51-3,1-4.49,1.47-1.5.47-3,.93-4.52,1.36-1.5.43-3.01.84-4.52,1.24-1.52.4-3.04.77-4.58,1.13-1.54.36-3.07.7-4.62,1.02-1.54.32-3.08.62-4.63.89-1.56.28-3.1.55-4.65.78-1.52.24-3.08.46-4.63.66-1.71.23-3.26.41-4.73.55-1.53.16-3.09.31-4.67.43-1.55.12-3.12.22-4.68.32-1.61.08-3.18.16-4.74.2-1.56.04-3.13.07-4.69.08h-.23ZM102.2,300.92c-4.75,3.02-7.34,5-8.43,9.17-3.21,12.29,8.8,38.73,22.13,59.48,26.94,41.94,67.37,70.62,113.86,80.75,1.47.33,2.94.63,4.41.92,1.43.28,2.9.55,4.37.8,1.47.25,2.94.49,4.41.7,1.47.21,2.94.42,4.41.59,1.49.18,2.98.33,4.46.48,1.48.15,2.96.26,4.44.37,1.47.1,2.95.18,4.45.25,1.48.07,2.97.12,4.45.15,1.5.03,2.99.03,4.49.03,1.47,0,2.96-.04,4.46-.08,1.48-.04,2.96-.11,4.45-.19,1.46-.09,2.96-.18,4.45-.3s2.96-.25,4.44-.41c1.39-.14,2.83-.3,4.43-.51,1.46-.19,2.94-.4,4.41-.63,1.5-.23,2.96-.48,4.42-.74,1.45-.26,2.91-.54,4.37-.84,1.46-.3,2.91-.62,4.35-.96,1.44-.34,2.88-.69,4.31-1.07,1.45-.38,2.89-.77,4.32-1.18,1.42-.41,2.84-.83,4.26-1.28,1.43-.45,2.85-.92,4.26-1.4,1.38-.48,2.79-.97,4.18-1.49,1.37-.52,2.77-1.05,4.16-1.6,1.4-.55,2.77-1.13,4.14-1.71,1.34-.58,2.7-1.18,4.05-1.8,1.36-.62,2.71-1.26,4.04-1.91,1.36-.66,2.68-1.33,4.01-2.01,1.3-.68,2.61-1.38,3.92-2.1,1.31-.72,2.6-1.46,3.89-2.21,1.29-.75,2.56-1.52,3.83-2.3,1.25-.77,2.51-1.57,3.75-2.38,32.76-21.07,57.86-51.72,72.64-88.69.47-1.32,1-2.72,1.56-4.19,3.09-8.16,6.93-18.32,4.04-24.73-1.33-2.95-4.16-5.34-7.58-6.4-3.01-.94-6.44-.54-8.96,1.03-5.79,3.6-9.74,15.73-12.91,25.48-1.96,6.03-3.82,11.72-6.12,16.05-15.62,29.41-40.52,53.9-70.11,68.94-30.54,15.52-64.16,20.6-97.23,14.7-2.46-.45-5.01-.98-7.62-1.59-2.41-.56-4.94-1.22-7.52-1.96-2.6-.75-5.09-1.54-7.42-2.33-2.41-.82-4.87-1.73-7.29-2.7-2.49-.99-4.89-2.02-7.14-3.04-2.31-1.05-4.66-2.19-6.99-3.39-2.25-1.16-4.54-2.42-6.82-3.74-2.08-1.21-4.25-2.54-6.61-4.06-2.31-1.5-4.41-2.94-6.43-4.4-2.24-1.62-4.26-3.16-6.18-4.7-2.06-1.65-4.06-3.33-5.94-4.99-1.89-1.67-3.81-3.45-5.7-5.28-1.85-1.8-3.68-3.67-5.44-5.56-1.69-1.81-3.43-3.77-5.15-5.81-1.74-2.07-3.34-4.05-4.87-6.07-1.58-2.08-3.11-4.2-4.55-6.29-5.86-8.51-10.03-15.79-13.11-22.89-1.32-3.03-2.54-6.82-3.82-10.84-3.4-10.61-8.07-25.13-15.93-26.69-1.5-.3-3.34-.35-5.14-.39Z"/>
  </g>
  <g>
    <path class="st0" d="M94.53,96.77c7.66-.68,14.1-.77,21.38,2.01,11.52,4.39,19.85,13.46,24.66,24.68,6.54,15.28,6.44,33.58.07,48.88-5.67,13.61-14.59,22-28.09,27.51-7.69.82-14.38.87-21.7-1.92-11.11-4.23-19.23-12.98-24.02-23.73-6.73-15.13-7.22-33.74-1.14-49.16,5.69-14.42,14.88-22.34,28.83-28.28h0Z"/>
    <path class="st0" d="M104.54,205.34c-5.19,0-10.16-.71-15.47-2.74-11.69-4.45-21.21-13.82-26.81-26.37-7.35-16.52-7.8-36.34-1.22-53.03,5.86-14.85,15.29-24.13,31.52-31.05l3.19-1.36.75.79c6.51-.47,13.49-.42,21.19,2.52,12.13,4.62,21.88,14.35,27.47,27.38,7,16.36,7.04,36.09.09,52.77-6.04,14.5-15.83,24.1-30.82,30.22l-.66.27-.7.07c-2.96.32-5.78.52-8.54.52ZM95.73,101.69c-13.24,5.79-20.63,13.14-25.38,25.19-5.53,14.03-5.13,31.39,1.06,45.29,3.18,7.14,9.45,16.6,21.23,21.09,6.09,2.32,11.71,2.4,18.68,1.69,12.15-5.11,19.79-12.7,24.72-24.54,5.93-14.24,5.91-31.06-.05-44.99-3.19-7.44-9.57-17.3-21.84-21.98-5.88-2.25-11.07-2.38-18.4-1.77Z"/>
  </g>
  <g>
    <path class="st0" d="M419.53,5.84c10.17-.89,20.38-1.19,30.56-.32,24.28,2.07,64.04,13.57,79.72,33.88,2.73,3.53,3.67,8,2.99,12.4-.74,4.72-3.33,9.55-7.43,12.15-12.89,8.15-38.07-12.64-50.56-17.94-6.96-2.95-15-4.13-22.4-5.59-23.41-3.38-49.53.07-69.68,12.79-7.45,4.71-15.47,10.99-24.06,13.29-4.2,1.13-9.02-.12-12.63-2.41-3.91-2.49-7.21-7.21-7.95-11.82-.72-4.48.91-8.36,3.47-11.95,13.76-19.25,55.58-31.28,77.98-34.49h-.01Z"/>
    <path class="st0" d="M355.35,71.92c-4.02,0-8.27-1.25-11.99-3.61-5.25-3.35-9.26-9.33-10.21-15.25-.84-5.25.57-10.37,4.33-15.65,14.54-20.34,56.61-32.99,81.34-36.54l14.86-2.13-1.32,1.32c6.44-.18,12.45-.02,18.15.46,23.93,2.04,65.84,13.26,83.25,35.81,3.48,4.5,4.89,10.26,3.97,16.22-1.03,6.58-4.66,12.41-9.69,15.61-12.03,7.61-29.46-2.77-43.47-11.11-4.46-2.66-8.68-5.16-11.72-6.45-5.29-2.24-11.54-3.42-17.58-4.55-1.25-.23-2.49-.47-3.71-.71-24.36-3.49-48.47.91-66.17,12.09-1.54.98-3.11,2.02-4.77,3.12-6.15,4.1-13.13,8.75-20.67,10.77-1.47.4-3.02.59-4.61.59ZM419.96,10.82c-23.82,3.47-62.43,15.76-74.33,32.41-2.21,3.11-3.02,5.65-2.6,8.25.49,3.08,2.89,6.61,5.7,8.4,2.77,1.76,6.17,2.47,8.65,1.8,5.96-1.6,11.93-5.58,17.71-9.43,1.63-1.09,3.32-2.22,4.97-3.26,19.71-12.45,46.35-17.37,73.07-13.51l.25.04c1.23.24,2.49.48,3.75.72,6.56,1.24,13.35,2.51,19.63,5.18,3.67,1.56,7.96,4.11,12.93,7.07,10.42,6.2,26.17,15.57,33.01,11.25,2.6-1.65,4.58-4.98,5.16-8.7.5-3.21-.22-6.25-2.01-8.57-14.51-18.8-53.29-30-76.19-31.96-8.87-.76-18.58-.65-29.7.32h0Z"/>
  </g>
  <g>
    <path class="st0" d="M85.8,5.84c13.06-1.05,25.84-1.13,38.85.78,19.87,2.93,61.62,16.9,73.47,34.28,2.25,3.3,3.15,7.28,2.22,11.2-1.13,4.75-4.8,9.69-8.93,12.26-3.56,2.22-8.1,3.13-12.21,2.07-6.19-1.59-13.21-7.14-18.78-10.41-11.78-6.93-22.96-11.54-36.31-14.55-25.96-5.55-56.08-.41-78.92,12.97-5.87,3.44-11.6,9.77-18.26,11.5-4.45,1.16-10.02.07-13.84-2.45-3.73-2.46-7.07-6.67-7.9-11.13-.83-4.43,1.03-8.7,3.63-12.19C24.04,19.7,61.58,9.16,85.8,5.84Z"/>
    <path class="st0" d="M182.72,71.86c-1.62,0-3.23-.19-4.77-.59-5.25-1.35-10.58-4.84-15.29-7.92-1.7-1.12-3.31-2.17-4.77-3.02-11.67-6.86-22.42-11.18-34.88-13.98-24.44-5.22-53.3-.47-75.29,12.41-1.84,1.08-3.78,2.57-5.82,4.14-3.97,3.06-8.46,6.52-13.71,7.88-5.71,1.49-12.72.27-17.85-3.12-5.19-3.43-9.05-8.94-10.06-14.39-.98-5.23.59-10.79,4.54-16.09C24.74,10.38,75.21,2.25,85.12.89l.28-.03c15.17-1.22,27.87-.96,39.98.82,19.55,2.88,63.61,16.95,76.88,36.41,3.13,4.6,4.18,9.99,2.95,15.17-1.43,6-5.8,12.02-11.15,15.35-3.42,2.13-7.43,3.26-11.33,3.26ZM102.69,34.28c7.68,0,15.24.75,22.47,2.3,13.56,3.06,25.21,7.72,37.8,15.13,1.66.98,3.37,2.09,5.18,3.28,4.06,2.65,8.66,5.66,12.31,6.6,2.64.68,5.75.13,8.32-1.47,3.08-1.92,5.9-5.77,6.71-9.17.57-2.41.04-4.98-1.49-7.23-10.86-15.93-51.39-29.4-70.07-32.15-11.3-1.66-23.24-1.9-37.58-.75-25.46,3.51-59.93,14.08-73.51,32.34-1.56,2.1-3.3,5.23-2.73,8.29.52,2.79,2.83,5.96,5.74,7.88,2.74,1.81,6.87,2.56,9.83,1.79,3.28-.85,6.76-3.53,10.12-6.13,2.2-1.7,4.48-3.45,6.87-4.85,17.58-10.3,39.19-15.84,60.03-15.84Z"/>
  </g>
  <g>
    <path class="st0" d="M428.61,96.56c7.4-.47,13.75.03,20.6,3.1,11.32,5.09,19.42,14.83,23.77,26.32.35.95.68,1.91.99,2.88s.59,1.95.85,2.93.5,1.97.71,2.96.4,1.99.57,3c.16,1,.3,2.01.42,3.02.12,1.01.21,2.02.27,3.04.07,1.01.11,2.03.13,3.05.02,1.02,0,2.03-.02,3.05-.03,1.02-.09,2.03-.17,3.05-.08,1.01-.19,2.02-.32,3.03s-.28,2.01-.46,3.01-.38,2-.61,2.99c-.23.99-.48,1.98-.75,2.96-.27.98-.57,1.95-.89,2.92-.32.96-.67,1.92-1.04,2.87s-.76,1.89-1.17,2.82c-6.08,13.38-15.22,21.35-28.78,26.45-7.96.89-15.75.19-23.04-3.29-11.1-5.29-18.63-15.27-22.62-26.71-5.39-15.41-5.02-34.07,2.21-48.84,6.44-13.16,15.85-19.83,29.35-24.6h0Z"/>
    <path class="st0" d="M436.61,205.36c-7.01,0-13.3-1.37-19.09-4.13-11.5-5.48-20.45-15.99-25.19-29.58-6-17.16-5.07-37.35,2.44-52.68,6.07-12.39,14.8-20.27,28.84-25.87v-1.23l4.68-.31c6.54-.42,14.38-.32,22.96,3.53,11.95,5.37,21.33,15.71,26.4,29.11.39,1.06.75,2.1,1.08,3.13.31.96.61,2,.92,3.17.3,1.12.55,2.19.77,3.21.22,1.05.43,2.13.61,3.21.18,1.11.33,2.19.46,3.26.13,1.11.23,2.24.3,3.33.07.98.12,2.06.14,3.25.02,1.05,0,2.1-.02,3.16v.14c-.03,1.02-.09,2.09-.19,3.29-.08,1.04-.2,2.11-.35,3.28-.15,1.15-.31,2.21-.5,3.26-.21,1.19-.43,2.25-.66,3.24-.25,1.07-.52,2.13-.8,3.16-.26.96-.58,2-.96,3.15-.34,1.02-.72,2.07-1.13,3.12-.4,1.02-.82,2.04-1.25,3.02-6.45,14.19-16.48,23.43-31.6,29.11l-.58.22-.62.07c-2.29.26-4.51.38-6.66.38ZM429.65,101.51c-13.11,4.75-20.64,11.11-25.9,21.86-6.37,13.02-7.13,30.26-1.98,44.99,3.86,11.05,10.98,19.52,20.05,23.85,5.68,2.71,12.13,3.66,19.71,2.9,12.31-4.76,20.15-12.06,25.4-23.61.36-.81.72-1.69,1.06-2.57.35-.9.67-1.79.96-2.64.32-.98.59-1.86.81-2.66.25-.92.49-1.84.7-2.76.19-.83.38-1.73.56-2.75.16-.87.29-1.78.42-2.76.13-1.01.23-1.92.29-2.79.08-1.03.13-1.95.16-2.8.02-.96.04-1.88.02-2.8-.02-1.02-.06-1.93-.12-2.8-.06-.95-.14-1.88-.25-2.8-.11-.95-.24-1.89-.39-2.82-.15-.9-.33-1.83-.52-2.75-.18-.85-.4-1.77-.65-2.72-.27-1-.52-1.88-.78-2.69-.29-.9-.6-1.8-.92-2.68-4.11-10.85-11.62-19.21-21.13-23.49-5.14-2.31-10.26-3.11-17.51-2.71Z"/>
  </g>
</svg>