<svg xmlns="http://www.w3.org/2000/svg" viewBox="0 0 24 24" class="w-6 h-6 fill-current">
  <path fill="currentColor" d="M19.14 12.94c.04-.3.06-.61.06-.94s-.02-.64-.06-.94l2.03-1.58a.5.5 0 00.12-.65l-1.92-3.32a.5.5 0 00-.61-.22l-2.39.96a7.007 7.007 0 00-1.62-.94l-.36-2.54A.5.5 0 0014.4 2h-4.8a.5.5 0 00-.5.42l-.36 2.54a7.007 7.007 0 00-1.62.94l-2.39-.96a.5.5 0 00-.61.22L2.71 8.27a.5.5 0 00.12.65l2.03 1.58c-.04.3-.06.61-.06.94s.02.64.06.94l-2.03 1.58a.5.5 0 00-.12.65l1.92 3.32a.5.5 0 00.61.22l2.39-.96c.5.38 1.04.7 1.62.94l.36 2.54a.5.5 0 00.5.42h4.8a.5.5 0 00.5-.42l.36-2.54c.58-.24 1.12-.56 1.62-.94l2.39.96a.5.5 0 00.61-.22l1.92-3.32a.5.5 0 00-.12-.65l-2.03-1.58zM12 15.5A3.5 3.5 0 1115.5 12 3.5 3.5 0 0112 15.5z"/>
</svg>
