<?xml version="1.0" encoding="UTF-8"?>
<svg id="Layer_1" xmlns="http://www.w3.org/2000/svg" version="1.1" viewBox="0 0 592.3 819.7">
  <g>
    <path class="st0" d="M423.6,48c.2.8.8,1.3,1.6,1.3,31.1-.2,69.1-.2,114.1,0,4.5,0,14,3.5,18.6,6.5,17,11.1,28.6,27.6,28.8,48,.2,27.7.4,240.1.6,637.3,0,15.8-.9,26.4-2.6,31.7-6.9,20.8-27.2,36.6-48,41.5-1.1.3-2.2.4-3.4.4-170.9-.2-322.4-.3-454.4-.2-16.2,0-27-1-32.5-3.1-14.9-5.8-34.1-21.3-38.3-37.5-2.1-8.1-3.1-15.4-3.1-22.1,0-132.6,0-346.7,0-642.2,0-26.7,13.7-49.8,40-58.3,5-1.7,12.3-2.4,21.7-2.4,48.6.3,80.5.3,95.7,0,1.1,0,2.1-.7,2.6-1.7,3.4-7.1,5.1-14.9,9.7-21.4,5.5-7.9,12.3-13.6,20.5-17.4,5.3-2.4,14.2-3.6,26.6-3.6,49.3,0,101.1.3,155.3.5,7,0,14.2,2.4,21.7,7,13.3,8.2,21.6,20,24.7,35.5M395.7,59.1c0-12.9-10.5-23.3-23.4-23.3l-156,.3c-12.9,0-23.3,10.5-23.3,23.4v16c0,12.9,10.5,23.3,23.4,23.3l156-.3c12.9,0,23.3-10.5,23.3-23.4v-16M426.8,80l-5.1,18c0,.1,0,.2-.2.3-7.2,13.6-17.6,23.2-30.9,28.8-5.6,2.3-13,3.4-22.4,3.5-61.3.1-114.9.1-160.9,0-2.1,0-4.2-.4-6.2-1.1-22.6-8.2-34.7-24.8-36.2-49.6,0-.9-.8-1.6-1.7-1.6-25.8-.2-57.2-.3-94.4-.3-15.3,0-25.8,6.2-31.6,18.7-5,10.8-3.5,22.5-3.5,39.5,0,168.9,0,370.7,0,605.6,0,13.7,1.4,23.1,4.1,28.2,5.1,9.6,14.2,14.5,27.2,14.6,15.7.1,167.6.2,455.8,0,8.8,0,15.3-1,19.2-3.2,11.1-5.9,17.2-16.1,18.1-30.5.5-8.5.8-20,.8-34.6,0-152,0-352,0-600.3,0-9.8-.9-16.4-2.7-19.7-3.2-6.1-7.9-10.9-14-14.4-4.7-2.8-12.3-4.1-22.8-4.1-24.6,0-54.7,0-90.4.2-1.1,0-2.1.8-2.4,1.8h0Z"/>
    <path class="st0" d="M533.3,819.7c-169.8-.2-322.7-.3-454.4-.2-17,0-28.2-1.1-34.2-3.4-16.6-6.4-36.7-22.9-41.3-41-2.2-8.4-3.3-16.3-3.3-23.4,0-101.2,0-294.8.1-642.2,0-30.7,16.3-54.3,43.5-63.1,5.6-1.8,13.2-2.7,23.3-2.6,46.6.3,78.3.3,94.2.1,1-2.1,1.8-4.3,2.7-6.6,1.8-4.8,3.7-9.7,6.8-14.3,6-8.6,13.6-15,22.6-19.1,6.1-2.7,15.4-4.1,28.6-4,43.9,0,93.3.2,155.3.5,7.9,0,16.1,2.6,24.3,7.7,13.7,8.4,22.6,20.6,26.4,36.1,29.9-.2,66.4-.2,111.5,0,5.7,0,16.2,3.9,21.3,7.3,19.8,13,30.8,31.5,31,52.2.2,27.6.5,242,.6,637.3,0,16.5-.9,27.3-2.9,33.3-7,21.2-27.8,39.2-51.6,44.8-1.5.3-3,.5-4.5.5h0ZM217,809.5c97.1,0,202.9,0,316.3.2.8,0,1.5,0,2.3-.3,20.6-4.9,38.4-20.2,44.4-38.3,1.1-3.3,2.4-11.2,2.4-30.1-.2-395.3-.4-609.7-.6-637.3-.2-17.2-9.6-32.8-26.5-43.9-4-2.6-12.6-5.7-15.9-5.7-46.4-.1-83.7,0-114.1,0-3.2,0-5.9-2.2-6.5-5.3h0c-2.9-14.2-10.2-24.8-22.5-32.3-6.7-4.1-13.1-6.2-19.1-6.2-62-.3-111.4-.4-155.3-.5-14.4,0-21.3,1.7-24.5,3.1-7.3,3.3-13.5,8.6-18.5,15.6-2.5,3.5-4,7.7-5.7,12.1-1.1,2.8-2.2,5.7-3.6,8.6-1.3,2.7-3.9,4.4-6.9,4.5-15.6.2-47.8.2-95.8,0-8.8,0-15.6.6-20.1,2.1-22.9,7.4-36.5,27.4-36.6,53.6-.1,347.4-.1,540.9-.1,642.2,0,6.2,1,13.3,3,20.9,3.6,14.1,21.1,28.7,35.2,34.1,3.3,1.3,11.3,2.8,30.7,2.8,43.8,0,89.9,0,138.1,0h0ZM160.5,45.1s0,0,0,0c0,0,0,0,0,0ZM286.6,789.7c-140.9,0-211,0-221.5-.1-14.9,0-25.6-5.9-31.6-17.2-3.2-6-4.7-16-4.7-30.6,0-212.3,0-416.1,0-605.6,0-3.3,0-6.3-.1-9.3-.2-12.6-.4-22.6,4.1-32.3,6.6-14.3,18.8-21.6,36.1-21.6,37,0,68.8.1,94.4.3h.1c3.5,0,6.3,2.9,6.5,6.3,1.4,22.8,12.2,37.6,32.9,45.2,1.4.5,3,.8,4.6.8,49.1.1,103.2.2,160.8,0,8.7,0,15.6-1.1,20.5-3.1,12.1-5,21.6-13.8,28.2-26.3l5-17.7c.9-3.2,3.9-5.4,7.2-5.4,35.6-.2,66-.2,90.4-.2h.3c11.3,0,19.5,1.6,25,4.8,6.9,4,12.2,9.5,15.9,16.3,2.2,4.2,3.3,11.2,3.3,22.1,0,237.7-.1,439.7,0,600.3,0,14.3-.2,26.1-.8,34.9-1.1,16.2-8,27.8-20.8,34.6-4.7,2.5-11.8,3.8-21.5,3.8-93.1,0-170.9,0-234.4,0h0ZM68.8,82.9c-13.2,0-22.1,5.2-27,15.8-3.5,7.7-3.4,16.2-3.2,27.9,0,3,.1,6.1.1,9.5,0,189.5,0,393.3,0,605.6,0,15.9,1.9,22.8,3.5,25.9,4.2,8,11.7,11.9,22.9,11.9,15.2.1,155.8.2,455.8,0,10,0,14.7-1.4,16.8-2.6,9.6-5.1,14.7-13.7,15.5-26.4.6-8.6.8-20.1.8-34.3,0-160.6,0-362.6,0-600.3,0-11.7-1.3-15.9-2.1-17.3-2.8-5.3-6.8-9.3-12.1-12.4-2.7-1.6-8.3-3.4-20-3.4h-.3c-24,0-53.8,0-88.5.2l-4.5,16.1c-.1.6-.4,1.1-.7,1.7-7.8,14.5-19,24.9-33.3,30.8-6.2,2.6-14.2,3.8-24.3,3.9-57.6.1-111.8.1-160.9,0-2.8,0-5.4-.5-7.9-1.4-23.6-8.6-36.8-25.7-39.2-50.9-25.1-.2-55.8-.3-91.4-.3h0ZM429.2,83.2h0,0ZM159.9,80.2h0s0,0,0,0ZM216.4,103.8c-7.6,0-14.7-2.9-20-8.3-5.4-5.3-8.3-12.5-8.3-20v-16c0-15.6,12.6-28.4,28.3-28.4l156-.3h0c7.6,0,14.7,2.9,20,8.3,5.4,5.3,8.3,12.5,8.3,20v16c0,15.6-12.6,28.4-28.3,28.4l-156,.3h0,0ZM372.4,40.8h0l-156,.3c-10.1,0-18.3,8.3-18.3,18.4v16c0,4.9,1.9,9.5,5.4,13,3.5,3.4,8.1,5.3,13,5.3h0l156-.3c10.1,0,18.3-8.3,18.3-18.4v-16c0-4.9-2-9.5-5.4-13-3.5-3.5-8.1-5.3-13-5.3h0Z"/>
  </g>
  <path class="st0" d="M129.1,213.8c.8,0,1.4-.6,1.4-1.5-.7-13.9-1-27.3-.7-40.2.1-7,3.2-12,9.2-15.1.8-.4,1.6-.6,2.4-.6,1.2,0,21.1,0,59.7-.2,5.2,0,8.4,2.2,9.7,6.6,1.6,5.6,2.4,11.8,2.4,18.4-.1,11.4,0,21.5.3,30.5,0,.9.8,1.6,1.6,1.6l43.1.3c3.8,0,7.3,2.2,9,5.6,1.6,3.2,3.2,10.1,3.2,14.1.2,15.6.3,30.3.3,44,0,9.6-3.4,21.8-14.9,22.7-5.1.4-18.8.5-41.2.5-1.3,0-2.3,1.1-2.2,2.4.3,4.7.6,14.7,1.1,30,.1,3.3-.6,8.1-2.2,14.5-.2.8-.6,1.6-1.3,2.1-4.3,4-9.2,5.9-14.9,5.9-13-.1-25.2-.2-36.7-.1-15,0-28.9,1.6-28.7-16.5.2-14.6.2-26.5,0-35.8,0-1.4-1.2-2.5-2.6-2.5-18.5.8-29.6,1.2-33.4,1-7.6-.3-18.4-5.4-18.6-14.4-.6-23.3-.8-38.9-.5-46.6.2-5.9,1.5-12.5,3.9-19.9.4-1.3,1.3-2.4,2.5-3.1,4.3-2.5,7.2-3.9,8.9-3.9,9.8-.4,22.8-.4,39.1,0M160.9,329.1h21.6c.9,0,1.7-.8,1.7-1.7-.2-19.7-.1-33.4.2-41.2.2-5,3.1-9.3,8.8-12.6.3-.2.6-.3,1-.3l45.6.6c1.3,0,2.4-1,2.4-2.3v-27.1c0-1.1-.8-1.9-1.9-1.9-15.1,0-29.2,0-42.4-.1-9.2,0-13.7-4.5-13.6-13.5.4-21.4.3-34.5-.2-39.3-.1-1.1-1.1-2-2.2-2h-20.5c-1.3,0-2.3,1-2.3,2.3,0,14.1,0,26.9.1,38.4.1,6.2-2.5,10.9-7.7,13.9-.6.4-1.3.6-2,.6h-43.8c-1.9,0-3.5,1.6-3.5,3.5v25.8c0,.8.6,1.4,1.4,1.4,17.5.3,31.7.3,42.7,0,10.2-.2,13.2,8.3,13,16.9-.2,8.8-.2,21.1,0,37,0,.9.7,1.6,1.6,1.6h0Z"/>
  <g>
    <path class="st0" d="M508.9,219.6c0,8.1-6.5,14.6-14.6,14.6h-169.1c-8.1,0-14.6-6.5-14.6-14.6v-.8c0-8.1,6.5-14.6,14.6-14.6h169.1c8.1,0,14.6,6.5,14.6,14.6v.8h0Z"/>
    <path class="st0" d="M494.3,239.2h-169.1c-10.8,0-19.6-8.8-19.6-19.6v-.8c0-10.8,8.8-19.6,19.6-19.6h169.1c10.8,0,19.6,8.8,19.6,19.6v.8c0,10.8-8.8,19.6-19.6,19.6ZM325.1,209.2c-5.3,0-9.6,4.3-9.6,9.6v.8c0,5.3,4.3,9.6,9.6,9.6h169.1c5.3,0,9.6-4.3,9.6-9.6v-.8c0-5.3-4.3-9.6-9.6-9.6h-169.1Z"/>
  </g>
  <g>
    <path class="st0" d="M509,300.2c0,7.5-6.1,13.7-13.7,13.7l-171.7-.3c-7.6,0-13.7-6.2-13.7-13.7v-1.4c0-7.5,6.1-13.7,13.7-13.7l171.7.3c7.6,0,13.7,6.2,13.7,13.7v1.4h0Z"/>
    <path class="st0" d="M495.4,318.9h0l-171.7-.3c-5,0-9.7-2-13.2-5.5s-5.5-8.2-5.4-13.2v-1.4c0-10.3,8.4-18.6,18.7-18.6h0l171.7.3c5,0,9.7,2,13.2,5.5s5.5,8.2,5.4,13.2v1.4c0,10.3-8.4,18.6-18.7,18.6h0ZM323.7,289.8c-4.8,0-8.7,3.9-8.7,8.7v1.4c0,2.3.9,4.5,2.5,6.1,1.6,1.6,3.8,2.5,6.1,2.6l171.7.3h0c4.8,0,8.7-3.9,8.7-8.7v-1.4c0-2.3-.9-4.5-2.5-6.1-1.6-1.6-3.8-2.5-6.1-2.6l-171.7-.3h0Z"/>
  </g>
  <g>
    <path class="st0" d="M508.5,414.5c0,7.9-6.4,14.3-14.3,14.3H98c-7.9,0-14.3-6.4-14.3-14.3v-.2c0-7.9,6.4-14.3,14.3-14.3h396.2c7.9,0,14.3,6.4,14.3,14.3v.2h0Z"/>
    <path class="st0" d="M494.2,433.7H98c-10.6,0-19.3-8.6-19.3-19.3v-.2c0-10.6,8.6-19.3,19.3-19.3h396.2c10.6,0,19.3,8.6,19.3,19.3v.2c0,10.6-8.6,19.3-19.3,19.3h0ZM98,405c-5.1,0-9.3,4.1-9.3,9.3v.2c0,5.1,4.2,9.3,9.3,9.3h396.2c5.1,0,9.3-4.1,9.3-9.3v-.2c0-5.1-4.1-9.3-9.3-9.3H98Z"/>
  </g>
  <g>
    <path class="st0" d="M508.4,503.7c0,7.9-6.4,14.2-14.2,14.2H97.7c-7.8,0-14.2-6.4-14.2-14.2v-.2c0-7.9,6.4-14.2,14.2-14.2h396.5c7.9,0,14.2,6.4,14.2,14.2v.2h0Z"/>
    <path class="st0" d="M494.1,522.9H97.7c-10.6,0-19.2-8.6-19.2-19.2v-.2c0-10.6,8.6-19.2,19.2-19.2h396.5c10.6,0,19.2,8.6,19.2,19.2v.2c0,10.6-8.6,19.2-19.2,19.2h0ZM97.7,494.3c-5.1,0-9.2,4.1-9.2,9.2v.2c0,5.1,4.1,9.2,9.2,9.2h396.5c5.1,0,9.2-4.1,9.2-9.2v-.2c0-5.1-4.1-9.2-9.2-9.2H97.7Z"/>
  </g>
  <g>
    <path class="st0" d="M509.3,595.7c0,8.3-6.7,15-15,15H98.7c-8.3,0-15-6.7-15-15v-.3c0-8.3,6.7-15,15-15h395.5c8.3,0,15,6.7,15,15v.3h0Z"/>
    <path class="st0" d="M494.3,615.7H98.7c-11,0-20-9-20-20v-.3c0-11,9-20,20-20h395.5c11,0,20,9,20,20v.3c0,11-9,20-20,20h0ZM98.7,585.5c-5.5,0-10,4.5-10,10v.3c0,5.5,4.5,10,10,10h395.5c5.5,0,10-4.5,10-10v-.3c0-5.5-4.5-10-10-10H98.7Z"/>
  </g>
  <g>
    <path class="st0" d="M311.1,682.4c0,8.3-6.7,15-15,15H98c-8.3,0-15-6.7-15-15v-.6c0-8.3,6.7-15,15-15h198.1c8.3,0,15,6.7,15,15v.6h0Z"/>
    <path class="st0" d="M296.2,702.4H98c-11,0-20-9-20-20v-.6c0-11,9-20,20-20h198.1c11,0,20,9,20,20v.6c0,11-9,20-20,20ZM98,671.8c-5.5,0-10,4.5-10,10v.6c0,5.5,4.5,10,10,10h198.1c5.5,0,10-4.5,10-10v-.6c0-5.5-4.5-10-10-10H98Z"/>
  </g>
</svg>