<?xml version="1.0" encoding="UTF-8"?>
<svg id="Layer_1" data-name="Layer 1" xmlns="http://www.w3.org/2000/svg" viewBox="0 0 958.13 958.13">
  <path d="M641.59,938.13h-325.04c-4.97,0-9-4.03-9-9v-278.54H29c-4.98,0-9-4.03-9-9v-325.05c0-4.98,4.03-9,9-9h278.55V29c0-4.97,4.03-9,9-9h325.04c4.98,0,9,4.03,9,9v278.54h278.54c4.97,0,9,4.03,9,9v325.05c0,4.97-4.03,9-9,9h-278.54v278.54c0,4.98-4.03,9-9,9ZM325.55,920.12h307.04v-278.54c0-4.98,4.03-9,9-9h278.54v-307.05h-278.54c-4.98,0-9-4.03-9-9V38h-307.04v278.54c0,4.98-4.03,9-9,9H38v307.05h278.55c4.98,0,9,4.03,9,9v278.54Z"/>
  <path class="cls-1" d="M641.59,958.13h-325.04c-15.99,0-29-13.01-29-29v-258.54H29c-15.99,0-29-13.01-29-29v-325.05c0-15.99,13.01-29,29-29h258.55V29c0-15.99,13.01-29,29-29h325.04c15.99,0,29,13.01,29,29v258.54h258.54c15.99,0,29,13.01,29,29v325.05c0,15.99-13.01,29-29,29h-258.54v258.54c0,15.99-13.01,29-29,29ZM345.55,900.12h267.04v-258.54c0-15.99,13.01-29,29-29h258.54v-267.05h-258.54c-15.99,0-29-13.01-29-29V58h-267.04v258.54c0,15.99-13.01,29-29,29H58v267.05h258.55c15.99,0,29,13.01,29,29v258.54Z"/>
</svg>