<?xml version="1.0" encoding="UTF-8"?>
<svg id="Layer_1" data-name="Layer 1" xmlns="http://www.w3.org/2000/svg" viewBox="0 0 566.29 900.79">
  <path class="cls-1" d="M284.96,900.79c-13.81,0-25-11.19-25-25v-174.52c0-13.81,11.19-25,25-25s25,11.19,25,25v174.52c0,13.81-11.19,25-25,25Z"/>
  <path class="cls-1" d="M283.15,624.46c-97.99,0-177.71-79.72-177.71-177.71V177.71C105.44,79.72,185.16,0,283.15,0s177.71,79.72,177.71,177.71v269.05c0,97.99-79.72,177.71-177.71,177.71ZM283.15,50c-70.42,0-127.71,57.29-127.71,127.71v269.05c0,70.42,57.29,127.71,127.71,127.71s127.71-57.29,127.71-127.71V177.71c0-70.42-57.29-127.71-127.71-127.71Z"/>
  <path class="cls-1" d="M283.15,726.27c-75.63,0-146.73-29.45-200.21-82.93C29.45,589.86,0,518.75,0,443.12c0-13.81,11.19-25,25-25s25,11.19,25,25c0,128.56,104.59,233.14,233.15,233.14s233.14-104.59,233.14-233.14c0-13.81,11.19-25,25-25s25,11.19,25,25c0,75.63-29.45,146.73-82.93,200.21-53.48,53.48-124.58,82.93-200.21,82.93Z"/>
</svg>