<?xml version="1.0" encoding="UTF-8"?>
<svg id="Layer_1" data-name="Layer 1" xmlns="http://www.w3.org/2000/svg" viewBox="0 0 256.62 422.39">
  <path class="cls-1" d="M148.52,422.39h-42.45c-8.5,0-15.42-6.92-15.42-15.42v-21.8c-7.63-1.5-14.89-3.53-21.68-6.05-17.29-6.44-31.15-15.33-41.19-26.4-9.41-10.38-16.67-21.62-21.58-33.41-2.55-6.12-4.52-12.49-5.87-18.92-1.71-8.21,3.33-16.22,11.48-18.23l44.62-10.99c3.91-.96,8.1-.26,11.49,1.92,3.39,2.19,5.76,5.73,6.5,9.71,1.65,8.89,6.1,15.89,14.01,22.03,9.52,7.38,23.44,11.13,41.39,11.13,16.68,0,29.84-3.58,39.11-10.63,7.9-6.01,11.42-13.39,11.42-23.93,0-7.14-1.84-12.13-5.98-16.2-3.73-3.67-11.73-8.96-28.61-13.35l-53.89-14.38c-23.49-6.11-43.29-16.87-58.77-31.96-17-16.56-25.62-38.58-25.62-65.44,0-22.29,6.34-42.13,18.85-58.97,12.08-16.28,27.69-28.42,46.38-36.08,5.77-2.37,11.78-4.36,17.94-5.97V15.42c0-8.5,6.92-15.42,15.42-15.42h42.45c8.5,0,15.42,6.92,15.42,15.42v22.28c2.99.66,5.93,1.41,8.81,2.24,13.56,3.92,26.32,9.77,37.93,17.38,12.8,8.39,23.13,19.86,30.72,34.09,4.78,8.98,8.21,18.85,10.2,29.36,1.53,8.09-3.54,15.97-11.54,17.94l-44.67,11c-3.94.97-8.15.25-11.55-1.96-3.41-2.22-5.76-5.8-6.46-9.81-1.56-8.93-5.47-15.76-12.32-21.5-7.86-6.59-19.85-9.93-35.63-9.93s-27.11,3.21-35.79,9.55c-6.98,5.1-10.1,11.75-10.1,21.57,0,6.53,1.62,11.18,5.25,15.09,4.35,4.68,12.06,8.57,22.28,11.23l52.89,14.24c28.26,7.86,50.56,19.32,66.26,34.07h0c17.52,16.45,26.4,38.9,26.4,66.71,0,35.22-13.31,62.91-39.56,82.3-15.15,11.19-32.98,18.99-53.12,23.26v22.45c0,8.5-6.92,15.42-15.42,15.42ZM115.65,397.39h23.29v-34.16l10.71-1.55c20.45-2.96,38.13-9.87,52.56-20.53,19.79-14.62,29.41-34.96,29.41-62.19,0-20.63-6.23-36.95-18.52-48.49h0c-12.71-11.94-31.48-21.43-55.79-28.19l-52.65-14.17c-14.95-3.9-26.49-10.09-34.19-18.38-7.92-8.52-11.94-19.33-11.94-32.11,0-17.84,6.85-31.89,20.35-41.76,13.05-9.53,30.05-14.36,50.54-14.36,21.81,0,39.2,5.31,51.69,15.77,8.45,7.08,14.51,15.71,18.1,25.74l25.69-6.33c-1.45-4.77-3.31-9.29-5.56-13.53-5.59-10.48-13.12-18.87-22.37-24.94-9.52-6.24-20.01-11.04-31.16-14.27-5.18-1.5-10.62-2.67-16.17-3.48l-10.69-1.56V25h-23.29v34.42l-10.21,1.91c-8.09,1.51-15.91,3.8-23.26,6.81-14.42,5.91-26.46,15.28-35.79,27.85-9.24,12.44-13.92,27.27-13.92,44.07,0,19.87,6.08,35.86,18.07,47.54,12.34,12.02,28.38,20.67,47.69,25.69l53.89,14.38c17.77,4.62,31.18,11.25,39.77,19.7,8.93,8.78,13.46,20.22,13.46,34.03,0,18.35-7.16,33.09-21.29,43.83-13.72,10.44-31.98,15.73-54.25,15.73-23.63,0-42.71-5.51-56.71-16.37-9.59-7.43-16.41-16.4-20.35-26.76l-25.57,6.3c.62,1.88,1.32,3.74,2.08,5.57,3.81,9.15,9.54,17.98,17.02,26.23,7.33,8.08,17.89,14.73,31.4,19.76,8.15,3.04,17.25,5.2,27.02,6.44l10.93,1.38v33.88Z"/>
</svg>