<?xml version="1.0" encoding="UTF-8"?>
<svg id="Layer_1" data-name="Layer 1" xmlns="http://www.w3.org/2000/svg" viewBox="0 0 192.52 216.14">
  <path class="cls-1" d="M182.48,153.93c-13.38-15.56-16.45-37.96-16.67-39.69l-1.53-24.78c-.01-29.4-18.98-55.22-46.68-64.25-1.17-15.62-11.26-22.68-21.33-22.71-10.05,0-20.21,7.09-21.35,22.83-27.35,9.11-46.17,34.75-46.3,63.83l-1.64,24.77c-.24,1.79-3.45,24.14-16.89,39.63-6.86,7.92-9.35,17.32-6.33,23.94,1.3,2.86,4.8,7.66,13.57,7.68l44.78.1c1.09,7.18,4.46,13.72,9.77,18.79,6.44,6.15,15.07,9.55,24.31,9.57h.1c17.48,0,31.56-12.03,34.1-28.21l44.77.1s.06,0,.06,0c8.73,0,12.22-4.77,13.53-7.61,3.03-6.61.57-16.02-6.27-23.98ZM96.28,202.85h-.07c-6.46-.01-12.45-2.35-16.88-6.58-3.14-3-5.27-6.77-6.23-10.93l46.29.1c-2.43,10.09-11.72,17.41-23.1,17.41ZM178.94,173.41c-.5,1.09-2.3,1.32-3.72,1.32h0v5.4s-.04-5.4-.04-5.4l-157.84-.34c-1.44,0-3.26-.24-3.77-1.36-1.01-2.22.49-7.59,4.66-12.4,16.16-18.64,19.34-44.47,19.47-45.56.01-.09.02-.18.02-.27l1.66-25.1c0-.11.01-.23.01-.34.06-25.7,17.49-48.25,42.39-54.82,2.56-.68,4.26-3.12,3.99-5.75-.04-.38-.1-.74-.18-1.07.25-13.37,8.2-14.42,10.68-14.42,2.46,0,10.38,1.07,10.62,14.35-.08.33-.14.67-.17,1.04-.27,2.65,1.44,5.1,4.02,5.76,25.21,6.49,42.78,29.17,42.72,55.16,0,.12,0,.23.01.34l1.55,25.11c0,.09.01.17.02.26.12,1.09,3.15,26.94,19.22,45.64,4.17,4.85,5.66,10.24,4.65,12.44Z"/>
  <path class="cls-1" d="M96.29,216.14h-.11c-9.88-.02-19.13-3.66-26.03-10.26-5.18-4.95-8.65-11.17-10.13-18.1l-42.7-.09c-10.17-.02-14.29-5.74-15.84-9.14-3.42-7.52-.78-17.96,6.72-26.62,12.83-14.79,16.05-36.52,16.29-38.25l1.63-24.61c.17-29.5,18.77-55.64,46.47-65.58C74.44,7.28,85.66,0,96.27,0c10.58.03,21.78,7.28,23.67,23.36,28.05,9.87,46.8,36.19,46.85,66.02l1.52,24.62c.22,1.7,3.29,23.43,16.07,38.3h0c7.48,8.7,10.09,19.16,6.65,26.66-1.55,3.37-5.63,9-15.62,9.07h-.02s-.25,0-.25,0l-42.68-.09c-3.62,16.47-18.49,28.21-36.17,28.21ZM96.26,5c-8,0-17.75,5.37-18.85,20.52l-.12,1.66-1.58.53c-26.54,8.84-44.46,33.54-44.59,61.47v.15s-1.66,24.93-1.66,24.93c-.33,2.51-3.66,25.01-17.48,40.94-6.23,7.18-8.56,15.53-5.95,21.27,1.29,2.83,4.29,6.2,11.3,6.22l46.93.1.32,2.12c1.01,6.68,4.13,12.68,9.03,17.36,5.97,5.7,13.99,8.86,22.58,8.87,16.05,0,29.35-10.98,31.73-26.1l.33-2.12,46.97.1c6.97,0,9.97-3.35,11.26-6.15,2.63-5.72.31-14.09-5.89-21.31h0c-13.76-16.01-16.94-38.5-17.25-41.01v-.16s-1.55-24.94-1.55-24.94c-.01-28.25-18.08-53.11-44.96-61.87l-1.59-.52-.12-1.67c-1.12-15.02-10.85-20.38-18.84-20.4ZM96.28,205.35h-.07c-7.11-.01-13.71-2.6-18.6-7.27-3.46-3.31-5.86-7.52-6.94-12.17l-.71-3.07,52.6.11-.74,3.08c-2.74,11.38-13.24,19.32-25.53,19.32ZM76.52,187.85c1.03,2.48,2.57,4.73,4.54,6.61,3.96,3.78,9.34,5.87,15.15,5.88l.07,2.5v-2.5c8.81,0,16.47-4.97,19.65-12.42l-39.41-.08ZM172.72,180.15l-.02-2.92-155.36-.33c-3.16,0-5.19-.96-6.04-2.82-1.6-3.51.52-9.86,5.05-15.08,15.66-18.05,18.75-43.15,18.87-44.21v-.14s1.67-25.1,1.67-25.1c0-.07,0-.13,0-.19.06-26.83,18.25-50.37,44.25-57.23,1.38-.37,2.28-1.66,2.14-3.09-.03-.26-.07-.51-.12-.75l-.07-.3v-.31c.3-16.06,11.04-16.88,13.19-16.88,2.15,0,12.83.84,13.12,16.81v.32s-.07.31-.07.31c-.05.22-.09.46-.12.71-.14,1.43.76,2.73,2.16,3.09,26.32,6.78,44.66,30.46,44.6,57.58,0,.05,0,.11,0,.17l1.57,25.29c.12,1.04,3.08,26.17,18.63,44.26,4.52,5.26,6.63,11.61,5.02,15.12h0c-.59,1.29-1.76,2.14-3.49,2.53v3.15s-5,.02-5,.02ZM175.19,172.23h.03c.81,0,1.28-.09,1.52-.16.17-1.31-.74-5.29-4.34-9.48-16.54-19.25-19.69-45.87-19.81-47-.01-.14-.02-.26-.03-.37l-1.55-25.12c-.01-.15-.02-.33-.02-.5.05-24.84-16.75-46.53-40.85-52.74-3.8-.98-6.28-4.53-5.89-8.43.04-.35.09-.7.15-1.03-.29-10.46-5.77-11.61-8.13-11.61-2.37,0-7.88,1.15-8.17,11.69.07.35.12.7.16,1.06.39,3.88-2.07,7.42-5.84,8.42-23.81,6.29-40.47,27.84-40.53,52.41,0,.17,0,.34-.02.51l-1.66,25.09c0,.13-.02.26-.04.39-.13,1.13-3.4,27.71-20.06,46.92-3.63,4.18-4.53,8.16-4.35,9.45.27.08.77.17,1.57.17l157.84.33Z"/>
</svg>