<?xml version="1.0" encoding="UTF-8"?>
<svg id="Layer_1" data-name="Layer 1" xmlns="http://www.w3.org/2000/svg" viewBox="0 0 710.65 970.9">
  <path class="cls-1" d="M680.65,970.9H30c-16.57,0-30-13.43-30-30V420.39c0-16.57,13.43-30,30-30h650.65c16.57,0,30,13.43,30,30v520.52c0,16.57-13.43,30-30,30ZM60,910.9h590.65v-460.52H60v460.52Z"/>
  <path class="cls-1" d="M355.33,803.71h0c-19.33,0-35-15.67-35-35v-77.36c0-19.33,15.68-35,35.01-35h0c19.33,0,35,15.67,35,35v77.36c0,19.33-15.68,35-35.01,35Z"/>
  <path class="cls-1" d="M550.52,450.39c-16.57,0-30-13.43-30-30V60H190.13v360.39c0,16.57-13.43,30-30,30s-30-13.43-30-30V30c0-16.57,13.43-30,30-30h390.39c16.57,0,30,13.43,30,30v390.39c0,16.57-13.43,30-30,30Z"/>
</svg>