<?xml version="1.0" encoding="UTF-8"?>
<svg id="Layer_1" data-name="Layer 1" xmlns="http://www.w3.org/2000/svg" viewBox="0 0 192.75 207.91">
  <path class="cls-1" d="M183.01,148.02c-12.86-14.95-15.81-36.48-16.02-38.14l-1.47-23.82c-.04-7.55-3.58-28.75-14.39-41.36l15.86-16.68c2.1-2.13,2.08-5.56-.05-7.66-2.13-2.1-5.56-2.08-7.66.05l-15.99,16.82c-6.61-5.79-14.31-10.18-22.63-12.9-1.12-15.01-10.82-21.8-20.5-21.83-9.66,0-19.42,6.81-20.52,21.94-26.29,8.75-44.37,33.4-44.5,61.34l-1.57,23.81c-.22,1.71-3.25,23.12-16.23,38.08-6.22,7.18-8.75,15.87-6.44,22.14.57,1.55,1.41,2.91,2.47,4.05l-9.31,9.79c-2.1,2.13-2.08,5.56.05,7.66,1.06,1.04,2.43,1.56,3.8,1.56s2.79-.54,3.85-1.61l12.48-13.13,43.08.05c1.05,6.88,4.29,13.16,9.38,18.02,6.18,5.91,14.48,9.17,23.36,9.19h.1c16.8,0,30.33-11.56,32.77-27.11l43.02.09s.05,0,.06,0c8.39,0,11.75-4.58,13-7.31,2.92-6.35.55-15.4-6.03-23.05ZM20.63,166.23c-.83-2.25.64-7.26,4.54-11.76,15.53-17.91,18.58-42.74,18.71-43.78.01-.09.02-.17.02-.26l1.6-24.12c0-.11.01-.22.01-.33.05-24.7,16.8-46.37,40.73-52.68,2.46-.65,4.09-2.99,3.84-5.53-.04-.37-.09-.71-.17-1.03.24-12.85,7.88-13.86,10.27-13.86,2.36,0,9.98,1.03,10.21,13.79-.07.31-.13.65-.17,1-.25,2.55,1.39,4.9,3.87,5.54,7.1,1.83,13.74,5.08,19.55,9.52.95.54,1.87,1.12,2.77,1.74L20.63,166.23s0,0,0,0ZM100.17,195.03h-.07c-6.21-.01-11.97-2.26-16.22-6.32-3.02-2.88-5.06-6.51-5.99-10.5l44.48.09c-2.34,9.7-11.26,16.73-22.2,16.73ZM179.61,166.74c-.48,1.05-2.21,1.27-3.57,1.27h0v5.19s-.04-5.19-.04-5.19l-75.85-.16-66.05-.08,109.83-115.52c7.86,9.91,11.23,27.47,11.21,33.95,0,.11,0,.22.01.33l1.49,24.13c0,.08.01.17.02.25.12,1.05,3.03,25.89,18.47,43.86,4.01,4.66,5.44,9.84,4.47,11.96Z"/>
  <path class="cls-1" d="M100.17,207.91h-.1c-9.52-.02-18.43-3.53-25.08-9.88-4.96-4.74-8.3-10.7-9.74-17.33l-39.93-.05-11.74,12.35c-1.53,1.55-3.53,2.39-5.67,2.39s-4.07-.81-5.56-2.28C.85,191.61.01,189.63,0,187.52c-.01-2.11.8-4.11,2.28-5.61l7.8-8.2c-.62-.93-1.13-1.95-1.52-3.03-2.62-7.11.09-16.79,6.9-24.64,12.37-14.27,15.4-35.04,15.63-36.69l1.56-23.65c.17-28.37,18.04-53.51,44.66-63.09,1.82-15.6,12.64-22.61,22.86-22.61,10.2.03,20.99,7,22.83,22.48,7.32,2.59,14.07,6.39,20.11,11.32l14.37-15.11c1.52-1.54,3.5-2.38,5.61-2.39,2.09,0,4.11.8,5.61,2.28,3.11,3.07,3.14,8.09.07,11.19l-14.32,15.06c10.08,13.15,13.5,33.1,13.56,41.14l1.46,23.67c.22,1.66,3.18,22.51,15.42,36.75h0c7.21,8.39,9.72,18.48,6.4,25.72-1.21,2.64-5.13,8.77-15.27,8.77h-.13s-40.89-.09-40.89-.09c-3.52,15.83-17.83,27.11-34.84,27.11ZM23.18,175.64l46.3.05.32,2.12c.98,6.39,3.96,12.13,8.64,16.59,5.72,5.46,13.4,8.48,21.64,8.5,15.38,0,28.12-10.51,30.4-25l.33-2.12,45.22.1c6.64,0,9.5-3.19,10.73-5.86,2.51-5.46.29-13.46-5.65-20.37-13.23-15.39-16.3-37.04-16.6-39.46v-.16s-1.49-23.96-1.49-23.96c-.04-7.46-3.57-27.82-13.79-39.75l-1.47-1.71,17.42-18.32c1.16-1.18,1.15-3.03,0-4.16-.55-.55-1.29-.86-2.07-.84-.78,0-1.51.31-2.05.87l-17.62,18.53-1.81-1.58c-6.41-5.6-13.73-9.78-21.76-12.41l-1.59-.52-.12-1.67c-1.07-14.37-10.37-19.49-18.01-19.51-7.65,0-16.96,5.14-18.02,19.63l-.12,1.66-1.58.53c-25.47,8.48-42.66,32.18-42.79,58.98v.15s-1.6,23.96-1.6,23.96c-.31,2.41-3.45,23.99-16.82,39.4-5.64,6.5-7.98,14.21-5.98,19.64.45,1.21,1.11,2.3,1.96,3.21l1.6,1.72-10.93,11.5c-.58.59-.88,1.32-.87,2.1,0,.78.31,1.51.87,2.05,1.11,1.09,3.03,1.08,4.12-.03l13.19-13.87ZM100.17,197.53h-.07c-6.86-.01-13.23-2.5-17.94-7.01-3.34-3.19-5.66-7.25-6.7-11.75l-.71-3.07,50.8.11-.74,3.08c-2.64,10.98-12.77,18.64-24.63,18.64ZM81.33,180.72c.98,2.32,2.44,4.42,4.28,6.19,3.78,3.62,8.93,5.62,14.49,5.63l.07,2.5v-2.5c8.37,0,15.66-4.69,18.74-11.74l-37.58-.08ZM173.53,173.22l-.02-2.71-73.37-.16-71.86-.08,115.82-121.82,1.79,2.25c8.23,10.38,11.77,28.54,11.75,35.51,0,.05,0,.1,0,.15l1.5,24.28c.11,1.02,2.91,25.08,17.88,42.5,4.37,5.08,6.4,11.23,4.84,14.63h0c-.58,1.25-1.7,2.08-3.35,2.47v2.95s-5,.02-5,.02ZM176,165.52h.03c.7,0,1.13-.07,1.37-.13.12-1.29-.79-5.05-4.16-8.97-15.98-18.59-18.94-44.14-19.06-45.22-.01-.13-.03-.27-.03-.41l-1.49-24.09c-.01-.15-.02-.31-.02-.49.01-5.13-2.59-20.18-8.98-30.04l-103.74,109.11,60.23.07,75.85.16ZM19.99,170.54l-1.7-3.44c-1.27-3.46.83-9.45,5-14.26,15.04-17.34,17.99-41.42,18.11-42.44v-.14s1.61-24.11,1.61-24.11c0-.05,0-.11,0-.17.06-25.84,17.57-48.49,42.6-55.1,1.28-.34,2.12-1.54,1.99-2.86-.03-.25-.06-.49-.12-.7l-.07-.31v-.31c.29-15.53,10.69-16.31,12.77-16.31,2.08,0,12.43.81,12.71,16.25v.32s-.07.31-.07.31c-.05.21-.09.44-.11.67-.13,1.33.71,2.54,2,2.87,7.38,1.9,14.21,5.21,20.31,9.85.95.55,1.89,1.14,2.8,1.76l2.42,1.66L19.99,170.54ZM92.42,26.5c.07.33.12.67.15,1.02.38,3.78-2.01,7.23-5.69,8.2-22.84,6.03-38.82,26.7-38.87,50.27,0,.16,0,.32-.02.48l-1.6,24.13c0,.13-.02.26-.04.39-.12,1.04-3.03,24.77-17.56,43.03l103.7-109.06s-.06-.04-.1-.05l-.28-.19c-5.6-4.28-11.88-7.34-18.66-9.08-3.7-.95-6.11-4.41-5.73-8.21.03-.33.08-.67.15-.99-.28-9.95-5.47-11.05-7.71-11.05-2.24,0-7.47,1.09-7.75,11.12Z"/>
</svg>