<?xml version="1.0" encoding="UTF-8"?>
<svg id="Layer_1" data-name="Layer 1" xmlns="http://www.w3.org/2000/svg" viewBox="0 0 962.38 969.3">
  <path class="cls-1" d="M10.43,969.3l60.1-237.19C24.34,656.67,0,570.23,0,481.19,0,215.86,215.86,0,481.19,0s481.19,215.86,481.19,481.19-215.86,481.19-481.19,481.19c-81.83,0-162.16-20.78-233.22-60.21L10.43,969.3ZM256.68,833.67l11.73,6.96c64.14,38.07,137.72,58.19,212.78,58.19,230.29,0,417.64-187.35,417.64-417.64S711.48,63.55,481.19,63.55,63.55,250.91,63.55,481.19c0,81.39,23.42,160.27,67.73,228.1l7.63,11.67-39.84,157.25,157.62-44.54Z"/>
  <path class="cls-1" d="M345,272.55c4.22-.1,8.39.09,12.47.57,8.34.98,16.34,3.11,23.84,6.26h0s30.63,141.9,30.63,141.9c0,.02,0,.04-.01.05-11.73,12.64-27.17,21.9-44.7,25.96-.03,0-.05.04-.04.07,29.72,69.64,89.25,122.88,161.76,144.69.03,0,.06-.01.07-.04,2.1-17.87,9.58-34.24,20.84-47.31.01-.01.03-.02.05-.02l144.41,14.68h0c3.97,7.11,6.98,14.82,8.87,23,.93,4.01,1.59,8.13,1.96,12.33,4.4,50.42-34.66,93.72-85.21,96.25-188.52,9.46-349.61-134.63-361.15-323.03-3.09-50.52,35.6-94.15,86.19-95.37Z"/>
</svg>