<?xml version="1.0" encoding="UTF-8"?>
<svg id="Layer_1" data-name="Layer 1" xmlns="http://www.w3.org/2000/svg" viewBox="0 0 127.65 159.34">
  <path class="cls-1" d="M120.55,156.84c-1.26,0-2.5-.52-3.39-1.49l-53.33-57.92-53.33,57.92c-1.29,1.4-3.3,1.86-5.06,1.17-1.77-.69-2.93-2.39-2.93-4.29V7.11c0-2.54,2.06-4.61,4.61-4.61h113.44c2.54,0,4.61,2.06,4.61,4.61v145.12c0,1.9-1.16,3.6-2.93,4.29-.54.21-1.11.32-1.67.32ZM63.83,86.03c1.29,0,2.52.54,3.39,1.49l48.72,52.92V11.71H11.71v128.72l48.72-52.92c.87-.95,2.1-1.49,3.39-1.49Z"/>
  <path class="cls-1" d="M7.12,159.34c-.87,0-1.75-.16-2.6-.49-2.75-1.07-4.52-3.67-4.52-6.62V7.11C0,3.19,3.19,0,7.11,0h113.44c3.92,0,7.11,3.19,7.11,7.11v145.12c0,2.95-1.78,5.55-4.52,6.62-2.69,1.05-5.87.3-7.81-1.81l-51.49-55.92-51.49,55.92c-1.38,1.5-3.27,2.3-5.21,2.3ZM7.11,5c-1.16,0-2.11.94-2.11,2.11v145.12c0,.87.53,1.64,1.34,1.96.82.32,1.72.11,2.31-.54l55.17-59.92,55.17,59.92c.58.62,1.51.85,2.32.53.81-.32,1.34-1.09,1.34-1.96V7.11c0-1.16-.95-2.11-2.11-2.11H7.11ZM118.44,146.83l-53.06-57.63c-.8-.86-2.3-.86-3.1,0l-53.06,57.63V9.21h109.23v137.62ZM63.82,83.53c1.98,0,3.89.84,5.23,2.29l44.39,48.2V14.21H14.21v119.81l44.39-48.2c1.34-1.46,3.25-2.29,5.23-2.29Z"/>
</svg>