<?xml version="1.0" encoding="UTF-8"?>
<svg id="Layer_1" xmlns="http://www.w3.org/2000/svg" version="1.1" viewBox="0 0 716.78 791.13">
  <path d="M627.2,79.35h-22.71v-5.87c0-37.76-30.15-68.48-67.21-68.48s-67.22,30.72-67.22,68.48v5.87h-223.33v-5.87c0-37.76-30.15-68.48-67.21-68.48s-67.22,30.72-67.22,68.48v5.87h-22.71c-46.64,0-84.59,37.95-84.59,84.59v537.61c0,46.64,37.95,84.59,84.59,84.59h537.61c46.64,0,84.59-37.95,84.59-84.59V163.94c0-46.64-37.95-84.59-84.59-84.59h0ZM512.35,73.48c0-14.44,11.18-26.18,24.92-26.18s24.92,11.74,24.92,26.18v51.85c0,14.44-11.18,26.18-24.92,26.18s-24.92-11.75-24.92-26.18v-51.85ZM154.59,73.48c0-14.44,11.18-26.18,24.92-26.18s24.92,11.74,24.92,26.18v51.85c0,14.44-11.18,26.18-24.92,26.18s-24.92-11.75-24.92-26.18v-51.85ZM89.59,121.64h22.71v3.69c0,37.76,30.15,68.48,67.22,68.48s67.21-30.72,67.21-68.48v-3.69h223.33v3.69c0,37.76,30.15,68.48,67.22,68.48s67.21-30.72,67.21-68.48v-3.69h22.71c23.32,0,42.29,18.97,42.29,42.29v80.91H47.29v-80.91c0-23.32,18.97-42.29,42.3-42.29ZM627.2,743.84H89.59c-23.32,0-42.3-18.97-42.3-42.3v-414.4h622.2v414.4c0,23.32-18.97,42.3-42.29,42.3Z"/>
  <path d="M627.2,791.14H89.59c-49.4,0-89.59-40.19-89.59-89.59V163.94c0-49.4,40.19-89.59,89.59-89.59h17.71v-.87C107.3,32.96,139.7,0,179.52,0s72.21,32.96,72.21,73.48v.87h213.33v-.87c0-40.52,32.4-73.48,72.22-73.48s72.21,32.96,72.21,73.48v.87h17.71c49.4,0,89.59,40.19,89.59,89.59v537.61c0,49.4-40.19,89.59-89.59,89.59ZM89.59,84.35c-43.89,0-79.59,35.7-79.59,79.59v537.61c0,43.89,35.7,79.59,79.59,79.59h537.61c43.89,0,79.59-35.7,79.59-79.59V163.94c0-43.89-35.7-79.59-79.59-79.59h-27.71v-10.87c0-35-27.91-63.48-62.21-63.48s-62.22,28.48-62.22,63.48v10.87h-233.33v-10.87c0-35-27.91-63.48-62.21-63.48s-62.22,28.48-62.22,63.48v10.87h-27.71ZM627.2,748.84H89.59c-26.08,0-47.3-21.22-47.3-47.3v-419.4h632.2v419.4c0,26.08-21.21,47.3-47.29,47.3ZM52.29,292.14v409.4c0,20.57,16.73,37.3,37.3,37.3h537.61c20.56,0,37.29-16.73,37.29-37.3v-409.4H52.29ZM674.49,249.84H42.29v-85.91c0-26.08,21.22-47.29,47.3-47.29h27.71v8.69c0,35,27.91,63.48,62.22,63.48s62.21-28.48,62.21-63.48v-8.69h233.33v8.69c0,35,27.91,63.48,62.22,63.48s62.21-28.48,62.21-63.48v-8.69h27.71c26.08,0,47.29,21.21,47.29,47.29v85.91ZM52.29,239.84h612.2v-75.91c0-20.56-16.73-37.29-37.29-37.29h-17.72c-.69,39.92-32.81,72.17-72.2,72.17s-71.52-32.25-72.21-72.17h-213.35c-.69,39.92-32.81,72.17-72.2,72.17s-71.52-32.25-72.21-72.17h-17.72c-20.57,0-37.3,16.73-37.3,37.29v75.91ZM537.27,156.51c-16.5,0-29.92-13.99-29.92-31.18v-51.85c0-17.19,13.42-31.18,29.92-31.18s29.92,13.99,29.92,31.18v51.85c0,17.19-13.42,31.18-29.92,31.18ZM537.27,52.3c-10.98,0-19.92,9.5-19.92,21.18v51.85c0,11.68,8.94,21.18,19.92,21.18s19.92-9.5,19.92-21.18v-51.85c0-11.68-8.94-21.18-19.92-21.18ZM179.51,156.51c-16.5,0-29.92-13.99-29.92-31.18v-51.85c0-17.19,13.42-31.18,29.92-31.18s29.92,13.99,29.92,31.18v51.85c0,17.19-13.42,31.18-29.92,31.18ZM179.51,52.3c-10.98,0-19.92,9.5-19.92,21.18v51.85c0,11.68,8.94,21.18,19.92,21.18s19.92-9.5,19.92-21.18v-51.85c0-11.68-8.94-21.18-19.92-21.18Z"/>
</svg>