<?xml version="1.0" encoding="UTF-8"?>
<svg id="Layer_1" data-name="Layer 1" xmlns="http://www.w3.org/2000/svg" viewBox="0 0 770.67 770.66">
  <path class="cls-1" d="M27.17,770.66c-7.11,0-14.04-2.79-19.21-7.96-6.86-6.86-9.55-16.87-7.04-26.24l46.83-174.72c.6-2.48,1.59-4.88,2.9-7.18,1.27-2.12,2.8-4.07,4.56-5.76L596.05,7.96c10.61-10.61,27.8-10.61,38.41,0l128.25,128.25c10.61,10.61,10.61,27.8,0,38.41L221.91,715.42c-1.77,1.84-3.82,3.47-6.08,4.74-2.2,1.24-4.49,2.16-6.9,2.76l-174.73,46.83c-2.33.6-4.7.92-7.04.92ZM88.18,620.8l-22.6,84.29,84.28-22.6-61.68-61.69ZM112.52,568.31l89.84,89.84,393.27-393.27-89.84-89.84L112.52,568.31ZM544.2,136.63l89.84,89.84,71.06-71.06-89.84-89.84-71.06,71.06Z"/>
</svg>