<?xml version="1.0" encoding="UTF-8"?>
<svg id="Layer_1" data-name="Layer 1" xmlns="http://www.w3.org/2000/svg" viewBox="0 0 716.2 717.82">
  <g>
    <path class="cls-1" d="M656.72,703.47c12.46,12.46,32.67,12.46,45.13,0,12.46-12.46,12.46-32.67,0-45.13l-45.13,45.13ZM450.23,496.98l206.49,206.49,45.13-45.13-206.49-206.49-45.13,45.13Z"/>
    <path class="cls-1" d="M679.29,717.82c-8.17,0-15.94-2.64-22.33-7.51l-.24.24-3.5-3.5s-.03-.03-.04-.04l-210.03-210.03,52.2-52.2,210.03,210.03s.03.03.04.04l3.5,3.5-.24.24c4.87,6.39,7.51,14.16,7.51,22.33,0,9.86-3.84,19.13-10.81,26.1-6.97,6.97-16.24,10.81-26.1,10.81ZM664.12,703.15c4.43,3.04,9.67,4.67,15.17,4.67,7.19,0,13.95-2.8,19.03-7.88,5.08-5.08,7.88-11.84,7.88-19.03,0-5.49-1.63-10.73-4.67-15.17l-37.41,37.41ZM457.3,496.98l199.42,199.42,38.06-38.06-199.42-199.42-38.06,38.06Z"/>
  </g>
  <path class="cls-1" d="M288.55,577.1c-77.07,0-149.54-30.01-204.04-84.51S0,365.63,0,288.55,30.01,139.01,84.51,84.51,211.48,0,288.55,0s149.54,30.01,204.04,84.51,84.51,126.96,84.51,204.04-30.01,149.54-84.51,204.04-126.96,84.51-204.04,84.51ZM288.55,60c-126.02,0-228.55,102.53-228.55,228.55s102.53,228.55,228.55,228.55,228.55-102.53,228.55-228.55S414.57,60,288.55,60Z"/>
</svg>