<?xml version="1.0" encoding="UTF-8"?>
<svg id="Layer_1" data-name="Layer 1" xmlns="http://www.w3.org/2000/svg" viewBox="0 0 592.31 819.67">
  <defs>
    <style>
      .cls-1, .cls-2 {
        fill: #26cbb0;
      }

      .cls-2 {
        stroke: #26cbb0;
        stroke-miterlimit: 10;
        stroke-width: 10px;
      }
    </style>
  </defs>
  <g>
    <path class="cls-1" d="M423.56,48c.16.76.84,1.31,1.62,1.31,31.11-.18,69.13-.21,114.12-.1,4.47,0,14.03,3.51,18.6,6.52,17.01,11.12,28.6,27.63,28.78,48.02.24,27.71.44,240.14.63,637.3.03,15.83-.86,26.38-2.62,31.69-6.91,20.8-27.21,36.63-48.02,41.55-1.13.26-2.25.39-3.4.39-170.9-.21-322.35-.26-454.42-.16-16.2,0-27.03-1.05-32.45-3.11-14.94-5.76-34.07-21.33-38.26-37.55-2.09-8.06-3.14-15.44-3.14-22.14-.03-132.62,0-346.66.1-642.17.03-26.72,13.71-49.85,40.01-58.35,5.05-1.65,12.3-2.43,21.69-2.36,48.59.31,80.49.34,95.67.1,1.1-.03,2.09-.65,2.56-1.65,3.43-7.09,5.15-14.86,9.66-21.35,5.47-7.85,12.3-13.63,20.52-17.35,5.34-2.41,14.18-3.61,26.56-3.58,49.3.08,101.06.26,155.3.5,6.99.03,14.23,2.36,21.74,6.96,13.32,8.19,21.56,20.02,24.73,35.54M395.7,59.12c-.01-12.88-10.48-23.32-23.38-23.3l-156.01.27c-12.9.02-23.31,10.49-23.3,23.38l.03,16.01c.01,12.88,10.48,23.32,23.38,23.3l156.01-.27c12.9-.02,23.31-10.49,23.3-23.38l-.03-16.01M426.77,80.02l-5.08,18.03c-.03.13-.08.24-.16.34-7.25,13.63-17.56,23.24-30.88,28.76-5.57,2.3-13.03,3.45-22.4,3.48-61.31.13-114.93.1-160.9-.03-2.12-.03-4.24-.39-6.23-1.13-22.58-8.24-34.65-24.78-36.19-49.61-.05-.89-.81-1.6-1.7-1.62-25.77-.18-57.25-.29-94.41-.31-15.26,0-25.77,6.23-31.56,18.71-5,10.81-3.53,22.5-3.53,39.49-.08,168.86-.1,370.74-.03,605.59,0,13.66,1.39,23.08,4.13,28.23,5.13,9.63,14.21,14.5,27.24,14.58,15.65.13,167.6.16,455.83.1,8.84,0,15.26-1.05,19.21-3.17,11.12-5.91,17.17-16.07,18.11-30.48.55-8.5.84-20.02.81-34.59-.08-151.95-.08-352.05.03-600.28,0-9.81-.89-16.38-2.67-19.7-3.24-6.07-7.9-10.86-13.97-14.37-4.74-2.75-12.35-4.11-22.82-4.08-24.57,0-54.72.08-90.43.24-1.13,0-2.09.76-2.41,1.83h0Z"/>
    <path class="cls-1" d="M533.27,819.67c-169.77-.21-322.66-.26-454.42-.16-16.97,0-28.16-1.13-34.23-3.44-16.56-6.38-36.65-22.9-41.32-40.97C1.12,766.68,0,758.8,0,751.71-.01,650.48,0,456.9.11,109.54c.03-30.73,16.28-54.32,43.47-63.11,5.61-1.83,13.22-2.68,23.27-2.6,46.59.3,78.28.34,94.23.12.96-2.13,1.79-4.32,2.66-6.61,1.81-4.77,3.68-9.7,6.84-14.26,5.98-8.58,13.56-14.99,22.56-19.06C199.23,1.29,208.59-.07,221.79,0c43.94.07,93.3.23,155.31.5,7.87.03,16.06,2.62,24.34,7.7,13.71,8.43,22.58,20.56,26.41,36.09,29.86-.16,66.37-.19,111.46-.09,5.72,0,16.18,3.94,21.34,7.34,19.83,12.96,30.85,31.49,31.04,52.15.23,27.56.45,241.99.63,637.35.03,16.45-.91,27.33-2.87,33.26-7.04,21.2-27.78,39.22-51.61,44.85-1.51.35-3.04.53-4.55.53ZM217,809.46c97.06,0,202.9.07,316.28.21.76,0,1.5-.09,2.26-.26,20.57-4.86,38.42-20.24,44.4-38.26,1.09-3.31,2.39-11.23,2.36-30.1-.18-395.33-.39-609.74-.63-637.27-.15-17.21-9.57-32.79-26.52-43.87-3.98-2.61-12.57-5.7-15.87-5.7-46.43-.11-83.74-.07-114.09.1-3.17,0-5.92-2.23-6.55-5.3h0c-2.9-14.22-10.24-24.78-22.45-32.28-6.69-4.1-13.13-6.2-19.14-6.22-62.01-.27-111.36-.43-155.29-.5-14.4-.07-21.28,1.69-24.5,3.14-7.33,3.31-13.54,8.58-18.47,15.65-2.46,3.54-4.04,7.7-5.71,12.1-1.07,2.81-2.17,5.71-3.55,8.57-1.27,2.67-3.93,4.4-6.95,4.47-15.6.24-47.83.21-95.82-.1-8.85-.08-15.6.64-20.11,2.11-22.87,7.4-36.54,27.43-36.56,53.6-.12,347.36-.12,540.94-.1,642.16,0,6.25,1,13.27,2.98,20.88,3.64,14.11,21.11,28.71,35.21,34.14,3.31,1.26,11.34,2.78,30.65,2.78,43.76-.03,89.88-.05,138.15-.05ZM160.54,45.12s0,.02-.01.03c0,0,0-.02.01-.03ZM286.57,789.66c-140.93,0-211.03-.04-221.52-.13-14.93-.09-25.57-5.89-31.61-17.22-3.18-5.96-4.72-15.96-4.72-30.58-.07-212.31-.06-416.06.03-605.59,0-3.26-.05-6.31-.11-9.26-.23-12.61-.4-22.58,4.1-32.32,6.64-14.34,18.79-21.61,36.1-21.61,37.03.03,68.81.13,94.45.31h.11c3.47.1,6.34,2.88,6.54,6.33,1.42,22.85,12.19,37.64,32.91,45.21,1.43.53,2.97.8,4.57.82,49.12.14,103.25.15,160.83.03,8.68-.02,15.58-1.07,20.5-3.1,12.09-5.01,21.59-13.84,28.25-26.26l4.97-17.65c.94-3.19,3.9-5.43,7.21-5.43,35.57-.16,66.01-.24,90.43-.24.1,0,.21,0,.31,0,11.31,0,19.5,1.56,25.01,4.76,6.86,3.96,12.2,9.46,15.87,16.33,2.22,4.15,3.26,11.16,3.26,22.06-.1,237.71-.11,439.67-.03,600.27.03,14.34-.25,26.09-.82,34.92-1.06,16.19-8.04,27.82-20.75,34.58-4.7,2.52-11.76,3.75-21.55,3.75-93.13.02-170.93.03-234.35.03ZM68.83,82.93c-13.25,0-22.09,5.17-27.02,15.81-3.54,7.66-3.39,16.16-3.18,27.94.05,3,.11,6.09.11,9.45-.09,189.53-.1,393.28-.03,605.59,0,15.89,1.93,22.85,3.55,25.88,4.24,7.96,11.72,11.86,22.86,11.93,15.2.13,155.77.16,455.8.1,9.96,0,14.66-1.4,16.85-2.57,9.59-5.1,14.65-13.74,15.48-26.41.56-8.6.83-20.13.8-34.26-.08-160.61-.07-362.57.03-600.29,0-11.71-1.3-15.89-2.08-17.34-2.82-5.28-6.77-9.34-12.07-12.4-2.69-1.56-8.35-3.41-20.02-3.41-.09,0-.19,0-.28,0-24,0-53.77.08-88.55.23l-4.54,16.12c-.15.58-.38,1.13-.7,1.65-7.78,14.52-18.97,24.89-33.26,30.82-6.22,2.57-14.17,3.83-24.3,3.86-57.6.12-111.75.11-160.93-.03-2.8-.03-5.45-.52-7.94-1.43-23.56-8.6-36.75-25.74-39.21-50.95-25.08-.17-55.8-.27-91.37-.29ZM429.22,83.19h-.02.02ZM159.95,80.18v.02s0-.02,0-.02ZM216.38,103.79c-7.56,0-14.67-2.94-20.02-8.27-5.36-5.35-8.32-12.46-8.33-20.03l-.03-16.01c-.02-15.63,12.68-28.37,28.29-28.39l156.01-.27h.05c7.56,0,14.66,2.94,20.02,8.27,5.36,5.34,8.32,12.45,8.33,20.02l.03,16.01c.01,15.63-12.68,28.37-28.29,28.39l-156.01.27h-.05ZM372.36,40.82h-.03l-156.01.27c-10.11.02-18.32,8.26-18.31,18.38l.03,16.01c0,4.9,1.92,9.5,5.39,12.96,3.46,3.45,8.06,5.35,12.96,5.35h.03l156.01-.27c10.11-.02,18.32-8.26,18.31-18.38l-.03-16.01c0-4.89-1.92-9.49-5.39-12.95-3.46-3.45-8.06-5.35-12.96-5.35Z"/>
  </g>
  <path class="cls-1" d="M129.12,213.82c.78.03,1.44-.65,1.41-1.47-.73-13.89-.97-27.32-.73-40.22.13-7.01,3.19-12.04,9.24-15.1.76-.39,1.6-.6,2.43-.6,1.2-.03,21.12-.08,59.74-.16,5.21,0,8.43,2.2,9.71,6.62,1.62,5.63,2.41,11.75,2.35,18.4-.1,11.38,0,21.54.34,30.51.03.89.76,1.6,1.65,1.6l43.1.31c3.82.03,7.3,2.2,9.03,5.6,1.65,3.22,3.19,10.07,3.24,14.13.16,15.57.26,30.25.31,44.01.03,9.63-3.35,21.82-14.94,22.71-5.05.39-18.79.55-41.21.52-1.28,0-2.3,1.07-2.22,2.35.29,4.74.65,14.73,1.13,30.01.1,3.27-.65,8.11-2.25,14.52-.21.81-.65,1.57-1.28,2.15-4.27,3.95-9.24,5.91-14.94,5.86-12.98-.1-25.23-.16-36.71-.13-14.97.03-28.94,1.62-28.71-16.46.18-14.58.21-26.51.03-35.77-.03-1.41-1.2-2.51-2.62-2.46-18.5.81-29.62,1.18-33.42,1.05-7.56-.26-18.37-5.44-18.6-14.42-.6-23.32-.78-38.86-.52-46.6.18-5.89,1.49-12.51,3.93-19.86.44-1.31,1.33-2.43,2.54-3.14,4.27-2.54,7.22-3.87,8.92-3.95,9.81-.42,22.84-.42,39.07-.03M160.94,329.14h21.61c.94,0,1.7-.76,1.67-1.7-.16-19.7-.1-33.44.18-41.19.18-5.05,3.11-9.26,8.79-12.64.29-.18.63-.26.99-.26l45.64.6c1.28.03,2.36-1.02,2.36-2.3v-27.11c0-1.05-.84-1.88-1.88-1.88-15.07-.03-29.2-.08-42.39-.13-9.21-.03-13.74-4.53-13.55-13.48.39-21.35.31-34.46-.24-39.3-.13-1.15-1.1-2.04-2.25-2.04h-20.49c-1.26,0-2.28,1.02-2.3,2.28-.08,14.1-.05,26.9.13,38.41.1,6.23-2.46,10.86-7.67,13.87-.63.37-1.31.55-2.01.55h-43.8c-1.94,0-3.51,1.57-3.51,3.51v25.83c0,.79.63,1.41,1.41,1.44,17.45.29,31.69.31,42.68.08,10.2-.21,13.21,8.27,13.01,16.88-.18,8.82-.18,21.14.03,37.03.03.86.73,1.57,1.6,1.57h0Z"/>
  <g>
    <path class="cls-1" d="M508.89,219.57c0,8.09-6.54,14.63-14.63,14.63h-169.15c-8.09,0-14.63-6.54-14.63-14.63v-.78c0-8.09,6.54-14.63,14.63-14.63h169.15c8.09,0,14.63,6.54,14.63,14.63v.78h0Z"/>
    <path class="cls-1" d="M494.26,239.2h-169.14c-10.82,0-19.63-8.8-19.63-19.63v-.79c0-10.82,8.81-19.63,19.63-19.63h169.14c10.82,0,19.63,8.8,19.63,19.63v.79c0,10.82-8.8,19.63-19.63,19.63ZM325.11,209.16c-5.31,0-9.63,4.32-9.63,9.63v.79c0,5.31,4.32,9.63,9.63,9.63h169.14c5.31,0,9.63-4.32,9.63-9.63v-.79c0-5.31-4.32-9.63-9.63-9.63h-169.14Z"/>
  </g>
  <g>
    <path class="cls-1" d="M509.04,300.24c-.02,7.55-6.15,13.67-13.71,13.66l-171.66-.3c-7.56,0-13.69-6.16-13.66-13.71v-1.41c.03-7.55,6.15-13.67,13.71-13.66l171.66.3c7.56,0,13.69,6.16,13.66,13.71v1.41h0Z"/>
    <path class="cls-1" d="M495.35,318.9h-.02l-171.66-.3c-4.99,0-9.69-1.96-13.21-5.5-3.52-3.54-5.46-8.24-5.44-13.23v-1.41c.04-10.29,8.42-18.65,18.7-18.65h.02l171.66.3c4.99,0,9.69,1.96,13.21,5.5,3.52,3.54,5.46,8.24,5.44,13.23v1.41c-.04,10.28-8.42,18.65-18.7,18.65ZM323.71,289.82c-4.78,0-8.68,3.89-8.69,8.68v1.41c-.01,2.32.89,4.5,2.52,6.15,1.64,1.65,3.82,2.55,6.14,2.56l171.66.3h0c4.77,0,8.67-3.89,8.69-8.67v-1.41c.01-2.32-.89-4.5-2.52-6.14-1.64-1.65-3.82-2.55-6.14-2.56l-171.66-.3h0Z"/>
  </g>
  <g>
    <path class="cls-1" d="M508.49,414.47c0,7.88-6.38,14.26-14.26,14.26H98.01c-7.88,0-14.26-6.38-14.26-14.26v-.21c0-7.88,6.38-14.26,14.26-14.26h396.22c7.88,0,14.26,6.38,14.26,14.26v.21h0Z"/>
    <path class="cls-1" d="M494.23,433.73H98.01c-10.62,0-19.26-8.64-19.26-19.26v-.21c0-10.62,8.64-19.26,19.26-19.26h396.23c10.62,0,19.26,8.64,19.26,19.26v.21c0,10.62-8.64,19.26-19.26,19.26ZM98.01,405c-5.11,0-9.26,4.15-9.26,9.26v.21c0,5.11,4.15,9.26,9.26,9.26h396.23c5.11,0,9.26-4.15,9.26-9.26v-.21c0-5.11-4.15-9.26-9.26-9.26H98.01Z"/>
  </g>
  <g>
    <path class="cls-1" d="M508.36,503.7c0,7.85-6.36,14.21-14.21,14.21H97.67c-7.85,0-14.21-6.36-14.21-14.21v-.21c0-7.85,6.36-14.21,14.21-14.21h396.49c7.85,0,14.21,6.36,14.21,14.21v.21h0Z"/>
    <path class="cls-1" d="M494.15,522.91H97.67c-10.59,0-19.21-8.62-19.21-19.21v-.21c0-10.59,8.62-19.21,19.21-19.21h396.49c10.59,0,19.21,8.62,19.21,19.21v.21c0,10.59-8.62,19.21-19.21,19.21ZM97.67,494.28c-5.08,0-9.21,4.13-9.21,9.21v.21c0,5.08,4.13,9.21,9.21,9.21h396.49c5.08,0,9.21-4.13,9.21-9.21v-.21c0-5.08-4.13-9.21-9.21-9.21H97.67Z"/>
  </g>
  <g>
    <path class="cls-1" d="M509.28,595.7c0,8.27-6.73,14.99-14.99,14.99H98.74c-8.27,0-14.99-6.72-14.99-14.99v-.26c0-8.27,6.73-14.99,14.99-14.99h395.54c8.27,0,14.99,6.72,14.99,14.99v.26h0Z"/>
    <path class="cls-1" d="M494.28,615.7H98.74c-11.02,0-19.99-8.97-19.99-19.99v-.26c0-11.02,8.97-19.99,19.99-19.99h395.54c11.02,0,19.99,8.97,19.99,19.99v.26c0,11.02-8.97,19.99-19.99,19.99ZM98.74,585.45c-5.51,0-9.99,4.48-9.99,9.99v.26c0,5.51,4.48,9.99,9.99,9.99h395.54c5.51,0,9.99-4.48,9.99-9.99v-.26c0-5.51-4.48-9.99-9.99-9.99H98.74Z"/>
  </g>
  <path class="cls-2" d="M311.14,682.39c0,8.27-6.7,14.97-14.97,14.97H98.03c-8.27,0-14.97-6.7-14.97-14.97v-.58c0-8.27,6.7-14.97,14.97-14.97h198.14c8.27,0,14.97,6.7,14.97,14.97v.58h0Z"/>
</svg>