<?xml version="1.0" encoding="UTF-8"?>
<svg id="Layer_1" xmlns="http://www.w3.org/2000/svg" version="1.1" viewBox="0 0 212.9 212.9">
  <path d="M106.4,212.9c-4.8,0-8.8-3.9-8.8-8.8v-31.7c0-4.8,3.9-8.8,8.8-8.8s8.8,3.9,8.8,8.8v31.7c0,4.8-3.9,8.8-8.8,8.8ZM175.5,184.3c-2.2,0-4.5-.9-6.2-2.6l-22.4-22.4c-3.4-3.4-3.4-9,0-12.4,3.4-3.4,9-3.4,12.4,0l22.4,22.4c3.4,3.4,3.4,9,0,12.4-1.7,1.7-3.9,2.6-6.2,2.6ZM37.3,184.3c-2.2,0-4.5-.9-6.2-2.6-3.4-3.4-3.4-9,0-12.4l22.4-22.4c3.4-3.4,9-3.4,12.4,0,3.4,3.4,3.4,9,0,12.4l-22.4,22.4c-1.7,1.7-3.9,2.6-6.2,2.6ZM106.1,150.5c-25,0-45.4-20.4-45.4-45.4s20.4-45.4,45.4-45.4,45.4,20.4,45.4,45.4-20.4,45.4-45.4,45.4ZM106.1,77.3c-15.4,0-27.9,12.5-27.9,27.9s12.5,27.9,27.9,27.9,27.9-12.5,27.9-27.9-12.5-27.9-27.9-27.9ZM204.1,115.2h-31.7c-4.8,0-8.8-3.9-8.8-8.7s3.9-8.8,8.8-8.8h31.7c4.8,0,8.8,3.9,8.8,8.8s-3.9,8.7-8.8,8.7ZM40.4,115.2H8.8c-4.8,0-8.8-3.9-8.8-8.7s3.9-8.8,8.8-8.8h31.7c4.8,0,8.8,3.9,8.8,8.8s-3.9,8.7-8.8,8.7ZM153.1,68.5c-2.2,0-4.5-.9-6.2-2.6-3.4-3.4-3.4-9,0-12.4l22.4-22.4c3.4-3.4,9-3.4,12.4,0,3.4,3.4,3.4,9,0,12.4l-22.4,22.4c-1.7,1.7-3.9,2.6-6.2,2.6ZM59.8,68.5c-2.2,0-4.5-.9-6.2-2.6l-22.4-22.4c-3.4-3.4-3.4-9,0-12.4,3.4-3.4,9-3.4,12.4,0l22.4,22.4c3.4,3.4,3.4,9,0,12.4-1.7,1.7-3.9,2.6-6.2,2.6ZM106.4,49.2c-4.8,0-8.8-3.9-8.8-8.8V8.8c0-4.8,3.9-8.8,8.8-8.8s8.8,3.9,8.8,8.8v31.7c0,4.8-3.9,8.8-8.8,8.8Z"/>
</svg>