<?xml version="1.0" encoding="UTF-8"?>
<svg id="Layer_1" data-name="Layer 1" xmlns="http://www.w3.org/2000/svg" viewBox="0 0 60.48 60.48">
  <path class="cls-1" d="M28.44,46.25l-6.29,6.29c-1.9,1.9-4.42,2.94-7.11,2.94s-5.21-1.04-7.11-2.94c-1.9-1.9-2.94-4.42-2.94-7.11,0-2.68,1.05-5.21,2.94-7.11l10.79-10.79c1.23-1.23,2.75-2.12,4.41-2.58.02,0,.03,0,.05-.01,2.78-.75,5.83-.26,8.22,1.33.55.37,1.06.79,1.53,1.26s.89.98,1.26,1.53c.77,1.15,2.32,1.46,3.47.69,1.15-.77,1.46-2.32.69-3.47-.55-.82-1.18-1.59-1.88-2.29s-1.47-1.33-2.29-1.88c-2.47-1.65-5.36-2.53-8.35-2.53-1.32,0-2.63.17-3.9.51-.02,0-.04.01-.06.02-2.52.69-4.83,2.03-6.68,3.88l-10.79,10.79C1.57,37.64,0,41.41,0,45.43c0,4.02,1.56,7.8,4.41,10.64,2.84,2.84,6.62,4.41,10.64,4.41h0c4.02,0,7.8-1.57,10.64-4.41l6.29-6.29c.98-.98.98-2.56,0-3.54-.98-.98-2.56-.98-3.54,0Z"/>
  <path class="cls-1" d="M56.08,4.41C53.23,1.57,49.46,0,45.44,0c0,0,0,0,0,0C41.41,0,37.63,1.57,34.79,4.41l-6.28,6.28c-.98.98-.98,2.56,0,3.54.98.98,2.56.98,3.54,0l6.28-6.28c1.9-1.9,4.42-2.94,7.1-2.94h0c2.68,0,5.2,1.04,7.1,2.94s2.94,4.42,2.94,7.11-1.04,5.21-2.94,7.11l-10.79,10.79c-1.24,1.24-2.78,2.14-4.46,2.59-2.81.76-5.81.28-8.22-1.33-.55-.37-1.06-.79-1.53-1.26s-.89-.99-1.26-1.53c-.77-1.15-2.32-1.46-3.47-.69-1.15.77-1.46,2.32-.69,3.47.55.82,1.18,1.59,1.88,2.29s1.47,1.33,2.29,1.88c2.49,1.67,5.4,2.53,8.35,2.53,1.32,0,2.66-.17,3.96-.53,2.52-.69,4.83-2.03,6.68-3.88l10.79-10.79c2.84-2.84,4.41-6.62,4.41-10.64s-1.57-7.8-4.41-10.64Z"/>
</svg>