<?xml version="1.0" encoding="UTF-8"?>
<svg id="Layer_1" data-name="Layer 1" xmlns="http://www.w3.org/2000/svg" viewBox="0 0 1430.18 1872.27">
  <path class="cls-1" d="M715.08,1835.43l-17.72-19.18c-.94-1.02-95.01-102.92-203.08-226-145.47-165.67-245.68-288.78-297.86-365.9-61.46-90.85-107.09-183.55-135.61-275.54-27.9-89.95-39.59-179.58-34.75-266.41,4.77-85.6,25.59-168.45,61.88-246.25,36.05-77.28,87.3-149.44,152.32-214.46,64.1-64.1,138.84-113.73,222.16-147.52,80.46-32.63,165.46-49.17,252.66-49.17s172.22,16.54,252.67,49.17c83.32,33.79,158.06,83.42,222.16,147.52,65.03,65.03,116.28,137.18,152.32,214.46,36.29,77.8,57.11,160.65,61.88,246.25,4.84,86.82-6.85,176.45-34.75,266.41-28.53,91.99-74.16,184.69-135.61,275.54-52.18,77.12-152.39,200.23-297.87,365.9-108.07,123.07-202.15,224.98-203.09,226l-17.72,19.18ZM715.08,73.25c-166.46,0-322.97,64.83-440.69,182.56C18.54,511.65,4.69,854.82,236.39,1197.31c106.6,157.56,403.06,484.24,478.69,566.89,75.63-82.65,372.11-409.32,478.71-566.89,231.7-342.49,217.85-685.66-38-941.51-117.72-117.72-274.24-182.56-440.72-182.56ZM715.08,1050.62c-51.21,0-100.89-10.03-147.68-29.82-45.18-19.11-85.75-46.46-120.58-81.29-34.83-34.83-62.19-75.4-81.29-120.58-19.79-46.79-29.82-96.47-29.82-147.68s10.03-100.89,29.82-147.68c19.11-45.18,46.46-85.75,81.29-120.58,34.83-34.83,75.4-62.19,120.58-81.29,46.79-19.79,96.47-29.82,147.68-29.82s100.89,10.03,147.68,29.82c45.18,19.11,85.75,46.46,120.58,81.29,34.83,34.83,62.19,75.4,81.29,120.58,19.79,46.79,29.82,96.47,29.82,147.68s-10.03,100.89-29.82,147.68c-19.11,45.18-46.46,85.75-81.29,120.58-34.83,34.83-75.4,62.19-120.58,81.29-46.79,19.79-96.47,29.82-147.68,29.82ZM715.08,340.11c-182.59,0-331.13,148.54-331.13,331.13s148.54,331.13,331.13,331.13,331.13-148.54,331.13-331.13-148.55-331.13-331.13-331.13Z"/>
  <path class="cls-1" d="M715.08,1872.27l-36.08-39.06c-3.95-4.28-97.13-105.32-203.5-226.47-146.15-166.45-247.01-290.39-299.78-368.39-62.84-92.88-109.53-187.81-138.79-282.14C8.15,863.41-3.9,770.82,1.1,681.01c4.95-88.79,26.55-174.73,64.19-255.43,37.28-79.93,90.21-154.48,157.3-221.57,66.48-66.48,144.01-117.96,230.44-153.01C536.48,17.16,624.65,0,715.08,0s178.61,17.16,262.07,51c86.43,35.05,163.96,86.53,230.44,153.01s120.02,141.64,157.3,221.57c37.64,80.7,59.24,166.64,64.19,255.43,5.01,89.81-7.05,182.4-35.83,275.2-29.26,94.34-75.95,189.26-138.79,282.14-52.76,77.99-153.63,201.93-299.79,368.39-107.69,122.64-202.59,225.47-203.52,226.47l-36.08,39.05ZM715.08,98.25c-159.79,0-310.02,62.23-423.02,175.23-246.58,246.58-259.32,578.19-34.97,909.82,97.86,144.64,355.66,431.5,457.99,543.82,102.33-112.32,360.15-399.18,458.01-543.82,224.35-331.63,211.61-663.25-34.97-909.82-113-113-263.24-175.23-423.04-175.23ZM715.08,1075.62c-54.57,0-107.53-10.7-157.42-31.8-48.16-20.37-91.4-49.52-128.52-86.64-37.12-37.12-66.27-80.36-86.64-128.52-21.1-49.89-31.8-102.85-31.8-157.42s10.7-107.53,31.8-157.42c20.37-48.16,49.52-91.4,86.64-128.52,37.12-37.12,80.36-66.27,128.52-86.64,49.88-21.1,102.85-31.8,157.42-31.8s107.53,10.7,157.42,31.8c48.16,20.37,91.4,49.52,128.52,86.64,37.12,37.12,66.27,80.37,86.64,128.52,21.1,49.88,31.8,102.85,31.8,157.42s-10.7,107.53-31.8,157.42c-20.37,48.16-49.52,91.4-86.64,128.52-37.12,37.12-80.36,66.27-128.52,86.64-49.89,21.1-102.85,31.8-157.42,31.8ZM715.08,365.11c-168.8,0-306.13,137.33-306.13,306.13s137.33,306.13,306.13,306.13,306.13-137.33,306.13-306.13-137.33-306.13-306.13-306.13Z"/>
</svg>