<?xml version="1.0" encoding="UTF-8"?>
<svg id="Layer_1" data-name="Layer 1" xmlns="http://www.w3.org/2000/svg" viewBox="0 0 917.32 683.15">
  <g>
    <path class="cls-1" d="M597.12,34.97c69.4,0,126.32,54.45,130.28,122.88,4.6,79.44-58.47,142.5-137.9,137.91-68.42-3.96-122.88-60.88-122.88-130.28s58.54-130.5,130.5-130.5M597.12,5c-93.55,0-168.4,80.05-159.8,175.38,6.54,72.51,72.38,138.34,144.89,144.89,95.33,8.6,175.38-66.25,175.38-159.8,0-88.62-71.84-160.47-160.47-160.47h0Z"/>
    <path class="cls-1" d="M597.33,330.95c-5.16,0-10.34-.23-15.56-.7-36.23-3.27-71.84-20.72-100.27-49.15-28.43-28.43-45.88-64.04-49.15-100.27-4.25-47.15,10.87-92.24,42.6-126.95C506.23,19.64,550.77,0,597.12,0c91.24,0,165.47,74.23,165.47,165.47,0,46.36-19.64,90.89-53.88,122.18-30.87,28.21-69.95,43.3-111.39,43.3ZM597.12,10c-43.55,0-85.4,18.45-114.8,50.62-29.81,32.62-44.02,74.99-40.02,119.31,6.3,69.78,70.57,134.06,140.36,140.35,4.9.44,9.79.66,14.63.66,38.95,0,75.67-14.17,104.67-40.68,32.17-29.4,50.62-71.24,50.62-114.8,0-85.73-69.74-155.47-155.47-155.47ZM597.77,300.99c-2.84,0-5.69-.08-8.56-.25-71.54-4.14-127.59-63.56-127.59-135.27s60.79-135.5,135.5-135.5,131.13,56.04,135.27,127.59c2.31,39.86-11.51,76.9-38.9,104.29-25.42,25.42-59.15,39.14-95.73,39.14ZM597.12,39.97c-69.2,0-125.5,56.3-125.5,125.5s51.91,121.46,118.17,125.29c2.67.15,5.32.23,7.96.23,33.92,0,65.17-12.7,88.68-36.21,25.34-25.34,38.12-59.67,35.98-96.64-3.84-66.26-58.87-118.17-125.29-118.17Z"/>
  </g>
  <g>
    <path class="cls-1" d="M912.32,678.14h-30.11c0-10.11-.48-20.1-1.4-29.97h-.02c-6.73-64.85-35.24-124.97-81.99-171.72-50.31-50.31-116.12-79.49-186.64-83.15-4.99-.26-10.01-.38-15.04-.38s-10.05.12-15.04.38c-70.52,3.66-136.31,32.84-186.64,83.15-46.75,46.75-75.26,106.87-81.99,171.72h-.04c-.92,9.87-1.4,19.86-1.4,29.97h-30.07c0-10.11.48-20.1,1.4-29.97,0-.08.02-.14.02-.22,14.74-154.99,141.71-277.26,298.72-284.63,4.99-.24,10.01-.36,15.04-.36s10.05.12,15.04.36c167.08,7.85,300.16,145.78,300.16,314.82Z"/>
    <path class="cls-1" d="M917.32,683.14h-40.11v-5c0-9.36-.43-18.87-1.27-28.28l-.13-1.17c-6.68-64.34-34.53-122.68-80.55-168.7-49.1-49.1-114.21-78.11-183.36-81.69-9.5-.49-20.07-.49-29.57,0-69.13,3.58-134.25,32.6-183.36,81.69-46.02,46.02-73.87,104.35-80.55,168.7l-.27,2.63c-.76,8.93-1.14,17.94-1.14,26.82v5h-40.07v-5c0-10.04.47-20.24,1.41-30.32,0-.1.02-.2.03-.29v-.05c7.26-76.32,41.9-147.64,97.54-200.82,55.81-53.35,128.95-84.73,205.93-88.34,10.08-.48,20.48-.48,30.56,0,82.27,3.87,159.02,38.85,216.11,98.5,57.27,59.85,88.81,138.45,88.81,221.31v5ZM887.18,673.14h20.11c-2.58-163.68-131.38-297.12-295.35-304.83-9.78-.47-19.84-.47-29.61,0-153.06,7.19-279.41,127.55-293.97,280,0,.1-.02.19-.03.29v.03c-.76,8.14-1.21,16.36-1.34,24.5h20.07c.13-8.45.59-16.98,1.38-25.43l.42-4.54h.12c3.74-31.31,12.46-61.49,25.95-89.8,14.19-29.76,33.36-56.83,56.98-80.45,50.87-50.85,118.31-80.9,189.92-84.61,9.84-.51,20.77-.51,30.61,0,71.62,3.71,139.07,33.76,189.92,84.61,23.62,23.62,42.79,50.69,56.98,80.45,13.49,28.3,22.21,58.49,25.95,89.8h.08l.44,4.54c.79,8.45,1.25,16.98,1.38,25.43Z"/>
  </g>
  <g>
    <path class="cls-1" d="M264.35,148.91c59.21,0,107.38,48.17,107.38,107.38s-48.17,107.38-107.38,107.38-107.38-48.17-107.38-107.38,48.17-107.38,107.38-107.38M264.35,124.25c-72.93,0-132.04,59.12-132.04,132.04s59.12,132.04,132.04,132.04,132.04-59.12,132.04-132.04-59.12-132.04-132.04-132.04h0Z"/>
    <path class="cls-1" d="M264.35,393.34c-75.57,0-137.04-61.48-137.04-137.04s61.48-137.04,137.04-137.04,137.04,61.48,137.04,137.04-61.48,137.04-137.04,137.04ZM264.35,129.25c-70.05,0-127.04,56.99-127.04,127.04s56.99,127.04,127.04,127.04,127.04-56.99,127.04-127.04-56.99-127.04-127.04-127.04ZM264.35,368.68c-61.97,0-112.38-50.42-112.38-112.38s50.42-112.38,112.38-112.38,112.38,50.42,112.38,112.38-50.42,112.38-112.38,112.38ZM264.35,153.91c-56.45,0-102.38,45.93-102.38,102.38s45.93,102.38,102.38,102.38,102.38-45.93,102.38-102.38-45.93-102.38-102.38-102.38Z"/>
  </g>
  <g>
    <path class="cls-1" d="M351.81,433.93c1.82.66,3.64,1.32,5.43,2.02-6.31,6.29-12.37,12.83-18.16,19.6-19.96-6.67-40.88-10.67-62.35-11.77-4.12-.22-8.23-.32-12.37-.32s-8.27.1-12.39.32c-58.04,3-112.16,27.01-153.58,68.41-38.48,38.48-61.93,87.95-67.47,141.31h-.04c-.76,8.11-1.14,16.34-1.14,24.65H5c0-2.08.02-4.16.08-6.21.04-2.06.12-4.1.22-6.13v-.08c.1-2.04.22-4.1.36-6.11.14-2.06.3-4.1.5-6.11,0-.08.02-.12.02-.18.18-2,.4-3.98.64-5.95.22-1.84.44-3.68.7-5.49.3-2.16.64-4.3.98-6.43.32-1.9.66-3.8,1.02-5.69.34-1.82.7-3.64,1.1-5.43.02-.16.06-.34.1-.5.4-1.88.82-3.74,1.26-5.59.38-1.64.78-3.28,1.2-4.89.16-.6.32-1.18.46-1.76.92-3.46,1.9-6.87,2.96-10.27.02-.1.06-.18.08-.28.56-1.76,1.12-3.52,1.7-5.25.58-1.72,1.16-3.42,1.78-5.11.08-.24.16-.46.24-.68,1.9-5.23,3.96-10.41,6.17-15.48.1-.24.22-.5.32-.76.72-1.6,1.44-3.2,2.18-4.77.06-.14.12-.26.18-.4,3.12-6.65,6.49-13.17,10.13-19.5.1-.14.18-.3.26-.44,4.78-8.25,9.97-16.2,15.58-23.85,2.26-3.06,4.58-6.05,6.93-9.01.06-.06.1-.12.12-.16,2.36-2.9,4.75-5.75,7.19-8.55,1.26-1.42,2.52-2.82,3.8-4.22,6.41-6.97,13.19-13.61,20.3-19.84,1.44-1.24,2.88-2.48,4.32-3.7,1.3-1.08,2.62-2.16,3.94-3.24.16-.12.3-.24.46-.36,1.46-1.18,2.94-2.34,4.44-3.5t.04-.02c3.02-2.3,6.07-4.54,9.19-6.71,1.54-1.1,3.12-2.16,4.69-3.22,1.32-.88,2.64-1.74,3.96-2.6.28-.16.54-.34.82-.52,3.22-2.04,6.47-4.02,9.77-5.91.04-.02.06-.04.1-.06,1.62-.92,3.26-1.84,4.89-2.74,1.8-.98,3.6-1.94,5.39-2.88,1.58-.8,3.18-1.62,4.77-2.4,1.48-.72,2.94-1.42,4.44-2.12,1.92-.88,3.84-1.76,5.75-2.6.46-.22.94-.42,1.42-.62,1.38-.6,2.76-1.18,4.14-1.74,1.78-.72,3.54-1.44,5.33-2.12.28-.1.54-.2.82-.32,1.54-.58,3.08-1.14,4.64-1.7,1.82-.66,3.66-1.3,5.49-1.9,1.62-.54,3.26-1.08,4.89-1.58.28-.08.54-.16.8-.24,1.8-.56,3.62-1.1,5.43-1.62,1.88-.52,3.76-1.04,5.63-1.52.16-.04.3-.08.44-.12,1.76-.46,3.5-.88,5.25-1.3,1.88-.44,3.74-.86,5.63-1.26.54-.1,1.1-.22,1.66-.34,1.34-.28,2.68-.54,4.02-.8,2.02-.36,4.04-.72,6.05-1.06,3.92-.64,7.85-1.18,11.81-1.64,1.98-.24,3.98-.44,5.95-.64,4-.36,8.01-.64,12.05-.84,4.12-.18,8.23-.28,12.39-.28s8.25.1,12.37.28c2.38.12,4.75.26,7.11.44,1.9.14,3.8.3,5.69.48,1.74.16,3.48.36,5.19.56,1.32.14,2.62.3,3.92.5.96.1,1.92.24,2.88.4,1.82.24,3.64.52,5.43.84,1.32.2,2.64.42,3.96.68.74.12,1.46.26,2.2.4,1.52.28,3.04.6,4.55.92.22.02.42.08.62.12,1.64.34,3.28.7,4.89,1.1.62.12,1.24.26,1.84.44.96.2,1.92.44,2.86.7,1.06.24,2.12.52,3.18.82,1.22.3,2.42.64,3.62.98.48.12.96.26,1.44.42,1.36.38,2.72.78,4.08,1.2.5.14.98.28,1.48.46,1.56.48,3.12.98,4.66,1.5,1.84.62,3.68,1.24,5.49,1.9Z"/>
    <path class="cls-1" d="M34.75,683.15H0v-5c0-2.38.03-4.46.08-6.36.04-1.82.11-3.83.22-6.11v-.2c.11-2.07.23-4.16.37-6.21.16-2.3.32-4.32.5-6.15,0-.13.02-.25.04-.35.16-1.82.37-3.73.65-6,.22-1.87.45-3.74.71-5.6.3-2.15.64-4.29.98-6.44l.02-.12c.33-1.93.67-3.86,1.04-5.79.39-2.08.74-3.8,1.09-5.41.04-.22.08-.45.15-.71.39-1.85.81-3.7,1.27-5.63.4-1.71.81-3.4,1.22-5l.12-.43c.11-.42.22-.83.32-1.25l.03-.11c.95-3.56,1.95-7.04,2.98-10.35.01-.04.02-.08.03-.12l.09-.31c.57-1.78,1.13-3.56,1.72-5.32.56-1.67,1.16-3.44,1.8-5.19.08-.24.16-.47.24-.69,1.97-5.42,4.08-10.73,6.31-15.82l.11-.25c.04-.1.09-.2.13-.31l.11-.25c.73-1.62,1.46-3.24,2.21-4.84l.18-.4c3.2-6.82,6.67-13.5,10.32-19.87l.25-.43c4.86-8.4,10.21-16.58,15.9-24.34,2.11-2.86,4.35-5.77,6.83-8.89l.02-.05.35-.43c2.46-3.02,4.91-5.94,7.3-8.68,1.3-1.47,2.58-2.89,3.88-4.3,6.58-7.15,13.54-13.95,20.69-20.22,1.48-1.28,2.93-2.52,4.38-3.75,1.31-1.09,2.61-2.16,3.91-3.22l.38-.3c.08-.07.17-.13.26-.2,1.47-1.19,2.96-2.35,4.46-3.52l1.39-1.04c2.69-2.02,5.38-3.98,8.03-5.83,1.56-1.11,3.19-2.21,4.77-3.27,1.35-.9,2.68-1.77,4.01-2.63l.26-.16c.11-.06.21-.13.32-.21l.26-.17c3.41-2.16,6.73-4.17,9.92-6,.08-.05.17-.1.26-.15,1.62-.92,3.25-1.84,4.89-2.73,1.84-1,3.66-1.97,5.48-2.93l.88-.45c1.33-.67,2.67-1.36,4.01-2.01,1.51-.73,2.99-1.44,4.51-2.16,1.95-.89,3.87-1.77,5.79-2.62.51-.24,1.04-.47,1.57-.69,1.34-.58,2.76-1.18,4.18-1.75l.65-.26c1.6-.65,3.18-1.29,4.8-1.9.27-.1.43-.16.61-.24l.21-.08c1.56-.59,3.12-1.16,4.71-1.72,2-.73,3.85-1.36,5.63-1.95,1.57-.52,3.28-1.09,4.99-1.61.3-.09.5-.15.7-.21,1.85-.57,3.71-1.13,5.62-1.67,1.95-.54,3.86-1.07,5.77-1.55l.41-.11c1.79-.47,3.57-.9,5.36-1.33,1.94-.45,3.83-.88,5.77-1.29l.12-.02c.47-.09.95-.19,1.43-.29l.11-.02c1.36-.29,2.73-.55,4.09-.81,2.11-.38,4.14-.74,6.17-1.08,3.85-.63,7.9-1.19,12.06-1.67,1.94-.23,3.92-.43,5.89-.63h.14c4.11-.38,8.23-.67,12.3-.87,4.4-.19,8.52-.29,12.63-.29s8.28.1,12.59.29c2.75.14,5.11.28,7.27.45,1.92.14,3.86.3,5.79.49,1.76.16,3.54.37,5.3.57,1.47.16,2.76.32,3.98.51.91.1,1.89.23,2.98.41,1.87.25,3.72.53,5.51.85,1.5.23,2.82.45,4.03.69.65.11,1.29.23,1.93.35l.31.06c1.47.27,2.97.58,4.46.9.31.05.56.1.72.14,1.98.41,3.57.77,5.04,1.13.74.15,1.38.3,1.98.47.9.19,1.84.42,2.86.7.99.23,2.02.49,3.24.84,1.22.3,2.42.64,3.62.98.5.12,1.06.29,1.61.47,1.34.38,2.69.77,4.03,1.19.48.14,1.04.3,1.64.51,1.64.51,3.21,1.01,4.68,1.51,1.73.58,3.7,1.25,5.6,1.94l-1.7,4.7,1.72-4.69c1.81.66,3.68,1.33,5.52,2.05l7.15,2.78-5.44,5.42c-6.19,6.17-12.21,12.67-17.89,19.31l-2.19,2.56-3.19-1.07c-19.67-6.58-40.2-10.45-61.02-11.52-3.91-.21-7.98-.31-12.11-.31s-8.17.1-12.12.31c-56.66,2.93-110.04,26.7-150.31,66.95-37.73,37.73-60.56,85.55-66.03,138.29l-.27,2.56c-.59,7.09-.89,14.34-.89,21.58v5ZM10.05,673.15h14.75c.12-6.77.5-13.52,1.12-20.12l.42-4.53h.13c6.51-53.28,30.1-101.55,68.4-139.84,42.02-42,97.73-66.81,156.85-69.87,4.12-.22,8.26-.33,12.64-.33s8.56.11,12.63.33c20.6,1.05,40.93,4.75,60.48,10.98,3.49-4,7.1-7.94,10.78-11.79-1.18-.41-2.36-.81-3.54-1.2-1.5-.51-3.01-.99-4.53-1.46l-.22-.07c-.39-.14-.76-.24-1.14-.35l-.12-.03c-1.32-.41-2.63-.79-3.95-1.16l-.24-.07c-.36-.12-.71-.22-1.07-.31l-.15-.04c-1.19-.34-2.31-.66-3.45-.93l-.17-.04c-1.12-.32-2.05-.56-2.92-.75l-.23-.06c-.93-.26-1.76-.46-2.54-.62l-.42-.11c-.37-.11-.8-.21-1.35-.32l-.25-.05c-1.38-.34-2.88-.68-4.71-1.06l-.63-.12c-1.54-.32-2.99-.63-4.43-.89l-.34-.06c-.59-.11-1.17-.22-1.76-.32l-.16-.03c-1.12-.22-2.31-.42-3.74-.64l-.12-.02c-1.69-.3-3.44-.57-5.21-.8l-.17-.03c-.97-.16-1.81-.28-2.57-.36l-.25-.03c-1.1-.17-2.27-.32-3.68-.47-1.72-.2-3.42-.4-5.12-.55-1.88-.18-3.74-.34-5.61-.47-2.08-.16-4.37-.3-6.99-.43-4.13-.18-8.22-.27-12.12-.27s-7.94.09-12.17.28c-3.91.19-7.89.47-11.82.82h-.09c-1.9.2-3.82.39-5.71.62-4.04.47-7.93,1.01-11.6,1.61-1.98.33-3.98.69-5.98,1.05-1.24.24-2.55.5-3.87.77-.63.13-1.18.25-1.71.35-1.84.39-3.64.8-5.47,1.22-1.68.4-3.37.81-5.07,1.25-.17.05-.35.1-.55.15-1.82.46-3.67.98-5.51,1.49-1.79.51-3.58,1.04-5.28,1.57l-.12.04c-.26.08-.52.16-.79.24-1.51.46-3.11.99-4.69,1.52-1.71.56-3.46,1.16-5.37,1.85-1.52.54-3,1.08-4.48,1.64-.34.14-.66.26-1,.38-1.46.55-2.97,1.16-4.49,1.78l-.65.26c-1.34.54-2.68,1.11-4.02,1.69-.47.2-.87.36-1.25.54l-.15.07c-1.89.83-3.78,1.69-5.67,2.56-1.44.67-2.88,1.36-4.33,2.07-1.29.63-2.58,1.29-3.87,1.94l-.84.42c-1.72.9-3.49,1.84-5.26,2.81-1.58.87-3.17,1.76-4.75,2.65-.06.04-.13.08-.2.12-3.07,1.77-6.28,3.71-9.54,5.77l-.15.1c-.24.16-.48.31-.72.45-1.27.83-2.54,1.66-3.81,2.5-1.58,1.06-3.08,2.07-4.56,3.12-2.93,2.05-5.89,4.21-8.83,6.44l-1.24,1.21h-.34c-1.02.8-2.03,1.6-3.03,2.4l-.24.19c-.09.07-.18.14-.27.21l-.02.02c-1.28,1.05-2.56,2.09-3.81,3.14-1.39,1.18-2.82,2.41-4.25,3.64-6.85,6.01-13.55,12.56-19.88,19.43-1.25,1.37-2.49,2.75-3.74,4.15-2.24,2.57-4.56,5.33-6.9,8.2-.1.15-.22.29-.34.43-2.46,3.09-4.66,5.95-6.73,8.75-5.47,7.45-10.61,15.32-15.28,23.39-.1.19-.21.38-.33.56-3.48,6.07-6.78,12.44-9.83,18.94-.04.08-.07.16-.11.24l-.1.22c-.71,1.52-1.41,3.06-2.1,4.6-.07.18-.15.37-.23.54l-.09.2c-2.17,4.97-4.21,10.08-6.09,15.26-.08.21-.14.37-.2.56l-.05.13c-.61,1.66-1.17,3.32-1.74,5-.55,1.66-1.09,3.35-1.63,5.04l-.03.1-.08.28c-1,3.2-1.97,6.57-2.88,10.01-.12.47-.24.95-.37,1.43l-.1.38c-.4,1.54-.79,3.14-1.16,4.74-.44,1.84-.85,3.67-1.24,5.51l-.04.17h0s0-.01,0-.03l-.07.4c-.34,1.55-.68,3.22-1.06,5.27-.36,1.88-.69,3.74-1,5.61-.33,2.11-.67,4.19-.96,6.29-.26,1.8-.47,3.6-.69,5.4-.26,2.13-.45,3.91-.6,5.59v.23l-.05.3c-.17,1.74-.33,3.66-.48,5.87-.13,1.95-.25,3.93-.35,5.9v.2c-.12,2.26-.19,4.16-.22,5.99-.01.37-.02.74-.03,1.12ZM11.1,654.23v.07s0-.04,0-.07ZM15.58,624.93h0s0,0,0,0Z"/>
  </g>
</svg>