<svg xmlns="http://www.w3.org/2000/svg" viewBox="0 0 1537.5 1463.39">
  <path d="M1230.3,1461.43l-455.16-301.24c-3.87-2.56-8.91-2.56-12.78,0l-455.16,301.24c-8.93,5.91-20.41-2.43-17.55-12.75l145.85-525.98c1.24-4.48-.31-9.26-3.95-12.16L4.39,570.75c-8.38-6.67-4-20.16,6.7-20.63l545.3-23.83c4.64-.2,8.71-3.16,10.34-7.51L757.9,7.52c3.75-10.03,17.94-10.03,21.69,0l191.17,511.25c1.63,4.35,5.7,7.31,10.34,7.51l545.3,23.83c10.7.47,15.09,13.96,6.7,20.63l-427.15,339.79c-3.64,2.89-5.19,7.68-3.95,12.16l145.84,525.98c2.86,10.32-8.62,18.66-17.55,12.75l-455.16-301.24c-3.87-2.56-8.91-2.56-12.78,0Z"/>
</svg>