<?xml version="1.0" encoding="UTF-8"?>
<svg id="Layer_1" data-name="Layer 1" xmlns="http://www.w3.org/2000/svg" viewBox="0 0 55.34 74.53">
  <g>
    <path d="M4.3,4.06c1.88-1.81,4.19-2.85,6.78-3.21,2.64-.37,5.56-.03,8.57.93,1.65.53,2.94.97,3.99,1.33,1.99.69,3.06,1.07,4.03,1.07,1.17,0,2.57-.5,5.62-1.59.95-.34,1.98-.71,2.08-.75,2.63-.93,5.19-1.39,7.55-1.33,2.38.05,4.56.62,6.4,1.73,2.62,1.59,4.07,3.71,4.82,6.12.72,2.3.78,4.81.64,7.35-.2,3.67-.83,7.26-1.91,10.76-1.03,3.36-2.46,6.64-4.28,9.84.93,5.83,1.18,11.07,1.02,15.7-.16,4.78-.75,8.9-1.5,12.34-.81,3.77-1.99,6.68-3.28,8.19-.74.86-1.57,1.35-2.47,1.41-.95.06-1.85-.35-2.64-1.31-1.11-1.34-2.12-3.99-2.88-8.25-.21-1.18-.33-2.48-.38-3.04l-.02-.16h0l-.04-.34c-.83-8.38-1.64-16.62-8.99-16.71-3.51.8-5.36,2.45-6.38,4.89-1.12,2.67-1.39,6.41-1.71,10.99v.02c-.04.63-.19,2.77-.44,4.33-.71,4.31-1.74,7-2.87,8.35-.8.93-1.69,1.35-2.64,1.29-.9-.05-1.74-.53-2.48-1.38-1.31-1.5-2.48-4.4-3.23-8.22-.62-3.15-1.09-7.34-1.33-12.46-.21-4.52-.23-9.79-.01-15.74-1.26-2.89-2.39-5.8-3.3-8.74-.95-3.04-1.67-6.12-2.09-9.26-.35-2.63-.61-5.03-.26-7.34.38-2.44,1.4-4.69,3.63-6.84h0ZM11.45,3.53c-2.03.29-3.83,1.09-5.27,2.48-1.74,1.68-2.53,3.42-2.82,5.28-.31,1.99-.07,4.18.26,6.58.39,2.96,1.08,5.89,1.99,8.81.91,2.93,2.05,5.83,3.32,8.74h0c.08.18.12.38.11.59-.23,6-.21,11.3,0,15.84.23,4.96.69,9.01,1.29,12.06.66,3.36,1.6,5.81,2.6,6.95.25.29.45.45.59.45.08,0,.22-.1.42-.34.84-.99,1.65-3.24,2.27-7.03.23-1.41.37-3.46.41-4.07v-.02c.32-4.82.61-8.75,1.91-11.86,1.39-3.3,3.84-5.52,8.43-6.53h0c.09-.01.19-.02.28-.02,9.96-.04,10.9,9.48,11.85,19.15l.03.34h0s.02.17.02.17c.05.5.16,1.66.36,2.83.66,3.77,1.46,6,2.29,6.99.19.23.32.34.39.34.13,0,.33-.17.58-.47,1.01-1.17,1.97-3.66,2.69-7.01.72-3.33,1.29-7.29,1.45-11.86.16-4.59-.11-9.8-1.07-15.63-.06-.31-.01-.63.16-.93,1.84-3.17,3.27-6.4,4.28-9.7,1.01-3.3,1.61-6.67,1.79-10.11.12-2.27.08-4.48-.53-6.41-.56-1.81-1.65-3.41-3.63-4.6-1.43-.87-3.15-1.3-5.06-1.35-2.03-.04-4.27.36-6.6,1.18-1.43.51-1.77.63-2.07.74-3.35,1.2-4.9,1.75-6.53,1.75-1.43,0-2.65-.43-4.92-1.21-1.04-.36-2.3-.8-3.93-1.32-2.63-.83-5.14-1.13-7.38-.82h0Z"/>
    <path d="M13.53,74.53c-.06,0-.13,0-.2,0-1.02-.05-1.98-.58-2.83-1.55-1.4-1.6-2.58-4.6-3.34-8.45-.66-3.35-1.11-7.57-1.34-12.54-.22-4.73-.22-10-.02-15.66-1.35-3.1-2.42-5.94-3.28-8.68-1.01-3.26-1.7-6.32-2.11-9.35C.07,15.62-.19,13.2.17,10.83c.43-2.79,1.63-5.05,3.78-7.12h0C5.86,1.88,8.23.75,11.01.36c2.67-.38,5.63-.06,8.79.95,1.66.53,2.95.97,4,1.34l.12.04c1.87.65,2.85,1.03,3.76.99,1.06,0,2.4-.48,5.32-1.52l.12-.04c.95-.34,1.98-.71,2.08-.75C37.93.41,40.52-.05,42.94,0c2.53.06,4.76.66,6.65,1.8,2.53,1.53,4.17,3.62,5.04,6.4.81,2.58.78,5.38.66,7.53-.2,3.7-.85,7.36-1.93,10.88-1.01,3.31-2.44,6.6-4.24,9.79.84,5.35,1.18,10.6,1,15.62-.15,4.3-.65,8.48-1.51,12.43-.83,3.85-2.04,6.83-3.39,8.41-.85.98-1.8,1.52-2.82,1.58-1.15.08-2.18-.43-3.06-1.49-1.25-1.51-2.26-4.36-2.99-8.48-.21-1.15-.32-2.4-.38-3l-.06-.57c-.82-8.3-1.59-16.14-8.44-16.26-3.1.72-4.94,2.14-5.98,4.59-1.11,2.64-1.37,6.43-1.67,10.83-.12,1.82-.27,3.33-.45,4.39-.69,4.17-1.69,7.06-2.98,8.59-.84.98-1.79,1.48-2.85,1.48ZM4.65,4.43c-1.98,1.91-3.09,4-3.48,6.56-.34,2.24-.09,4.58.26,7.19.4,2.97,1.07,5.98,2.07,9.18.85,2.74,1.93,5.58,3.28,8.68l.05.1v.11c-.22,5.68-.21,10.96,0,15.69.23,4.85.68,9.13,1.32,12.39.71,3.63,1.84,6.54,3.11,7.98.67.76,1.38,1.17,2.13,1.21.82.03,1.55-.32,2.23-1.12.8-.95,1.94-3.14,2.76-8.1.17-1.03.32-2.51.44-4.28.31-4.5.57-8.37,1.74-11.17,1.16-2.75,3.3-4.4,6.73-5.19h.06s.06-.01.06-.01c7.8.09,8.66,8.77,9.48,17.16l.05.49c.06.67.18,1.9.38,3.01.87,4.92,1.99,7.07,2.77,8.01.67.8,1.43,1.18,2.23,1.13.74-.05,1.46-.47,2.12-1.24,1.25-1.45,2.38-4.29,3.17-7.97.85-3.89,1.35-8.02,1.49-12.25.18-5.01-.17-10.26-1.02-15.61l-.03-.17.09-.15c1.81-3.17,3.23-6.45,4.24-9.74,1.06-3.44,1.69-7.03,1.89-10.64.11-2.06.14-4.75-.62-7.18-.79-2.54-2.29-4.45-4.6-5.84-1.73-1.05-3.8-1.6-6.16-1.66-2.29-.06-4.77.39-7.37,1.31-.1.04-1.13.41-2.08.75l-.12.04c-3.02,1.08-4.42,1.58-5.65,1.58-1.04-.03-2.12-.37-4.09-1.05l-.12-.04c-1.05-.36-2.33-.81-3.98-1.33-3.01-.96-5.82-1.26-8.35-.91-2.57.36-4.76,1.4-6.5,3.08ZM13.54,71.82s-.03,0-.04,0c-.28-.01-.56-.2-.93-.62-1.08-1.24-2.05-3.79-2.71-7.18-.64-3.27-1.08-7.36-1.3-12.14-.23-4.8-.23-10.14,0-15.88,0-.12-.02-.26-.07-.37-1.41-3.21-2.5-6.08-3.34-8.79-.97-3.12-1.63-6.02-2.01-8.89-.32-2.36-.58-4.65-.26-6.72.33-2.16,1.28-3.93,2.96-5.56,1.47-1.42,3.34-2.31,5.55-2.62h0c2.28-.32,4.84-.04,7.6.84,1.54.49,2.77.91,3.77,1.26l.17.06c2.22.77,3.42,1.18,4.76,1.19,1.56,0,3.16-.58,6.36-1.72l2.07-.74c2.42-.85,4.7-1.25,6.78-1.21,2.04.05,3.83.52,5.3,1.42,1.93,1.16,3.19,2.76,3.85,4.88.68,2.17.65,4.66.55,6.58-.18,3.46-.79,6.9-1.81,10.23-1.03,3.34-2.49,6.63-4.33,9.8-.11.18-.14.38-.1.58.88,5.38,1.25,10.67,1.07,15.74-.14,4.08-.63,8.1-1.46,11.95-.73,3.41-1.72,5.98-2.79,7.23-.38.44-.65.63-.94.64-.29.03-.53-.19-.8-.52-.94-1.14-1.75-3.57-2.39-7.22-.21-1.15-.32-2.28-.37-2.83l-.05-.55c-.95-9.61-1.84-18.69-11.29-18.69-.08,0-.17,0-.25.02l-.19.04c-4.03.93-6.47,2.85-7.88,6.19-1.3,3.09-1.57,7.08-1.88,11.7-.05.71-.18,2.73-.42,4.14-.6,3.68-1.4,6.12-2.38,7.27-.27.31-.51.51-.8.51ZM11.52,4.03c-1.99.28-3.67,1.07-4.99,2.35-1.52,1.47-2.37,3.06-2.67,4.99-.3,1.95-.05,4.16.26,6.44.38,2.81,1.02,5.66,1.97,8.73.83,2.67,1.91,5.51,3.3,8.68.11.25.16.53.16.81-.22,5.72-.22,11.03,0,15.8.21,4.67.66,8.81,1.28,11.99.62,3.18,1.53,5.63,2.48,6.72.08.09.14.16.19.2.02-.02.05-.05.07-.08.58-.69,1.44-2.43,2.15-6.78.23-1.36.36-3.35.4-4,.32-4.75.59-8.82,1.96-12.07,1.55-3.68,4.34-5.85,8.78-6.82l.61-.13v.1c10.22.09,11.19,10.01,12.13,19.6l.05.51c.05.58.16,1.68.36,2.79.76,4.34,1.61,6.07,2.18,6.76.01.02.03.03.04.05.04-.04.1-.11.17-.19.95-1.11,1.89-3.58,2.58-6.79.82-3.79,1.3-7.75,1.44-11.77.17-5-.19-10.23-1.06-15.53-.08-.42,0-.88.23-1.26,1.8-3.1,3.23-6.33,4.24-9.59,1-3.25,1.59-6.61,1.77-9.98.1-1.84.13-4.22-.5-6.23-.58-1.88-1.7-3.29-3.41-4.32-1.33-.81-2.94-1.23-4.81-1.27-1.96-.04-4.12.35-6.42,1.16l-2.07.73c-3.31,1.19-4.97,1.78-6.7,1.78-1.51,0-2.76-.44-5.05-1.23l-.21-.07c-1-.35-2.21-.77-3.75-1.25-2.62-.83-5.03-1.1-7.16-.8h0Z"/>
  </g>
  <path d="M22.29,7.2c-.13,11.01-.09,22.02.12,33.02.06,3.21,5.06,3.22,5,0-.21-11.01-.25-22.02-.12-33.02.04-3.22-4.96-3.22-5,0h0Z"/>
  <path d="M22.12,38.97c-5.94.11-7.58,7.28-8.38,11.93-1,5.86-1.76,11.77-2.63,17.65l4.91.66c-.15-2.61-.3-5.25-.94-7.8-.56-2.26-1.69-4.41-1.99-6.74s.1-4.88.37-7.24.6-4.94.66-7.42-.14-5.06-.81-7.47-1.79-4.53-2.87-6.69c-2.04-4.09-3.18-8.36-2.12-12.92.22-.96.47-2.43,1.21-3.17.55-.55,1.47-.44,2.18-.42,2.96.09,5.92.31,8.88.47s3.28-4.09.66-4.91c-1.98-.62-3.96-1.19-6.03-1.45s-4.53-.33-5.84,1.55c-1.1,1.59-1.38,3.95-1.89,5.79-.55,1.97-1.13,3.94-1.55,5.94-.85,4.08-.71,7.94.76,11.85.67,1.79,1.47,3.53,2.04,5.35s.7,3.62.56,5.56c-.17,2.35-.35,4.65-.2,7.01.16,2.47.54,4.93.9,7.38.16,1.07,1.41,1.84,2.41,1.84,1.13,0,2.08-.78,2.41-1.84,1.96-6.19,3.91-12.55,3.88-19.11s-2.6-12.85-4.67-19.04c-.81-2.43-3.96-2.3-4.82,0-2.46,6.58-1,13.95,3.28,19.41.67.86,2.16.9,3.03.39.97-.57,1.41-1.74,1.15-2.82-.85-3.5-1.72-7.02-2.2-10.59-.23-1.73-.36-3.48-.36-5.22,0-.94,0-1.92.12-2.85.02-.17.19-.63.16-.79l.04-.06c-.31.48-.8.47-1.46-.03,1.68,1.4,4.14.49,4.27-1.77.08-1.48-.96-2.85-2.41-3.16l-.66,4.91c2.26-.25,4.52-.49,6.79-.74l-2.41-3.16c-.73,2.52-.2,5.15.03,7.71s.42,5.21.57,7.82.25,5.22.31,7.84c.03,1.22.08,2.45.05,3.67,0,.35-.15.81-.12,1.15.03.47-.44.48.22.29h1.33l-.28-.07,1.1.64c.18.47.18.45,0-.05l-.13-.39c-.12-.39-.24-.79-.35-1.19-.22-.8-.4-1.61-.57-2.42-.32-1.57-.56-3.15-.8-4.73-.47-3.2-.88-6.44-1.77-9.56-.45-1.58-1.04-3.12-1.76-4.6-.21-.44-.62-1.63-1.03-1.93-.11-.58-.42-.2-.91,1.12h-.37s.08.13.07.16c-.04.16.41.78.5.99.16.36.31.73.46,1.1.33.86.64,1.73.91,2.61.54,1.76.94,3.56,1.23,5.38.21,1.33,1.88,2.08,3.08,1.75,1.42-.39,1.96-1.74,1.75-3.08-.48-3.04-1.31-6-2.49-8.84-1.07-2.59-2.8-5.67-6.15-4.95-1.39.3-2.52,1.26-2.94,2.65-.46,1.51.2,2.99.91,4.29,1.28,2.35,2.07,4.84,2.61,7.46,1.07,5.19,1.21,10.67,3,15.7.53,1.49,1.51,2.86,3.26,2.86,1.56,0,2.83-1.29,3.46-2.6,1.22-2.52.78-5.69.7-8.39-.1-3.59-.28-7.18-.54-10.77-.13-1.79-.28-3.58-.45-5.37-.15-1.61-.53-3.34-.07-4.92.42-1.43-.78-3.34-2.41-3.16-2.26.25-4.52.49-6.79.74-1.24.13-2.3.85-2.46,2.17-.14,1.17.56,2.47,1.79,2.74l.26.06-1.1-.64-.07-.08-.34-1.26v.27c1.41-.59,2.83-1.18,4.25-1.77-2.09-1.75-5.13-1.25-6.47,1.2-1.18,2.14-.99,5.13-.89,7.49.22,5.33,1.46,10.55,2.71,15.72l4.18-2.43c-3.21-4.09-3.79-9.76-2-14.55h-4.82c1.91,5.72,4.46,11.59,4.49,17.71s-1.88,12.02-3.7,17.78h4.82c-.6-4.05-.95-7.99-.6-12.09.17-2.04.21-4.01-.19-6.03-.35-1.8-1.05-3.51-1.73-5.2s-1.33-3.28-1.71-5-.3-3.53,0-5.25c.35-2.01.92-3.97,1.47-5.94.26-.93.51-1.85.77-2.78.24-.85.36-2.04.88-2.75l-.9.9c.61-.44,2.37.02,3.11.17,1.36.29,2.69.7,4.01,1.12l.66-4.91c-2.76-.15-5.52-.31-8.28-.44s-5.28.36-6.98,2.72c-1.46,2.01-1.97,4.71-2.26,7.12-.31,2.61-.13,5.3.51,7.86,1.23,4.91,4.69,8.98,5.39,14.05s-.6,10.32-.91,15.44c-.18,3.02.41,5.74,1.39,8.57,1.04,3,1.39,5.93,1.57,9.09.07,1.24.9,2.3,2.17,2.46,1.11.13,2.56-.55,2.74-1.79.75-5.11,1.5-10.22,2.26-15.32.37-2.48.76-4.96,1.54-7.35.35-1.08,1.08-3.21,2.38-3.24,3.21-.06,3.22-5.06,0-5h0Z"/>
  <path d="M29.56,40.31c.1-5.34.19-10.67.29-16.01l.14-7.88.07-3.94.04-1.97.02-.98v-.49c.04-.44-.01-.33-.14.34l-.9.9.19-.11-1.26.34.25.02-1.26-.34c-.8-.58-.09.06.18.33s.55.49.87.66c.56.3,1.21.47,1.84.5,1.36.07,2.65-.47,3.84-1.07,2.42-1.22,4.96-2.37,7.74-2.37,1.91,0,3.91.67,5.21,2.12,1.5,1.68,1.29,4.19,1.02,6.27-.66,5.2-2.88,10.07-4.19,15.11-.68,2.6-1.16,5.31-1.14,8,.02,2.87.75,5.67.97,8.52.26,3.4.19,6.83-.07,10.23-.12,1.65-.29,3.3-.54,4.93-.12.81-.25,1.61-.4,2.42-.07.4-.14.8-.23,1.2-.05.25-.28.56-.06.38l1.1-.64h.59c.37.22.74.43,1.1.65.04.03.1.23.07.28.16-.28-.02-1.08-.03-1.43-.03-.99-.09-1.98-.19-2.96-.21-2.12-.54-4.22-1.02-6.3-.85-3.69-2.08-7.62-4.14-10.83-1-1.56-2.24-2.92-3.79-3.95-1.25-.83-2.7-1.29-3.95-2.11-1.12-.73-1.15-1.57-1.18-2.93-.05-2.11-.09-4.23-.14-6.34-.09-4.31-.24-8.61-.28-12.92,0-.15.08-1.11-.1-.69-.15.34-.01.04.21-.06.19-.08.38-.2.57-.29.98-.5,1.98-.98,2.98-1.45,1.8-.85,3.63-1.66,5.48-2.41.95-.39,1.91-.76,2.87-1.12.1-.04,1.26-.43,1.26-.46.03.2-.96-.66-.15.26.97,1.12,1.27,2.67,1.27,4.12,0,1.95-.48,3.86-.93,5.74-.49,2.07-1.04,4.13-1.58,6.2-2.41,9.17-4.66,18.7-2.36,28.15.77,3.14,5.47,1.8,4.82-1.33-.92-4.46-1.97-9.03-4.78-12.73-1.27-1.67-2.81-3.12-4.68-4.13-1.19-.64-4.13-1.37-4.09-3.08l-3.76,2.16c3.1,1.4,6.3,2.5,9.64,3.13,1.54.29,3.4.82,4.85-.02,1.56-.91,1.82-2.99,1.67-4.61-.15-1.49-.44-2.65.04-4.1.51-1.53,1.2-2.97,1.58-4.55.76-3.17.86-6.47.87-9.72,0-1.33.02-2.68-.47-3.93-.65-1.69-2.13-2.83-3.95-2.96-3.17-.22-5.07,2.58-7.73,3.76s-5.82,1.15-6.48,4.6c-.29,1.49-.08,3.09-.03,4.6.05,1.7.06,3.41.19,5.1.53,6.76,4.5,12.51,11.11,14.59.8.25,1.86,0,2.43-.64,1.82-2.05.65-4.62-.07-6.9-.66-2.08-1.37-4.19-1.61-6.37-.47-4.28.44-8.58,2.55-12.32l-4.57-1.93c-1.47,5.61-2.16,11.42-2,17.22l4.27-1.77c-3.25-3.33-7.55-7.7-5.71-12.79h-4.82c1.45,3.51,2.9,7.03,4.35,10.54.15.37.31.75.46,1.12.12.27.23.54.33.82l.44-1.14c-.14-.13-1.78,1.23-1.93,1.36-1.2,1.09-2.03,2.58-2.42,4.15l4.18-1.1c-1.01-1.31-1.55-2.88-1.84-4.48l-3.08,3.08c1.03.22,1.87.56,2.75,1.13,1.74,1.13,3.57-.41,3.76-2.16.49-4.58,1.58-9.08,3.12-13.42.36-1.02-.24-2.31-1.15-2.82-1.42-.79-2.83-.55-4.2.21-2.81,1.57-.29,5.89,2.52,4.32.05-.1.09-.11.11-.04l-1.26-.34.3.17-1.15-2.82c-1.7,4.78-2.76,9.71-3.3,14.75l3.76-2.16c-1.2-.78-2.54-1.34-3.94-1.64-1.97-.42-3.42,1.16-3.08,3.08.45,2.51,1.57,4.69,3.12,6.69,1.17,1.51,3.77.57,4.18-1.1.35-1.42,1.18-1.9,2.31-2.7,1.93-1.37,2.02-3.32,1.17-5.37-1.57-3.81-3.15-7.62-4.72-11.43-.94-2.27-3.94-2.45-4.82,0-2.49,6.91,2.49,13.03,7,17.65,1.49,1.53,4.33.4,4.27-1.77-.15-5.38.45-10.69,1.82-15.89.71-2.71-3.15-4.43-4.57-1.93-2.22,3.93-3.42,8.41-3.35,12.93.04,2.27.41,4.54,1.02,6.73.31,1.12.68,2.23,1.02,3.34.18.59.37,1.18.53,1.78.08.3.16.6.24.9,0-.06,0-.13-.02-.19l.64-1.1-.18.2,2.43-.64c-2.9-.91-5.37-3.12-6.57-5.93-.79-1.86-.9-3.9-.96-5.89-.03-1.02-.06-2.04-.09-3.06-.02-.56-.03-1.11-.05-1.67-.01-.5.14-1.28-.04-1.73-.12-.31.23-.24-.18,0,.16-.09.43-.15.63-.21,1.02-.28,2-.56,2.98-.98s1.88-.88,2.74-1.48c.76-.53,1.43-1.22,2.24-1.67.03-.02.6-.31.59-.24-.03.16-.27-.6-.36-.22-.05.21.1.63.11.88.02.57,0,1.14,0,1.71,0,2.05-.03,4.13-.34,6.16-.35,2.31-1.3,4.32-1.99,6.52-.36,1.15-.51,2.36-.38,3.56.11,1.02.48,2.19.11,3.19l.64-1.1-.23.27,1.1-.64c.14-.06-.23,0-.45-.03-.46-.07-.92-.15-1.37-.24-.99-.19-1.97-.42-2.94-.69-1.81-.5-3.58-1.12-5.28-1.9s-3.71.13-3.76,2.16c-.06,2.53,1.51,4.57,3.57,5.87,1.78,1.12,3.75,1.68,5.26,3.21,3.16,3.21,4.02,7.94,4.89,12.18l4.82-1.33c-2.18-8.92.39-18,2.66-26.63,1.12-4.25,2.78-8.97,2.32-13.42-.38-3.67-2.96-9.28-7.56-7.84s-8.65,3.43-12.74,5.46c-2.23,1.1-3.85,2.35-3.99,5.02-.12,2.27.08,4.59.13,6.86.1,4.6.13,9.21.3,13.8.08,2.07.59,3.99,2.13,5.46,1.25,1.18,2.82,1.82,4.32,2.6,3.31,1.71,4.65,5.34,5.74,8.7,1.38,4.23,1.85,8.4,2.09,12.81.11,2.06,1.12,4.36,3.52,4.36,2.64,0,3.35-2.51,3.73-4.61.84-4.64,1.3-9.35,1.33-14.06.01-2.34-.07-4.68-.37-7.01-.28-2.19-.75-4.35-.74-6.56.01-3.95,1.27-7.77,2.47-11.49,2.28-7.03,6.08-17.38-1.32-22.66-3.38-2.41-7.82-2.58-11.71-1.47-2.1.6-3.94,1.68-5.93,2.53-.11.05-.67.2-.68.23-.01.03,1.36,1.1.13-.17-.92-.95-2.37-1.35-3.58-.68-2.13,1.2-1.64,4.09-1.68,6.15l-.13,7.14-.25,14.04-.13,7.14c-.06,3.22,4.94,3.22,5,0h0Z"/>
</svg>