<?xml version="1.0" encoding="UTF-8"?>
<svg id="Layer_1" data-name="Layer 1" xmlns="http://www.w3.org/2000/svg" viewBox="0 0 55.34 74.53">
  <defs>
    <style>
      .cls-1 {
        fill: #231f20;
      }
    </style>
  </defs>
  <path d="M4.3,4.06c1.88-1.81,4.19-2.85,6.78-3.21,2.64-.37,5.56-.03,8.57.93,1.65.53,2.94.97,3.99,1.33,1.99.69,3.06,1.07,4.03,1.07,1.17,0,2.57-.5,5.62-1.59.95-.34,1.98-.71,2.08-.75,2.63-.93,5.19-1.39,7.55-1.33,2.38.05,4.56.62,6.4,1.73,2.62,1.59,4.07,3.71,4.82,6.12.72,2.3.78,4.81.64,7.35-.2,3.67-.83,7.26-1.91,10.76-1.03,3.36-2.46,6.64-4.28,9.84.93,5.83,1.18,11.07,1.02,15.7-.16,4.78-.75,8.9-1.5,12.34-.81,3.77-1.99,6.68-3.28,8.19-.74.86-1.57,1.35-2.47,1.41-.95.06-1.85-.35-2.64-1.31-1.11-1.34-2.12-3.99-2.88-8.25-.21-1.18-.33-2.48-.38-3.04l-.02-.16h0l-.04-.34c-.83-8.38-1.64-16.62-8.99-16.71-3.51.8-5.36,2.45-6.38,4.89-1.12,2.67-1.39,6.41-1.71,10.99v.02c-.04.63-.19,2.77-.44,4.33-.71,4.31-1.74,7-2.87,8.35-.8.93-1.69,1.35-2.64,1.29-.9-.05-1.74-.53-2.48-1.38-1.31-1.5-2.48-4.4-3.23-8.22-.62-3.15-1.09-7.34-1.33-12.46-.21-4.52-.23-9.79-.01-15.74-1.26-2.89-2.39-5.8-3.3-8.74-.95-3.04-1.67-6.12-2.09-9.26-.35-2.63-.61-5.03-.26-7.34.38-2.44,1.4-4.69,3.63-6.84h0ZM11.45,3.53c-2.03.29-3.83,1.09-5.27,2.48-1.74,1.68-2.53,3.42-2.82,5.28-.31,1.99-.07,4.18.26,6.58.39,2.96,1.08,5.89,1.99,8.81.91,2.93,2.05,5.83,3.32,8.74h0c.08.18.12.38.11.59-.23,6-.21,11.3,0,15.84.23,4.96.69,9.01,1.29,12.06.66,3.36,1.6,5.81,2.6,6.95.25.29.45.45.59.45.08,0,.22-.1.42-.34.84-.99,1.65-3.24,2.27-7.03.23-1.41.37-3.46.41-4.07v-.02c.32-4.82.61-8.75,1.91-11.86,1.39-3.3,3.84-5.52,8.43-6.53h0c.09-.01.19-.02.28-.02,9.96-.04,10.9,9.48,11.85,19.15l.03.34h0s.02.17.02.17c.05.5.16,1.66.36,2.83.66,3.77,1.46,6,2.29,6.99.19.23.32.34.39.34.13,0,.33-.17.58-.47,1.01-1.17,1.97-3.66,2.69-7.01.72-3.33,1.29-7.29,1.45-11.86.16-4.59-.11-9.8-1.07-15.63-.06-.31-.01-.63.16-.93,1.84-3.17,3.27-6.4,4.28-9.7,1.01-3.3,1.61-6.67,1.79-10.11.12-2.27.08-4.48-.53-6.41-.56-1.81-1.65-3.41-3.63-4.6-1.43-.87-3.15-1.3-5.06-1.35-2.03-.04-4.27.36-6.6,1.18-1.43.51-1.77.63-2.07.74-3.35,1.2-4.9,1.75-6.53,1.75-1.43,0-2.65-.43-4.92-1.21-1.04-.36-2.3-.8-3.93-1.32-2.63-.83-5.14-1.13-7.38-.82h0Z"/>
  <path class="cls-1" d="M13.53,74.53c-.06,0-.13,0-.2,0-1.02-.05-1.98-.58-2.83-1.55-1.4-1.6-2.58-4.6-3.34-8.45-.66-3.35-1.11-7.57-1.34-12.54-.22-4.73-.22-10-.02-15.66-1.35-3.1-2.42-5.94-3.28-8.68-1.01-3.26-1.7-6.32-2.11-9.35C.07,15.62-.19,13.2.17,10.83c.43-2.79,1.63-5.05,3.78-7.12h0C5.86,1.88,8.23.75,11.01.36c2.67-.38,5.63-.06,8.79.95,1.66.53,2.95.97,4,1.34l.12.04c1.87.65,2.85,1.03,3.76.99,1.06,0,2.4-.48,5.32-1.52l.12-.04c.95-.34,1.98-.71,2.08-.75C37.93.41,40.52-.05,42.94,0c2.53.06,4.76.66,6.65,1.8,2.53,1.53,4.17,3.62,5.04,6.4.81,2.58.78,5.38.66,7.53-.2,3.7-.85,7.36-1.93,10.88-1.01,3.31-2.44,6.6-4.24,9.79.84,5.35,1.18,10.6,1,15.62-.15,4.3-.65,8.48-1.51,12.43-.83,3.85-2.04,6.83-3.39,8.41-.85.98-1.8,1.52-2.82,1.58-1.15.08-2.18-.43-3.06-1.49-1.25-1.51-2.26-4.36-2.99-8.48-.21-1.15-.32-2.4-.38-3l-.06-.57c-.82-8.3-1.59-16.14-8.44-16.26-3.1.72-4.94,2.14-5.98,4.59-1.11,2.64-1.37,6.43-1.67,10.83-.12,1.82-.27,3.33-.45,4.39-.69,4.17-1.69,7.06-2.98,8.59-.84.98-1.79,1.48-2.85,1.48ZM4.65,4.43c-1.98,1.91-3.09,4-3.48,6.56-.34,2.24-.09,4.58.26,7.19.4,2.97,1.07,5.98,2.07,9.18.85,2.74,1.93,5.58,3.28,8.68l.05.1v.11c-.22,5.68-.21,10.96,0,15.69.23,4.85.68,9.13,1.32,12.39.71,3.63,1.84,6.54,3.11,7.98.67.76,1.38,1.17,2.13,1.21.82.03,1.55-.32,2.23-1.12.8-.95,1.94-3.14,2.76-8.1.17-1.03.32-2.51.44-4.28.31-4.5.57-8.37,1.74-11.17,1.16-2.75,3.3-4.4,6.73-5.19h.06s.06-.01.06-.01c7.8.09,8.66,8.77,9.48,17.16l.05.49c.06.67.18,1.9.38,3.01.87,4.92,1.99,7.07,2.77,8.01.67.8,1.43,1.18,2.23,1.13.74-.05,1.46-.47,2.12-1.24,1.25-1.45,2.38-4.29,3.17-7.97.85-3.89,1.35-8.02,1.49-12.25.18-5.01-.17-10.26-1.02-15.61l-.03-.17.09-.15c1.81-3.17,3.23-6.45,4.24-9.74,1.06-3.44,1.69-7.03,1.89-10.64.11-2.06.14-4.75-.62-7.18-.79-2.54-2.29-4.45-4.6-5.84-1.73-1.05-3.8-1.6-6.16-1.66-2.29-.06-4.77.39-7.37,1.31-.1.04-1.13.41-2.08.75l-.12.04c-3.02,1.08-4.42,1.58-5.65,1.58-1.04-.03-2.12-.37-4.09-1.05l-.12-.04c-1.05-.36-2.33-.81-3.98-1.33-3.01-.96-5.82-1.26-8.35-.91-2.57.36-4.76,1.4-6.5,3.08ZM13.54,71.82s-.03,0-.04,0c-.28-.01-.56-.2-.93-.62-1.08-1.24-2.05-3.79-2.71-7.18-.64-3.27-1.08-7.36-1.3-12.14-.23-4.8-.23-10.14,0-15.88,0-.12-.02-.26-.07-.37-1.41-3.21-2.5-6.08-3.34-8.79-.97-3.12-1.63-6.02-2.01-8.89-.32-2.36-.58-4.65-.26-6.72.33-2.16,1.28-3.93,2.96-5.56,1.47-1.42,3.34-2.31,5.55-2.62h0c2.28-.32,4.84-.04,7.6.84,1.54.49,2.77.91,3.77,1.26l.17.06c2.22.77,3.42,1.18,4.76,1.19,1.56,0,3.16-.58,6.36-1.72l2.07-.74c2.42-.85,4.7-1.25,6.78-1.21,2.04.05,3.83.52,5.3,1.42,1.93,1.16,3.19,2.76,3.85,4.88.68,2.17.65,4.66.55,6.58-.18,3.46-.79,6.9-1.81,10.23-1.03,3.34-2.49,6.63-4.33,9.8-.11.18-.14.38-.1.58.88,5.38,1.25,10.67,1.07,15.74-.14,4.08-.63,8.1-1.46,11.95-.73,3.41-1.72,5.98-2.79,7.23-.38.44-.65.63-.94.64-.29.03-.53-.19-.8-.52-.94-1.14-1.75-3.57-2.39-7.22-.21-1.15-.32-2.28-.37-2.83l-.05-.55c-.95-9.61-1.84-18.69-11.29-18.69-.08,0-.17,0-.25.02l-.19.04c-4.03.93-6.47,2.85-7.88,6.19-1.3,3.09-1.57,7.08-1.88,11.7-.05.71-.18,2.73-.42,4.14-.6,3.68-1.4,6.12-2.38,7.27-.27.31-.51.51-.8.51ZM11.52,4.03c-1.99.28-3.67,1.07-4.99,2.35-1.52,1.47-2.37,3.06-2.67,4.99-.3,1.95-.05,4.16.26,6.44.38,2.81,1.02,5.66,1.97,8.73.83,2.67,1.91,5.51,3.3,8.68.11.25.16.53.16.81-.22,5.72-.22,11.03,0,15.8.21,4.67.66,8.81,1.28,11.99.62,3.18,1.53,5.63,2.48,6.72.08.09.14.16.19.2.02-.02.05-.05.07-.08.58-.69,1.44-2.43,2.15-6.78.23-1.36.36-3.35.4-4,.32-4.75.59-8.82,1.96-12.07,1.55-3.68,4.34-5.85,8.78-6.82l.61-.13v.1c10.22.09,11.19,10.01,12.13,19.6l.05.51c.05.58.16,1.68.36,2.79.76,4.34,1.61,6.07,2.18,6.76.01.02.03.03.04.05.04-.04.1-.11.17-.19.95-1.11,1.89-3.58,2.58-6.79.82-3.79,1.3-7.75,1.44-11.77.17-5-.19-10.23-1.06-15.53-.08-.42,0-.88.23-1.26,1.8-3.1,3.23-6.33,4.24-9.59,1-3.25,1.59-6.61,1.77-9.98.1-1.84.13-4.22-.5-6.23-.58-1.88-1.7-3.29-3.41-4.32-1.33-.81-2.94-1.23-4.81-1.27-1.96-.04-4.12.35-6.42,1.16l-2.07.73c-3.31,1.19-4.97,1.78-6.7,1.78-1.51,0-2.76-.44-5.05-1.23l-.21-.07c-1-.35-2.21-.77-3.75-1.25-2.62-.83-5.03-1.1-7.16-.8h0Z"/>
</svg>