<svg xmlns="http://www.w3.org/2000/svg" viewBox="0 0 800 879.13">
  <path d="M578.77,450H197.74c-19.02,0-34.49-15.47-34.49-34.49V34.49c0-19.02,15.47-34.49,34.49-34.49h381.02c19.02,0,34.49,15.47,34.49,34.49v381.02c0,19.02-15.47,34.49-34.49,34.49ZM213.26,400h350V50H213.26v350Z"/>
  <path d="M790,879.13h-30c-5.52,0-10-4.48-10-10v-201.12c0-76.7-62.18-138.88-138.88-138.88H188.88c-76.7,0-138.88,62.18-138.88,138.88v201.12c0,5.52-4.48,10-10,10H10c-5.52,0-10-4.48-10-10v-201.12c0-104.32,84.57-188.88,188.88-188.88h422.23c104.32,0,188.88,84.57,188.88,188.88v201.12c0,5.52-4.48,10-10,10Z"/>
</svg>
