<?xml version="1.0" encoding="UTF-8"?>
<svg id="Layer_1" data-name="Layer 1" xmlns="http://www.w3.org/2000/svg" viewBox="0 0 959.49 959.49">
  <defs>
    <style>
      .cls-1 {
        fill: #26cbb0;
      }

      .cls-2 {
        fill: #222b29;
      }
    </style>
  </defs>
  <polygon class="cls-1" points="959.49 479.74 901.89 509.97 954.67 548 893.36 569.76 940.17 614.93 876.38 627.68 916.23 679.09 851.27 682.58 883.37 739.16 818.57 733.36 842.31 793.92 778.99 779 793.92 842.31 733.35 818.58 739.16 883.37 682.58 851.27 679.09 916.23 627.68 876.38 614.93 940.17 569.76 893.36 548 954.67 509.97 901.89 479.74 959.49 449.52 901.89 411.49 954.67 389.73 893.36 344.56 940.17 331.81 876.38 280.39 916.23 276.91 851.27 220.33 883.37 226.13 818.57 165.57 842.31 180.49 778.99 117.18 793.92 140.91 733.35 76.12 739.16 108.22 682.58 43.26 679.09 83.11 627.68 19.32 614.93 66.13 569.76 4.82 548 57.6 509.97 0 479.74 57.6 449.52 4.82 411.49 66.13 389.73 19.32 344.56 83.11 331.81 43.26 280.39 108.22 276.91 76.12 220.33 140.91 226.13 117.18 165.57 180.49 180.49 165.57 117.18 226.14 140.91 220.33 76.12 276.91 108.22 280.4 43.26 331.81 83.11 344.56 19.32 389.73 66.13 411.49 4.82 449.52 57.6 479.74 0 509.97 57.6 548 4.82 569.76 66.13 614.93 19.32 627.68 83.11 679.09 43.26 682.58 108.22 739.16 76.12 733.36 140.91 793.92 117.18 779 180.49 842.31 165.57 818.58 226.14 883.37 220.33 851.27 276.91 916.23 280.4 876.38 331.81 940.17 344.56 893.36 389.73 954.67 411.49 901.89 449.52 959.49 479.74"/>
  <path class="cls-2" d="M678.7,278.87l-254.86,254.86c-3.21,3.21-8.41,3.21-11.62,0l-125.81-125.81c-3.21-3.21-8.41-3.21-11.62,0l-57.95,57.96c-3.21,3.21-3.21,8.41,0,11.62l196.57,196.57c3.21,3.21,8.41,3.21,11.62,0l62.69-62.69,1.08-1.08,260.66-260.67c3.21-3.21,3.21-8.41,0-11.62l-59.14-59.14c-3.21-3.21-8.41-3.21-11.62,0h0Z"/>
</svg>