<?xml version="1.0" encoding="UTF-8"?>
<svg id="Layer_1" data-name="Layer 1" xmlns="http://www.w3.org/2000/svg" viewBox="0 0 946.98 946.98">
  <path class="cls-1" d="M847.61,946.98H99.37c-54.79,0-99.37-44.58-99.37-99.37V99.37C0,44.58,44.58,0,99.37,0h748.23c54.79,0,99.37,44.58,99.37,99.37v748.23c0,54.79-44.58,99.37-99.37,99.37ZM99.37,50c-27.22,0-49.37,22.15-49.37,49.37v748.23c0,27.22,22.15,49.37,49.37,49.37h748.23c27.22,0,49.37-22.15,49.37-49.37V99.37c0-27.22-22.15-49.37-49.37-49.37H99.37Z"/>
  <rect class="cls-1" x="410.25" y="668.68" width="100" height="100" rx="25.1" ry="25.1"/>
  <rect class="cls-1" x="410" y="164.85" width="100" height="383.93" rx="19.01" ry="19.01"/>
</svg>