<?xml version="1.0" encoding="UTF-8"?>
<svg id="Capa_1" data-name="Capa 1" xmlns="http://www.w3.org/2000/svg" viewBox="0 0 1616.16 410.63">
  <defs>
    <style>
      .cls-1, .cls-2 {
        fill: #d7e9ff;
      }
      .cls-2 {
        fill-rule: evenodd;
      }
    </style>
  </defs>
  <path class="cls-2" d="M154.32,85.42H.93c-.74,0-1.18-.82-.77-1.44L55.89.46c.17-.26.46-.41.77-.41h97.67c.51,0,.92.41.92.92v83.52c0,.51-.41.92-.92.92Z"/>
  <path class="cls-2" d="M170.75.05h83.61c.51,0,.92.41.92.92v317.08c0,.23-.09.45-.24.62l-83.61,91.64c-.57.62-1.61.22-1.61-.62V.97c0-.51.41-.92.92-.92Z"/>
  <path class="cls-2" d="M516.82,408.85l-173.78-203.56h-117.46c-.88,0-1.35,1.03-.78,1.69l173.32,203.2c.19.23.48.36.78.36h117.14c.88,0,1.35-1.03.78-1.69Z"/>
  <path class="cls-2" d="M516.72,1.69l-173.78,203.56h-117.46c-.88,0-1.35-1.03-.78-1.69L398.02.36c.19-.23.48-.36.78-.36h117.14c.88,0,1.35,1.03.78,1.69Z"/>
  <path class="cls-2" d="M372.71,1.57l-71.16,83.61c-.18.21-.43.33-.7.33h-130.1c-.51,0-.92-.41-.92-.92V.97c0-.51.41-.92.92-.92h201.25c.79,0,1.21.92.7,1.52Z"/>
  <g>
    <path class="cls-1" d="M607.53,209.06V15.83c0-1.1.89-2,2-2h95.94c1.1,0,2,.89,2,2v204.84c0,67.4,17.43,91.8,56.94,91.8s58.1-24.4,58.1-91.8V15.83c0-1.1.89-2,2-2h92.45c1.1,0,2,.89,2,2v193.22c0,128.98-48.81,189.41-154.55,189.41s-156.87-60.43-156.87-189.41Z"/>
    <path class="cls-1" d="M1000.29,15.83c0-1.1.89-2,2-2h140.93c81.34,0,151.06,27.89,151.06,122.01s-69.72,128.98-151.06,128.98h-41c-1.1,0-2,.89-2,2v122.67c0,1.1-.89,2-2,2h-95.94c-1.1,0-2-.89-2-2V15.83ZM1136.25,185.81c39.51,0,60.43-17.43,60.43-49.97s-20.92-42.99-60.43-42.99h-34.03c-1.1,0-2,.89-2,2v88.97c0,1.1.89,2,2,2h34.03ZM1126.26,237.66l64.48-63.37c.94-.92,2.5-.7,3.14.45l119.65,213.79c.75,1.33-.22,2.97-1.74,2.97h-106.93c-.75,0-1.43-.42-1.78-1.09l-77.21-150.41c-.4-.78-.25-1.72.38-2.34Z"/>
    <rect class="cls-1" x="1376.16" y="13" width="235" height="89" rx="2.99" ry="2.99"/>
    <rect class="cls-1" x="1376.16" y="308" width="240" height="84" rx="2.99" ry="2.99"/>
    <rect class="cls-1" x="1377.16" y="156" width="214" height="85" rx="2.99" ry="2.99"/>
    <rect class="cls-1" x="1311.66" y="163.5" width="214" height="85" rx="2.99" ry="2.99" transform="translate(1624.67 -1212.66) rotate(90)"/>
  </g>
  <path class="cls-2" d="M361.16,205.33l146.31,171.53c.3.35.73.55,1.19.55h30.06c.62,0,.96-.73.56-1.2l-145.75-170.88h-32.36Z"/>
  <path class="cls-2" d="M361.16,205.34L507.58,33.68c.22-.26.55-.41.9-.41h29.73c.82,0,1.27.96.73,1.59l-145.42,170.49h-32.36Z"/>
</svg>