<?xml version="1.0" encoding="UTF-8"?>
<svg id="Layer_1" data-name="Layer 1" xmlns="http://www.w3.org/2000/svg" viewBox="0 0 922.31 922.33">
  <defs>
    <style>
      .cls-1 {
        fill: #1967d2;
      }

      .cls-2 {
        fill: #ea4335;
      }

      .cls-3 {
        fill: #188038;
      }

      .cls-4 {
        fill: #fff;
      }

      .cls-5 {
        fill: #fbbc04;
      }

      .cls-6 {
        fill: #4285f4;
      }

      .cls-7 {
        fill: #1a73e8;
      }

      .cls-8 {
        fill: #34a853;
      }
    </style>
  </defs>
  <path class="cls-1" d="M922.31,71.63v147.63h-216.95V0h145.32c39.55,0,71.63,32.07,71.63,71.63Z"/>
  <path class="cls-6" d="M705.37,0v219.26H217.77v485.2H0V71.63C0,32.07,32.08,0,71.63,0h633.74Z"/>
  <path class="cls-3" d="M217.77,704.46v217.87H71.63c-39.55,0-71.63-32.07-71.63-71.63v-146.25h217.77Z"/>
  <rect class="cls-8" x="217.77" y="704.46" width="487.59" height="217.87"/>
  <polygon class="cls-2" points="922.31 704.46 705.37 922.33 705.37 704.46 922.31 704.46"/>
  <rect class="cls-5" x="705.37" y="219.26" width="216.95" height="485.2"/>
  <rect class="cls-4" x="217.77" y="219.26" width="487.59" height="485.2"/>
  <g>
    <path class="cls-7" d="M483.97,525.45c0,46.16-43.33,83.56-96.77,83.56-49.06,0-89.59-31.53-95.9-72.41l41.24-16.54s3.92,24.78,26.71,37.74c.3.2.62.38.92.52.04.02.06.04.1.06,7.86,4.46,17.16,7.05,27.19,7.05,27.85,0,50.44-20,50.44-44.64s-22.59-44.61-50.44-44.61h-28.96v-41.44h24.66c24.82,0,44.96-17.22,44.96-38.49,0-26.13-20.14-38.47-44.96-38.47-22.55,0-41.24,14.23-44.43,32.78l-39.75-15.45c8.32-34.51,43.79-60.41,86.28-60.41,48.67,0,88.13,34,88.13,75.95,0,25.84-14.97,48.65-37.84,62.38,28.96,14.45,48.43,41.48,48.43,72.41Z"/>
    <polygon class="cls-7" points="631.84 321.46 631.84 602.16 588.07 602.16 588.07 381.63 540.62 415.03 517.89 380.95 588.07 330.61 600.81 321.46 631.84 321.46"/>
  </g>
</svg>