<?xml version="1.0" encoding="UTF-8"?>
<svg id="Layer_1" data-name="Layer 1" xmlns="http://www.w3.org/2000/svg" viewBox="0 0 1001.85 753.31">
  <path class="cls-1" d="M986.52,21.19c-.88-1.08-1.58-2.3-2.53-3.33-.04-.05-.1-.06-.15-.11-.08-.09-.13-.19-.22-.28-10.81-11.26-24.96-17.47-39.85-17.47H58.07c-14.89,0-29.04,6.21-39.85,17.47-.08.08-.14.19-.22.28-.04.05-.1.06-.15.11-.95,1.03-1.65,2.24-2.53,3.33-.2.29-.44.53-.63.83C5.34,33.94,0,48.73,0,64.51v624.29c0,15.3,5.08,29.7,14.61,42.14,1.23,2.03,2.62,3.95,4.32,5.59,1.74,1.69,4.33,4.2,7.76,6.46,2.94,2.32,6.22,4.25,9.78,5.71.2.08.4.17.6.24,2.64,1.15,6.07,2.47,10.2,3.23.22.04.41.07.63.1,3.2.7,6.55,1.04,10.18,1.04h885.71c3.6,0,6.95-.34,10.13-1.02.22-.04.45-.07.68-.12,4.13-.76,7.56-2.08,10.2-3.23.2-.07.4-.16.6-.24,3.6-1.48,6.93-3.44,9.07-5.18l.98-.71c3.3-2.21,5.8-4.62,7.5-6.28.1-.1.17-.23.27-.33.26-.26.53-.49.79-.75.62-.67,1.06-1.48,1.65-2.17.4-.53.84-1.03,1.21-1.59,9.56-11.99,15-26.93,15-42.89V64.51c0-15.78-5.34-30.57-14.7-42.5-.19-.3-.43-.54-.63-.83ZM908.3,56.58l-393.78,380.88c-7.78,7.41-19.43,7.42-27.11.08L93.55,56.58h814.75ZM50.94,662.9V90.41l295.93,286.22L50.94,662.9ZM501.27,696.77l-407.8.03,292.17-282.63,68.44,66.14c3.34,3.2,6.89,6,10.61,8.4.48.31,1.02.48,1.51.78,3.26,1.99,6.59,3.82,10.04,5.21,2.83,1.14,5.76,1.83,8.67,2.56,1.18.3,2.31.8,3.5,1.03,20.7,4.01,42.74-2,59.48-18.08l68.35-66.06,292.09,282.56-407.05.04ZM950.91,662.9l-295.93-286.27L950.91,90.41v572.49Z"/>
</svg>