<?xml version="1.0" encoding="UTF-8"?>
<svg id="Layer_1" data-name="Layer 1" xmlns="http://www.w3.org/2000/svg" viewBox="0 0 184.43 162.91">
  <path class="cls-1" d="M91.84,160.41c-1.23,0-2.42-.49-3.29-1.36L18.47,88.97c-5.84-5.84-10.35-13.03-13.03-20.79-2.71-7.84-3.57-16.28-2.48-24.43,1.7-12.73,7.67-23.82,16.83-31.22C30.24,4.08,44.58.74,59.13,3.38c13.66,2.48,25.8,9.99,34.19,20.97,9.56-11.34,22.92-18.62,37.52-20.28,6.98-.79,14.05-.22,20.44,1.64,6.6,1.92,12.53,5.25,17.15,9.62,9.13,8.64,14.04,21.83,13.45,36.21-.57,13.95-6.43,27.18-16.51,37.26l-70.24,70.24c-.87.87-2.06,1.36-3.29,1.36ZM49.39,11.8c-8.95,0-17.32,2.76-23.76,7.96-7.3,5.9-12.07,14.85-13.45,25.21-1.81,13.56,3.01,27.54,12.87,37.41l66.79,66.79,66.95-66.95h0c8.43-8.43,13.33-19.46,13.8-31.06.47-11.69-3.37-22.29-10.55-29.07-7.21-6.81-18.47-10.09-30.14-8.77-14.09,1.6-26.81,9.48-34.9,21.63-.89,1.33-2.4,2.12-4,2.07-1.6-.04-3.07-.91-3.88-2.29-6.88-11.7-18.41-19.78-31.64-22.18-2.72-.49-5.42-.74-8.08-.74Z"/>
  <path class="cls-1" d="M91.84,162.91c-1.91,0-3.71-.74-5.06-2.1L16.7,90.73c-6.11-6.11-10.82-13.62-13.63-21.74C.24,60.79-.66,51.95.48,43.42c1.78-13.37,8.08-25.03,17.73-32.84C29.24,1.68,44.32-1.85,59.58.92c13.23,2.4,25.13,9.3,33.83,19.55,9.85-10.61,22.94-17.28,37.15-18.89,7.31-.83,14.71-.23,21.42,1.72,6.98,2.04,13.26,5.56,18.16,10.2,9.66,9.13,14.84,23.03,14.23,38.13-.59,14.58-6.71,28.4-17.24,38.93l-70.24,70.24c-1.35,1.35-3.15,2.09-5.06,2.09ZM49.4,5c-10.5,0-20.38,3.28-28.04,9.47-8.66,7-14.31,17.51-15.92,29.61-1.03,7.76-.21,15.81,2.37,23.28,2.56,7.41,6.86,14.27,12.44,19.84l70.08,70.08c.81.81,2.24.81,3.04,0l70.24-70.24c9.64-9.64,15.24-22.28,15.78-35.6.55-13.66-4.07-26.15-12.67-34.29-4.33-4.1-9.91-7.22-16.13-9.03-6.07-1.77-12.8-2.31-19.46-1.55-13.92,1.58-26.67,8.47-35.89,19.41l-2.01,2.38-1.89-2.47c-8.07-10.55-19.66-17.67-32.65-20.02-3.12-.57-6.23-.85-9.29-.85ZM91.84,152.71L23.28,84.15c-10.41-10.41-15.49-25.18-13.58-39.51,1.46-11,6.56-20.53,14.36-26.83,6.79-5.49,15.79-8.52,25.33-8.52,2.82,0,5.69.26,8.53.78,13.94,2.53,26.09,11.05,33.34,23.37.38.64,1.05,1.04,1.79,1.06.73.02,1.44-.35,1.85-.96,8.5-12.76,21.88-21.04,36.7-22.72,12.39-1.41,24.41,2.12,32.14,9.44,7.7,7.28,11.83,18.58,11.33,30.99-.5,12.23-5.66,23.86-14.53,32.73l-68.72,68.72ZM49.39,14.3c-8.4,0-16.28,2.63-22.19,7.41-6.8,5.49-11.25,13.87-12.55,23.6-1.7,12.79,2.84,25.99,12.16,35.31l65.02,65.02,65.18-65.18c7.98-7.98,12.62-18.42,13.07-29.4.44-10.97-3.12-20.86-9.77-27.15-6.68-6.31-17.2-9.34-28.15-8.1-13.35,1.51-25.42,8.99-33.1,20.53-1.37,2.06-3.67,3.25-6.15,3.18-2.48-.07-4.71-1.39-5.96-3.52-6.51-11.07-17.42-18.72-29.93-20.99-2.54-.46-5.11-.7-7.63-.7Z"/>
</svg>